<?xml version="1.0" standalone="no"?>
<!DOCTYPE svg PUBLIC "-//W3C//DTD SVG 1.1//EN" "http://www.w3.org/Graphics/SVG/1.1/DTD/svg11.dtd" >
<svg xmlns="http://www.w3.org/2000/svg" xmlns:xlink="http://www.w3.org/1999/xlink" version="1.1">
<metadata>
Created by FontForge 20200511 at Sun Sep  4 19:06:10 2022
 By convertio
Copyright 2022 Indian Type Foundry. All rights reserved.
</metadata>
<defs>
<font id="Melodrama-Semibold" horiz-adv-x="1003" >
  <font-face 
    font-family="Melodrama Semibold"
    font-weight="600"
    font-stretch="normal"
    units-per-em="2048"
    panose-1="0 0 0 0 0 0 0 0 0 0"
    ascent="1638"
    descent="-410"
    x-height="1067"
    cap-height="1419"
    bbox="-211 -549 3336 1931"
    underline-thickness="102"
    underline-position="-307"
    unicode-range="U+000D-FB04"
  />
<missing-glyph horiz-adv-x="1228" 
 />
    <glyph glyph-name="f_f" unicode="ff" horiz-adv-x="1421" 
d="M393 0h-221v1040h-113v27h113v182q0 158 106.5 265.5t264.5 107.5q170 0 266 -127q42 59 106 93t138 34q150 0 249 -99.5t99 -252.5h-221q0 17 1 46.5t1 43.5q0 235 -135 235q-58 0 -95 -52.5t-37 -158.5v-317h314v-27h-314v-1040h-221v1040h-301v-1040zM393 1364v-297
h301v299q0 112 -40.5 170.5t-110.5 58.5q-66 0 -108 -59.5t-42 -171.5z" />
    <glyph glyph-name="fi" unicode="fi" horiz-adv-x="1009" 
d="M393 0h-221v1040h-113v27h113v178q0 160 106.5 266.5t264.5 106.5q160 0 266 -106.5t106 -266.5h-221v117q0 112 -40.5 170.5t-110.5 58.5q-69 0 -109.5 -59t-40.5 -172v-293h522v-1067h-221v1040h-301v-1040z" />
    <glyph glyph-name="fl" unicode="fl" horiz-adv-x="1028" 
d="M393 0h-221v1040h-113v27h113v178q0 160 106.5 266.5t264.5 106.5q159 0 265.5 -106t106.5 -263v-1249h-221v1362q0 112 -40.5 170.5t-110.5 58.5q-69 0 -109.5 -59t-40.5 -172v-293h150v-27h-150v-1040z" />
    <glyph glyph-name="f_f_i" unicode="ffi" horiz-adv-x="1540" 
d="M59 1040v27h119v182q0 159 107 266t266 107q171 0 260 -133q91 133 264 133q158 0 265.5 -107.5t107.5 -267.5h-221v119q0 112 -41.5 170.5t-110.5 58.5q-68 0 -109.5 -59t-41.5 -172v-297h524v-1067h-221v1040h-303v-1040h-222v1040h-303v-1040h-221v1040h-119z
M399 1364v-297h303v299q0 112 -41 170.5t-110 58.5q-68 0 -110 -59t-42 -172z" />
    <glyph glyph-name="f_f_l" unicode="ffl" horiz-adv-x="1558" 
d="M399 0h-221v1040h-119v27h119v182q0 159 107 266t266 107q171 0 260 -133q91 133 264 133q158 0 265.5 -107t107.5 -264v-1251h-221v1366q0 112 -41.5 170.5t-110.5 58.5q-68 0 -109.5 -59t-41.5 -172v-297h151v-27h-151v-1040h-222v1040h-303v-1040zM399 1364v-297h303
v299q0 112 -41 170.5t-110 58.5q-68 0 -110 -59t-42 -172z" />
    <glyph glyph-name="f_b" unicode="fb" horiz-adv-x="1933" 
d="M393 0h-221v1040h-113v27h113v182q0 158 106.5 265.5t264.5 107.5q159 0 265.5 -107t106.5 -264v-483q52 150 167 234.5t276 84.5q149 0 264.5 -74.5t176.5 -199.5t61 -278q0 -154 -61 -279.5t-176.5 -200.5t-264.5 -75q-161 0 -276 84.5t-167 234.5v-299h-221v1366
q0 112 -40.5 170.5t-110.5 58.5q-66 0 -108 -59.5t-42 -171.5v-297h129v-27h-129v-1040zM1274 27q160 0 259 141t99 367t-99 366.5t-259 140.5q-151 0 -259 -143t-108 -364q0 -222 107.5 -365t259.5 -143z" />
    <glyph glyph-name="f_f_b" unicode="ffb" horiz-adv-x="2463" 
d="M59 1040v27h119v182q0 159 107 266t266 107q171 0 260 -133q91 133 264 133q158 0 265.5 -107t107.5 -264v-481q52 149 166 233t274 84q149 0 264.5 -74.5t176.5 -199.5t61 -278q0 -154 -61 -279.5t-176.5 -200.5t-264.5 -75q-160 0 -274 84.5t-166 234.5v-299h-221v1366
q0 112 -41.5 170.5t-110.5 58.5q-68 0 -109.5 -59t-41.5 -172v-297h151v-27h-151v-1040h-222v1040h-303v-1040h-221v1040h-119zM399 1364v-297h303v299q0 112 -41 170.5t-110 58.5q-68 0 -110 -59t-42 -172zM1806 27q158 0 257.5 141t99.5 367t-99.5 366.5t-257.5 140.5
q-153 0 -259.5 -143t-106.5 -364q0 -223 106.5 -365.5t259.5 -142.5z" />
    <glyph glyph-name="f_f_h" unicode="ffh" horiz-adv-x="2156" 
d="M59 1040v27h119v182q0 159 107 266t266 107q171 0 260 -133q91 133 264 133q158 0 265.5 -106.5t107.5 -262.5v-348q36 84 111.5 133t175.5 49q140 0 229.5 -91.5t89.5 -233.5v-762h-221v782q0 99 -53.5 162.5t-137.5 63.5t-139 -64.5t-55 -161.5v-782h-221v1366
q0 112 -41.5 170.5t-110.5 58.5q-68 0 -109.5 -59t-41.5 -172v-297h151v-27h-151v-1040h-222v1040h-303v-1040h-221v1040h-119zM399 1364v-297h303v299q0 112 -41 170.5t-110 58.5q-68 0 -110 -59t-42 -172z" />
    <glyph glyph-name="f_f_j" unicode="ffj" horiz-adv-x="1558" 
d="M399 0h-221v1040h-119v27h119v182q0 159 107 266t266 107q171 0 260 -133q91 133 264 133q158 0 265.5 -107.5t107.5 -267.5h-221v119q0 112 -41.5 170.5t-110.5 58.5q-68 0 -109.5 -59t-41.5 -172v-297h524v-1243q0 -160 -106.5 -266.5t-266.5 -106.5q-159 0 -266 107
t-107 268h222v-117q0 -113 41 -172t110 -59t110.5 59t41.5 172v1331h-303v-1040h-222v1040h-303v-1040zM399 1364v-297h303v299q0 112 -41 170.5t-110 58.5q-68 0 -110 -59t-42 -172z" />
    <glyph glyph-name="f_f_k" unicode="ffk" horiz-adv-x="2125" 
d="M399 0h-221v1040h-119v27h119v182q0 159 107 266t266 107q171 0 260 -133q91 133 264 133q152 0 257 -98.5t116 -249.5v-823l477 616h39l-268 -346l375 -721h-236l-281 539l-106 -140v-399h-221v1366q0 112 -41.5 170.5t-110.5 58.5q-68 0 -109.5 -59t-41.5 -172v-297
h151v-27h-151v-1040h-222v1040h-303v-1040zM399 1364v-297h303v299q0 112 -41 170.5t-110 58.5q-68 0 -110 -59t-42 -172z" />
    <glyph glyph-name="f_h" unicode="fh" horiz-adv-x="1626" 
d="M393 0h-221v1040h-113v27h113v182q0 158 106.5 265.5t264.5 107.5q159 0 265.5 -106.5t106.5 -262.5v-350q36 84 112.5 134t176.5 50q140 0 230 -91.5t90 -233.5v-762h-221v782q0 98 -54 162t-137 64q-85 0 -141 -64.5t-56 -161.5v-782h-221v1366q0 112 -40.5 170.5
t-110.5 58.5q-69 0 -109.5 -59t-40.5 -172v-297h150v-27h-150v-1040z" />
    <glyph glyph-name="f_j" unicode="fj" horiz-adv-x="1028" 
d="M393 0h-221v1040h-113v27h113v178q0 160 106.5 266.5t264.5 106.5q160 0 266 -106.5t106 -266.5h-221v117q0 114 -40.5 171.5t-110.5 57.5q-69 0 -109.5 -59t-40.5 -172v-293h522v-1243q0 -160 -106 -266.5t-266 -106.5q-159 0 -265 107t-106 268h221v-117
q0 -113 40.5 -172t109.5 -59q70 0 110.5 58.5t40.5 172.5v1331h-301v-1040z" />
    <glyph glyph-name="f_k" unicode="fk" horiz-adv-x="1595" 
d="M393 0h-221v1040h-113v27h113v178q0 160 106.5 266.5t264.5 106.5q152 0 256.5 -97t115.5 -247v-823l480 616h39l-269 -346l375 -721h-235l-283 537l-107 -138v-399h-221v1362q0 112 -40.5 170.5t-110.5 58.5q-69 0 -109.5 -59t-40.5 -172v-293h150v-27h-150v-1040z" />
    <glyph glyph-name="f_t" unicode="ft" horiz-adv-x="1093" 
d="M393 0h-221v1040h-113v27h113v178q0 160 106.5 266.5t264.5 106.5q142 0 250.5 -80.5t121.5 -204.5h-221v29q0 112 -40.5 170.5t-110.5 58.5q-69 0 -109.5 -59t-40.5 -172v-293h301v170h221v-170h121v-27h-121v-1040h-221v1040h-301v-1040z" />
    <glyph glyph-name=".notdef" horiz-adv-x="1228" 
 />
    <glyph glyph-name=".null" horiz-adv-x="1228" 
 />
    <glyph glyph-name="nonmarkingreturn" horiz-adv-x="682" 
 />
    <glyph glyph-name="CR" unicode="&#xd;" horiz-adv-x="1228" 
 />
    <glyph glyph-name="space" unicode=" " horiz-adv-x="555" 
 />
    <glyph glyph-name="exclam" unicode="!" horiz-adv-x="483" 
d="M131 438v1164h221v-1164h-221zM244 244q54 0 91.5 -38t37.5 -93t-37.5 -92t-91.5 -37q-57 0 -95 37t-38 92q0 56 38 93.5t95 37.5z" />
    <glyph glyph-name="quotedbl" unicode="&#x22;" horiz-adv-x="559" 
d="M168 1153h-4q-33 101 -49 153t-29.5 112t-13.5 98q0 43 27.5 73.5t66.5 30.5q41 0 68.5 -30.5t27.5 -73.5q0 -55 -22.5 -137t-71.5 -226zM393 1153h-4q-33 101 -49 153t-29.5 112t-13.5 98q0 43 27.5 73.5t66.5 30.5q41 0 68.5 -30.5t27.5 -73.5q0 -55 -22.5 -137
t-71.5 -226z" />
    <glyph glyph-name="numbersign" unicode="#" horiz-adv-x="1228" 
d="M244 0h-29l107 440h-304l9 27h301l123 506h-304l9 26h301l106 441h29l-107 -441h402l106 441h29l-107 -441h293l-6 -26h-293l-123 -506h306l-7 -27h-305l-106 -440h-29l107 440h-402zM356 467h402l123 506h-402z" />
    <glyph glyph-name="dollar" unicode="$" horiz-adv-x="886" 
d="M59 319h234q0 -12 -1 -44t-1 -48q0 -169 110 -211v602q-12 15 -24 27q-43 43 -61 62t-55.5 60.5t-55.5 66.5t-44.5 65.5t-39 73t-22 73.5t-9.5 82q0 130 92 213t226 97v145h26v-143h25q152 0 255 -95t103 -235h-219q0 11 1 38.5t1 41.5q0 221 -149 221h-17v-498
q19 -23 57 -64.5t46 -49.5q6 -6 18 -19q53 -56 81 -86.5t71 -85t64.5 -95t38.5 -94.5t17 -106q0 -101 -54 -178t-140.5 -116t-188.5 -39h-16v-144h-27v146q-149 14 -245.5 108t-96.5 229zM301 1208q0 -118 107 -262v459q-107 -29 -107 -197zM621 223q0 95 -50 180.5
t-143 186.5v-580q10 -2 29 -2q67 0 115.5 52t48.5 163z" />
    <glyph glyph-name="percent" unicode="%" horiz-adv-x="1316" 
d="M340 870q-129 0 -214 82t-85 207q0 120 85 200.5t214 80.5t215 -80.5t86 -200.5q0 -124 -86 -206.5t-215 -82.5zM279 0h-29l778 1419h29zM340 893q65 0 104 68.5t39 197.5q0 127 -39 192.5t-104 65.5q-62 0 -101.5 -66.5t-39.5 -191.5q0 -127 40 -196.5t101 -69.5z
M975 -20q-129 0 -214 82t-85 206q0 120 85 200.5t214 80.5t215 -80.5t86 -200.5q0 -124 -86 -206t-215 -82zM975 2q65 0 104 68.5t39 197.5q0 127 -39 192.5t-104 65.5q-63 0 -102 -66t-39 -192q0 -128 39.5 -197t101.5 -69z" />
    <glyph glyph-name="ampersand" unicode="&#x26;" horiz-adv-x="1091" 
d="M606 784h96v314h207v-314h148v-24h-148v-760h-438q-169 0 -280 112.5t-111 282.5q0 142 89 244t237 133q-134 31 -215.5 120t-81.5 208q0 146 113 243t282 97h114v-27h-4q-119 0 -194.5 -83t-75.5 -230q0 -146 73.5 -231t188.5 -85zM596 27h106v733h-110
q-114 0 -195.5 -101.5t-81.5 -265.5q0 -168 81 -267t200 -99z" />
    <glyph glyph-name="quotesingle" unicode="'" horiz-adv-x="333" 
d="M168 1153h-4q-33 101 -49 153t-29.5 112t-13.5 98q0 43 27.5 73.5t66.5 30.5q41 0 68.5 -30.5t27.5 -73.5q0 -55 -22.5 -137t-71.5 -226z" />
    <glyph glyph-name="parenleft" unicode="(" horiz-adv-x="542" 
d="M514 1640h16q-231 -416 -231 -968q0 -551 231 -973h-16q-197 188 -301 436.5t-104 536.5q0 287 104 534t301 434z" />
    <glyph glyph-name="parenright" unicode=")" horiz-adv-x="542" 
d="M29 1640q197 -187 301 -434t104 -534q0 -288 -104 -536.5t-301 -436.5h-17q232 424 232 973q0 550 -232 968h17z" />
    <glyph glyph-name="asterisk" unicode="*" horiz-adv-x="808" 
d="M707 1124l-15 -24l-274 157v-315h-27v315l-274 -157l-15 24l275 158l-275 158l15 24l274 -157v315h27v-315l274 157l15 -24l-275 -158z" />
    <glyph glyph-name="plus" unicode="+" horiz-adv-x="901" 
d="M465 195h-27v333h-334v27h334v334h27v-334h334v-27h-334v-333z" />
    <glyph glyph-name="comma" unicode="," horiz-adv-x="331" 
d="M166 -20q-57 0 -94 37.5t-37 93.5t37 93.5t94 37.5q56 0 93.5 -38t37.5 -93q0 -47 -25 -78l-141 -260l-25 14l113 203q-27 -10 -53 -10z" />
    <glyph glyph-name="hyphen" unicode="-" horiz-adv-x="860" 
d="M102 528v27h656v-27h-656z" />
    <glyph glyph-name="period" unicode="." horiz-adv-x="331" 
d="M166 -20q-57 0 -94 37.5t-37 93.5t37 93.5t94 37.5q56 0 93.5 -38t37.5 -93t-37.5 -93t-93.5 -38z" />
    <glyph glyph-name="slash" unicode="/" horiz-adv-x="522" 
d="M84 -86h-29l383 1554h29z" />
    <glyph glyph-name="zero" unicode="0" horiz-adv-x="1632" 
d="M817 -20q-157 0 -294.5 54.5t-235.5 150t-154.5 232t-56.5 294.5t56.5 294t154.5 231.5t235.5 149.5t294.5 54q209 0 377.5 -92t265 -259.5t96.5 -377.5q0 -211 -96.5 -378.5t-265 -260t-377.5 -92.5zM311 711q0 -323 146 -521l704 1059q-136 164 -344 164
q-225 0 -365.5 -187t-140.5 -515zM817 6q223 0 363.5 188.5t140.5 516.5q0 318 -141 514l-705 -1057q137 -162 342 -162z" />
    <glyph glyph-name="one" unicode="1" horiz-adv-x="585" 
d="M80 993l391 455h4v-1448h-221v1153l-139 -160h-35z" />
    <glyph glyph-name="two" unicode="2" horiz-adv-x="1001" 
d="M897 0h-805v4q63 101 153 243.5t134 213t103.5 170.5t86.5 157.5t56 130.5t39 133t10 124q0 124 -47 179.5t-113 55.5q-162 0 -162 -221q0 -58 8 -160h-235q-2 29 -2 62q0 144 110 246t271 102q106 0 193.5 -39t144.5 -125.5t57 -208.5q0 -175 -153 -375.5t-494 -492.5
h645v-199z" />
    <glyph glyph-name="three" unicode="3" horiz-adv-x="1261" 
d="M510 838h-33v4l359 377h-557v200h786v-4l-412 -428q150 -5 269 -66.5t188.5 -175.5t69.5 -262q0 -223 -155 -363t-396 -140q-242 0 -396.5 143t-154.5 375h227q0 -220 88 -356t236 -136q143 0 233 128t90 349q0 214 -88 346t-235 132z" />
    <glyph glyph-name="four" unicode="4" horiz-adv-x="913" 
d="M39 301h-8v4l708 1145h4v-1122h138v-27h-138v-301h-229v301h-475zM74 328h440v706z" />
    <glyph glyph-name="five" unicode="5" horiz-adv-x="1261" 
d="M281 864h-5v555h678v-200h-649v-308q139 76 318 76q159 0 285 -60.5t199 -175.5t73 -266q0 -224 -155 -364.5t-396 -140.5q-242 0 -396.5 143t-154.5 375h227q0 -219 87 -355.5t237 -136.5q143 0 233 128.5t90 350.5q0 212 -100 341.5t-268 129.5q-164 0 -303 -92z" />
    <glyph glyph-name="six" unicode="6" horiz-adv-x="1228" 
d="M752 1446l14 -19q-288 -241 -393 -514q109 74 248 74q159 0 285.5 -60.5t200 -175.5t73.5 -266q0 -224 -156 -364.5t-397 -140.5t-396 144t-155 380q0 233 155.5 458.5t520.5 483.5zM305 504q0 -224 87.5 -361t234.5 -137q143 0 233 128.5t90 350.5q0 211 -98 341
t-256 130q-138 0 -238 -84q-53 -161 -53 -368z" />
    <glyph glyph-name="seven" unicode="7" horiz-adv-x="899" 
d="M829 1419l-362 -1419h-236l531 1217h-686v202h753z" />
    <glyph glyph-name="eight" unicode="8" horiz-adv-x="1105" 
d="M551 -20q-201 0 -334 125t-133 313q0 165 110.5 282.5t284.5 139.5q-121 20 -196.5 99.5t-75.5 188.5q0 132 99 222t245 90q149 0 248.5 -90t99.5 -222q0 -109 -76.5 -188.5t-199.5 -99.5q174 -22 285.5 -139.5t111.5 -282.5q0 -188 -134 -313t-335 -125zM551 848
q67 0 108 72t41 208q0 140 -41 212.5t-108 72.5q-66 0 -107 -73t-41 -212q0 -136 41 -208t107 -72zM551 6q107 0 174.5 111.5t67.5 300.5q0 188 -67 297.5t-175 109.5q-105 0 -172.5 -110t-67.5 -297q0 -188 67.5 -300t172.5 -112z" />
    <glyph glyph-name="nine" unicode="9" horiz-adv-x="1228" 
d="M489 -27l-14 19q288 241 393 514q-109 -74 -247 -74q-243 0 -401.5 137.5t-158.5 364.5q0 224 155.5 365t395.5 141q242 0 397.5 -144.5t155.5 -380.5q0 -233 -155.5 -458.5t-520.5 -483.5zM291 934q0 -211 98 -341t256 -130q138 0 238 84q53 161 53 368q0 224 -88 361
t-236 137q-141 0 -231 -128.5t-90 -350.5z" />
    <glyph glyph-name="colon" unicode=":" horiz-adv-x="337" 
d="M170 805q-57 0 -94 38t-37 95q0 56 37 92.5t94 36.5q54 0 91.5 -37t37.5 -92q0 -57 -37.5 -95t-91.5 -38zM170 -20q-57 0 -94 37.5t-37 93.5t37 93.5t94 37.5q54 0 91.5 -38t37.5 -93t-37.5 -93t-91.5 -38z" />
    <glyph glyph-name="semicolon" unicode=";" horiz-adv-x="331" 
d="M166 805q-57 0 -94 38t-37 95q0 56 37 92.5t94 36.5q56 0 93.5 -37t37.5 -92q0 -57 -37.5 -95t-93.5 -38zM166 -20q-57 0 -94 37.5t-37 93.5t37 93.5t94 37.5q56 0 93.5 -38t37.5 -93q0 -47 -29 -84l-159 -254l-23 14l127 201q-19 -8 -47 -8z" />
    <glyph glyph-name="less" unicode="&#x3c;" horiz-adv-x="784" 
d="M664 885l18 -29l-524 -297l524 -297l-18 -29l-564 326z" />
    <glyph glyph-name="equal" unicode="=" horiz-adv-x="901" 
d="M102 647v27h697v-27h-697zM102 434v27h697v-27h-697z" />
    <glyph glyph-name="greater" unicode="&#x3e;" horiz-adv-x="786" 
d="M121 885l563 -326l-563 -326l-19 29l525 297l-525 297z" />
    <glyph glyph-name="question" unicode="?" horiz-adv-x="892" 
d="M408 438h-27q0 105 22.5 208t54.5 187t63.5 165t54 173t22.5 181q0 128 -45 184.5t-111 56.5q-76 0 -117.5 -61.5t-41.5 -171.5q0 -118 6 -170h-234v67q0 150 111.5 257.5t267.5 107.5q103 0 191.5 -42t145 -127.5t56.5 -197.5q0 -63 -22.5 -121t-58.5 -105.5t-80 -95
t-88 -98.5t-81.5 -107t-62 -131t-26.5 -159zM401 244q54 0 91.5 -38t37.5 -93t-37.5 -92t-91.5 -37q-57 0 -94 36.5t-37 92.5t37 93.5t94 37.5z" />
    <glyph glyph-name="at" unicode="@" horiz-adv-x="1828" 
d="M817 -23q-187 0 -302.5 138t-115.5 340q0 132 50.5 240t146.5 172.5t221 64.5q129 0 222.5 -68t138.5 -188v235h202v-657q0 -94 38 -151.5t116 -57.5q190 0 190 377q0 240 -106 428.5t-292 291.5t-419 103q-169 0 -318.5 -61t-255.5 -166t-167.5 -250.5t-61.5 -308.5
q0 -164 61.5 -310t167.5 -251.5t255.5 -166.5t318.5 -61v-26q-174 -1 -328.5 62t-264.5 171.5t-174 260t-64 321.5q0 168 64 318.5t174 259t264.5 172t328.5 63.5q240 0 433 -107t303 -300t110 -435q0 -126 -22 -215.5t-63.5 -140.5t-95.5 -74t-124 -23q-115 0 -188 71.5
t-82 189.5q-44 -122 -137.5 -191.5t-223.5 -69.5zM899 25q119 0 203 121t84 309q0 189 -84 310.5t-203 121.5q-128 0 -206.5 -119.5t-78.5 -312.5q0 -191 79 -310.5t206 -119.5z" />
    <glyph glyph-name="A" unicode="A" horiz-adv-x="1026" 
d="M86 0h-29l346 1419h238l328 -1419h-236l-110 492h-416zM213 518h403l-194 862z" />
    <glyph glyph-name="B" unicode="B" horiz-adv-x="1095" 
d="M117 0v1440h409q170 0 284 -103t114 -258q0 -120 -74.5 -211.5t-198.5 -128.5q166 -20 267.5 -119t101.5 -243q0 -161 -111 -269t-278 -108h-514zM416 1413h-70v-670h78q117 0 191.5 90t74.5 246t-77 245t-197 89zM784 373q0 156 -80.5 251t-193.5 95h-164v-692h160
q117 0 197.5 94t80.5 252z" />
    <glyph glyph-name="C" unicode="C" horiz-adv-x="1595" 
d="M1520 924h-226q-20 98 -58.5 183.5t-96.5 155t-141 110t-181 40.5q-225 0 -365.5 -187t-140.5 -515q0 -316 138 -510.5t368 -194.5q124 0 224.5 65t163 174.5t89.5 252.5h226q-28 -103 -87.5 -195t-146.5 -165t-208.5 -115.5t-260.5 -42.5q-157 0 -294.5 54.5t-235.5 150
t-154.5 232t-56.5 294.5q0 210 96.5 377t265.5 259.5t379 92.5q256 0 447 -141.5t256 -374.5z" />
    <glyph glyph-name="D" unicode="D" horiz-adv-x="1167" 
d="M117 0v1419h241q206 0 373 -89.5t263 -252t96 -366.5t-96 -367.5t-263 -253.5t-373 -90h-241zM358 1393h-12v-1366h12q141 0 254 86.5t177.5 243.5t64.5 354q0 196 -64.5 352.5t-177.5 243t-254 86.5z" />
    <glyph glyph-name="E" unicode="E" horiz-adv-x="890" 
d="M117 0v1419h708v-26h-479v-670h416v-27h-416v-669h479v-27h-708z" />
    <glyph glyph-name="F" unicode="F" horiz-adv-x="884" 
d="M346 0h-229v1419h702v-26h-473v-670h410v-27h-410v-696z" />
    <glyph glyph-name="G" unicode="G" horiz-adv-x="1628" 
d="M809 594v27h743q-34 -286 -238 -463.5t-497 -177.5q-157 0 -294.5 54.5t-235.5 150t-154.5 232t-56.5 294.5t56.5 294t154.5 231.5t235.5 149.5t294.5 54q260 0 453.5 -141t259.5 -375h-227q-42 225 -170.5 357t-315.5 132q-225 0 -365.5 -187t-140.5 -515
q0 -316 138 -510.5t368 -194.5q202 0 337.5 154.5t162.5 433.5h-508z" />
    <glyph glyph-name="H" unicode="H" horiz-adv-x="1073" 
d="M346 0h-229v1419h229v-696h381v696h229v-1419h-229v696h-381v-696z" />
    <glyph glyph-name="I" unicode="I" horiz-adv-x="501" 
d="M367 0h-230v1419h230v-1419z" />
    <glyph glyph-name="J" unicode="J" horiz-adv-x="991" 
d="M61 377h232q-2 -29 -2 -82q0 -131 46.5 -210t133.5 -79q90 0 133 99.5t43 271.5v1042h232v-1042q0 -184 -115 -290.5t-293 -106.5q-181 0 -295.5 106t-114.5 291z" />
    <glyph glyph-name="K" unicode="K" horiz-adv-x="1054" 
d="M346 0h-229v1419h229v-805l537 805h32l-350 -530l451 -885v-4h-248l-334 690l-88 -135v-555z" />
    <glyph glyph-name="L" unicode="L" horiz-adv-x="888" 
d="M883 27v-27h-766v1419h229v-1392h537z" />
    <glyph glyph-name="M" unicode="M" horiz-adv-x="1241" 
d="M117 0v1419h241l275 -770l264 770h227v-1419h-227v1337l-367 -1054h-4l-381 1050v-1333h-28z" />
    <glyph glyph-name="N" unicode="N" horiz-adv-x="993" 
d="M117 0v1419h235l498 -1333v1333h29v-1419h-236l-498 1329v-1329h-28z" />
    <glyph glyph-name="O" unicode="O" horiz-adv-x="1632" 
d="M817 -20q-157 0 -294.5 54.5t-235.5 150t-154.5 232t-56.5 294.5t56.5 294t154.5 231.5t235.5 149.5t294.5 54q209 0 377.5 -92t265 -259.5t96.5 -377.5q0 -211 -96.5 -378.5t-265 -260t-377.5 -92.5zM817 6q224 0 364 188t140 517q0 315 -137.5 508.5t-366.5 193.5
q-225 0 -365.5 -187t-140.5 -515q0 -316 138 -510.5t368 -194.5z" />
    <glyph glyph-name="P" unicode="P" horiz-adv-x="1048" 
d="M117 0v1419h461q181 0 301 -111t120 -282q0 -169 -120 -277t-301 -108h-232v-641h-229zM453 1393h-107v-725h107q140 0 226.5 102t86.5 256q0 155 -87 261t-226 106z" />
    <glyph glyph-name="Q" unicode="Q" horiz-adv-x="1632" 
d="M817 -20q-157 0 -294.5 54.5t-235.5 150t-154.5 232t-56.5 294.5t56.5 294t154.5 231.5t235.5 149.5t294.5 54q209 0 377.5 -92t265 -259.5t96.5 -377.5q0 -229 -113.5 -405t-305.5 -261l186 -344h-236l-157 287q-49 -8 -113 -8zM702 403h238l162 -294
q104 87 161.5 240.5t57.5 361.5q0 315 -137.5 508.5t-366.5 193.5q-225 0 -365.5 -187t-140.5 -515q0 -316 138 -510.5t368 -194.5q43 0 98 10z" />
    <glyph glyph-name="R" unicode="R" horiz-adv-x="1071" 
d="M117 0v1419h463q169 0 281 -103.5t112 -262.5q0 -131 -79.5 -224.5t-209.5 -121.5l336 -707h-236l-319 694h-119v-694h-229zM455 1393h-109v-672h109q128 0 206 94.5t78 237.5q0 145 -78 242.5t-206 97.5z" />
    <glyph glyph-name="S" unicode="S" horiz-adv-x="886" 
d="M59 319h234q0 -12 -1 -44t-1 -48q0 -108 45.5 -163.5t120.5 -55.5q67 0 115.5 52t48.5 163q0 47 -14.5 94.5t-34 85t-56.5 85t-64.5 78t-74.5 79.5q-43 43 -61 62t-55.5 60.5t-55.5 66.5t-44.5 65.5t-39 73t-22 73.5t-9.5 82q0 96 53.5 169t136.5 108t179 35
q152 0 255 -95t103 -235h-219q0 11 1 38.5t1 41.5q0 221 -149 221q-65 0 -107.5 -47t-42.5 -156q0 -55 18 -108t57 -108.5t71 -93t90 -99.5q6 -6 18 -19q53 -56 81 -86.5t71 -85t64.5 -95t38.5 -94.5t17 -106q0 -101 -54 -178t-140.5 -116t-188.5 -39q-164 0 -274.5 96.5
t-110.5 242.5z" />
    <glyph glyph-name="T" unicode="T" horiz-adv-x="880" 
d="M326 0v1393h-326v26h881v-26h-326v-1393h-229z" />
    <glyph glyph-name="U" unicode="U" horiz-adv-x="1026" 
d="M340 1419v-1005q0 -165 72.5 -268t203.5 -103q125 0 201 104t76 267v1005h29v-1005q0 -200 -111.5 -317t-292.5 -117q-183 0 -297.5 116.5t-114.5 317.5v1005h234z" />
    <glyph glyph-name="V" unicode="V" horiz-adv-x="968" 
d="M72 1419h229l299 -1368l297 1368h29l-310 -1419h-237z" />
    <glyph glyph-name="W" unicode="W" horiz-adv-x="1480" 
d="M72 1419h221l305 -1374l139 594l-174 780h221l88 -399l93 399h28l-106 -461l203 -909l319 1370h29l-332 -1419h-227l-127 575l-136 -575h-229z" />
    <glyph glyph-name="X" unicode="X" horiz-adv-x="942" 
d="M66 1419h243l240 -577l266 577h33l-285 -612l336 -807h-244l-239 575l-262 -575h-33l280 612z" />
    <glyph glyph-name="Y" unicode="Y" horiz-adv-x="894" 
d="M358 0v498l-292 921h233l274 -868l250 868h29l-262 -921v-498h-232z" />
    <glyph glyph-name="Z" unicode="Z" horiz-adv-x="894" 
d="M801 0h-750v4l539 1389h-465v26h721v-6l-543 -1386h498v-27z" />
    <glyph glyph-name="bracketleft" unicode="[" horiz-adv-x="497" 
d="M123 -301v1946h354v-27h-168v-1892h168v-27h-354z" />
    <glyph glyph-name="backslash" unicode="\" horiz-adv-x="499" 
d="M90 1440l348 -1440h-28l-349 1440h29z" />
    <glyph glyph-name="bracketright" unicode="]" horiz-adv-x="497" 
d="M20 1618v27h355v-1946h-355v27h168v1892h-168z" />
    <glyph glyph-name="asciicircum" unicode="^" horiz-adv-x="827" 
d="M68 922l346 563l346 -563l-29 -19l-317 524l-318 -524z" />
    <glyph glyph-name="underscore" unicode="_" horiz-adv-x="1318" 
d="M102 0v27h1115v-27h-1115z" />
    <glyph glyph-name="grave" unicode="`" horiz-adv-x="122" 
d="M-16 1354l145 -189h-29l-147 189h31z" />
    <glyph glyph-name="a" unicode="a" 
d="M389 -20q-149 0 -243.5 88t-94.5 221q0 141 97.5 230t248.5 89h283v207q0 123 -46.5 184.5t-121.5 61.5q-72 0 -120 -64t-48 -190q0 -12 1 -36t1 -34h-225q0 152 112 251t279 99q168 0 278.5 -101.5t110.5 -266.5v-719h-221v158q-36 -84 -111 -131t-180 -47zM477 47
q88 0 145.5 72t57.5 182v281h-170q-107 0 -170.5 -78t-63.5 -203q0 -112 54.5 -183t146.5 -71z" />
    <glyph glyph-name="b" unicode="b" horiz-adv-x="1349" 
d="M774 -20q-162 0 -277 86t-165 239v-305h-221v1602h221v-838q50 152 165 237.5t277 85.5q149 0 264.5 -74.5t176.5 -199.5t61 -278q0 -154 -61 -279.5t-176.5 -200.5t-264.5 -75zM692 27q158 0 257.5 141t99.5 367t-99.5 366.5t-257.5 140.5q-153 0 -260.5 -143
t-107.5 -364q0 -222 107.5 -365t260.5 -143z" />
    <glyph glyph-name="c" unicode="c" horiz-adv-x="1239" 
d="M950 373h219q-50 -178 -194.5 -285.5t-339.5 -107.5q-244 0 -404.5 156t-160.5 399q0 159 73.5 285.5t202.5 196.5t289 70q195 0 339.5 -106.5t194.5 -284.5h-219q-19 99 -57 178.5t-105.5 133t-152.5 53.5q-151 0 -244.5 -139.5t-93.5 -386.5q0 -237 92 -383t246 -146
q122 0 205 101.5t110 265.5z" />
    <glyph glyph-name="d" unicode="d" horiz-adv-x="1345" 
d="M571 -20q-149 0 -264 75t-176 200.5t-61 279.5q0 153 61 278t176 199.5t264 74.5q162 0 276.5 -84t166.5 -233v832h221v-1602h-221v299q-52 -150 -166.5 -234.5t-276.5 -84.5zM655 27q151 0 258 143.5t107 364.5t-107 364t-258 143q-156 0 -257 -141.5t-101 -365.5
q0 -225 100 -366.5t258 -141.5z" />
    <glyph glyph-name="e" unicode="e" horiz-adv-x="1247" 
d="M961 377h217q-50 -181 -197 -289t-346 -108q-160 0 -288.5 70t-202.5 197.5t-74 287.5q0 241 161 396.5t404 155.5q198 0 345.5 -107t197.5 -284h-869q-12 -74 -12 -161q0 -237 92 -383t246 -146q122 0 209.5 97t116.5 274zM635 1061q-118 0 -203.5 -88.5t-118.5 -249.5
h639q-15 68 -42 126.5t-65.5 107t-92.5 76.5t-117 28z" />
    <glyph glyph-name="f" unicode="f" horiz-adv-x="897" 
d="M59 1040v27h113v203q0 151 100 251.5t252 100.5t252.5 -99.5t100.5 -252.5h-222q0 17 1 46.5t1 43.5q0 235 -133 235q-59 0 -95 -52t-36 -159v-317h350v-27h-350v-1040h-221v1040h-113z" />
    <glyph glyph-name="g" unicode="g" horiz-adv-x="1064" 
d="M514 -524q-200 0 -332.5 124.5t-132.5 311.5q0 182 128.5 304.5t322.5 127.5v66q-148 5 -246 101t-98 237q0 146 102 242.5t256 96.5l465 213v-219h-393q129 -22 210 -113.5t81 -219.5q0 -141 -99 -237.5t-250 -100.5v-66q196 -5 325.5 -127.5t129.5 -304.5
q0 -187 -134 -311.5t-335 -124.5zM514 436q74 0 119 79.5t45 232.5q0 154 -45 233.5t-119 79.5q-72 0 -117 -79.5t-45 -233.5q0 -152 45 -232t117 -80zM514 -498q108 0 176 111.5t68 298.5q0 186 -68 295.5t-176 109.5q-104 0 -172 -110t-68 -295q0 -186 68 -298t172 -112z
" />
    <glyph glyph-name="h" unicode="h" horiz-adv-x="1044" 
d="M334 0h-221v1602h221v-699q36 85 111.5 134.5t175.5 49.5q141 0 231 -91t90 -234v-762h-221v782q0 98 -54 162t-137 64q-85 0 -140.5 -64.5t-55.5 -161.5v-782z" />
    <glyph glyph-name="i" unicode="i" horiz-adv-x="446" 
d="M225 1262q-57 0 -95 37.5t-38 93.5q0 55 38 92t95 37q54 0 91.5 -37t37.5 -92t-37.5 -93t-91.5 -38zM334 0h-221v1067h221v-1067z" />
    <glyph glyph-name="j" unicode="j" horiz-adv-x="626" 
d="M385 1262q-57 0 -94 37.5t-37 93.5t37 92.5t94 36.5q55 0 92 -37t37 -92q0 -56 -37 -93.5t-92 -37.5zM-211 -197h221q0 -17 -1 -46.5t-1 -43.5q0 -235 135 -235q58 0 94.5 52t36.5 159v1378h222v-1264q0 -151 -101 -251.5t-252 -100.5q-153 0 -253.5 99t-100.5 253z" />
    <glyph glyph-name="k" unicode="k" horiz-adv-x="1011" 
d="M332 0h-221v1602h221v-1151l479 616h39l-268 -346l374 -721h-235l-281 539l-108 -142v-397z" />
    <glyph glyph-name="l" unicode="l" horiz-adv-x="444" 
d="M332 0h-221v1602h221v-1602z" />
    <glyph glyph-name="m" unicode="m" horiz-adv-x="1540" 
d="M662 0v799q0 88 -45 143t-117 55q-74 0 -120 -55t-46 -143v-799h-221v1067h221v-147q33 78 100.5 122.5t157.5 44.5q102 0 175 -53t101 -145q28 88 102.5 143t172.5 55q131 0 213 -84t82 -219v-784h-221v795q0 91 -45 146.5t-119 55.5q-77 0 -123.5 -56.5t-46.5 -149.5
v-791h-221z" />
    <glyph glyph-name="n" unicode="n" horiz-adv-x="1052" 
d="M729 0v766q0 102 -54.5 172t-139.5 70q-86 0 -143.5 -68t-57.5 -168v-772h-221v1067h221v-174q36 89 113 141.5t180 52.5q141 0 232 -94t91 -239v-754h-221z" />
    <glyph glyph-name="o" unicode="o" horiz-adv-x="1269" 
d="M635 -20q-160 0 -288.5 70t-202.5 197.5t-74 287.5q0 241 161 396.5t404 155.5t404 -155.5t161 -396.5q0 -160 -74 -287.5t-202.5 -197.5t-288.5 -70zM635 6q150 0 244 140.5t94 388.5q0 235 -92.5 380.5t-245.5 145.5q-151 0 -244.5 -139.5t-93.5 -386.5q0 -237 92 -383
t246 -146z" />
    <glyph glyph-name="p" unicode="p" horiz-adv-x="1345" 
d="M111 1067h221v-303q50 152 165 237.5t277 85.5q150 0 265.5 -74.5t176 -199.5t60.5 -278q0 -154 -60.5 -279.5t-176 -200.5t-265.5 -75q-162 0 -277 86t-165 239v-833h-221v1595zM692 1042q-153 0 -259.5 -143t-106.5 -364t107 -364.5t259 -143.5q156 0 256.5 141.5
t100.5 366.5t-100.5 366t-256.5 141z" />
    <glyph glyph-name="q" unicode="q" horiz-adv-x="1345" 
d="M571 1087q162 0 276.5 -84t166.5 -233v297h221v-1595h-221v827q-52 -150 -166.5 -234.5t-276.5 -84.5q-149 0 -264 75t-176 200.5t-61 279.5q0 153 61 278t176 199.5t264 74.5zM655 1042q-156 0 -257 -141.5t-101 -365.5t101 -366t257 -142q151 0 258 143.5t107 364.5
t-107 364t-258 143z" />
    <glyph glyph-name="r" unicode="r" horiz-adv-x="888" 
d="M113 1067h221v-152q31 81 96.5 126.5t153.5 45.5q123 0 200.5 -82t77.5 -214h-225q0 96 -43.5 157.5t-108.5 61.5t-108 -61t-43 -158v-791h-221v1067z" />
    <glyph glyph-name="s" unicode="s" horiz-adv-x="835" 
d="M66 283h223q-2 -20 -2 -74q0 -91 36.5 -147t108.5 -56q58 0 97.5 44t39.5 136q0 23 -4.5 44.5t-9 38.5t-17.5 35.5t-20.5 30t-27 28t-28 24t-33 23t-32.5 20.5t-36.5 21t-34.5 20q-51 28 -87.5 54.5t-76 66.5t-60.5 92t-20 113q0 136 88 213t242 77q142 0 238.5 -85
t94.5 -207h-221q4 40 4 69q0 197 -127 197q-59 0 -88.5 -47.5t-31.5 -126.5q0 -31 7.5 -59t17 -48.5t30.5 -42.5t35 -34.5t44.5 -31t45 -26.5t49.5 -27q58 -30 99 -58t80.5 -68.5t59.5 -93t19 -115.5q0 -140 -94 -221.5t-256 -81.5q-149 0 -251.5 88.5t-100.5 214.5z" />
    <glyph glyph-name="t" unicode="t" horiz-adv-x="577" 
d="M399 0h-221v1040h-119v27h119v268h221v-268h121v-27h-121v-1040z" />
    <glyph glyph-name="u" unicode="u" horiz-adv-x="1058" 
d="M946 0h-221v174q-36 -89 -114 -141.5t-181 -52.5q-143 0 -235.5 94.5t-92.5 240.5v752h222v-772q0 -101 55.5 -168.5t140.5 -67.5q87 0 146 68t59 168v772h221v-1067z" />
    <glyph glyph-name="v" unicode="v" horiz-adv-x="917" 
d="M43 1067h221l293 -1024l281 1024h30l-293 -1067h-227z" />
    <glyph glyph-name="w" unicode="w" horiz-adv-x="1355" 
d="M43 1067h219l291 -1024l109 389l-181 635h219l97 -336l94 336h29l-109 -391l180 -633l287 1024h31l-299 -1067h-226l-106 377l-107 -377h-225z" />
    <glyph glyph-name="x" unicode="x" horiz-adv-x="944" 
d="M70 1067h227l233 -432l275 432h35l-293 -463l327 -604h-227l-233 430l-273 -430h-35l291 461z" />
    <glyph glyph-name="y" unicode="y" horiz-adv-x="903" 
d="M43 1067h227l295 -774l260 774h29l-535 -1595h-28l172 516z" />
    <glyph glyph-name="z" unicode="z" horiz-adv-x="919" 
d="M844 0h-787v4l559 1036h-499v27h745v-4l-559 -1036h541v-27z" />
    <glyph glyph-name="braceleft" unicode="{" horiz-adv-x="530" 
d="M502 -301q-61 0 -114.5 14t-99.5 43.5t-73 83t-27 125.5v522q0 67 -33 108.5t-89 41.5v27q56 0 89 39.5t33 103.5v524q0 72 27 125.5t73 83t99.5 43.5t114.5 14v-26q-58 0 -92.5 -46.5t-34.5 -117.5v-508q0 -118 -59 -177t-177 -73q119 -14 177.5 -73t58.5 -181v-506
q0 -71 34 -117t93 -46v-27z" />
    <glyph glyph-name="braceright" unicode="}" horiz-adv-x="530" 
d="M29 -301v27q59 0 93 46t34 117v506q0 122 57.5 181t177.5 73q-119 14 -177 73t-58 177v508q0 71 -34.5 117.5t-92.5 46.5v26q61 0 114 -14t99 -43.5t73 -83t27 -125.5v-524q0 -64 33.5 -103.5t89.5 -39.5v-27q-56 0 -89.5 -41.5t-33.5 -108.5v-522q0 -72 -27 -125.5
t-73 -83t-99 -43.5t-114 -14z" />
    <glyph glyph-name="asciitilde" unicode="~" horiz-adv-x="1064" 
d="M948 567l15 -22q-100 -87 -230 -84q-58 1 -135 33.5t-152 65t-129 32.5q-111 0 -200 -80l-15 23q96 83 220 83q47 0 107 -20.5t108.5 -45t107 -45t103.5 -20.5q111 0 200 80z" />
    <glyph glyph-name="exclamdown" unicode="&#xa1;" horiz-adv-x="483" 
d="M244 829q-57 0 -95 37.5t-38 94.5q0 55 38 92t95 37q54 0 91.5 -37t37.5 -92q0 -57 -37.5 -94.5t-91.5 -37.5zM352 -528h-221v1163h221v-1163z" />
    <glyph glyph-name="cent" unicode="&#xa2;" horiz-adv-x="1239" 
d="M623 -164v144q-157 3 -283 74t-198 197t-72 284q0 238 157 392.5t396 159.5v144h26v-144q191 -4 332 -110.5t188 -280.5h-219q-29 152 -105.5 255t-195.5 110v-1055q116 6 195 106.5t106 260.5h219q-48 -174 -188.5 -281.5t-331.5 -111.5v-144h-26zM297 535
q0 -232 88.5 -377.5t237.5 -151.5v1055q-146 -6 -236 -145t-90 -381z" />
    <glyph glyph-name="sterling" unicode="&#xa3;" horiz-adv-x="825" 
d="M41 713h80q-53 217 -53 362q0 89 30 160t81.5 115t115.5 67t135 23q161 0 266 -101t105 -266h-215q0 14 1 48.5t1 52.5q0 119 -41.5 178t-116.5 59q-65 0 -108 -56t-43 -177q0 -24 1.5 -49.5t3 -46.5t5.5 -49.5t6 -45.5t8.5 -48.5t9 -44.5t10 -47.5t10 -43.5t11.5 -46.5
t10 -43.5h297v-27h-291q48 -209 48 -324q0 -133 -75.5 -216.5t-199.5 -118.5h668v-27h-762v27q70 6 112 68t42 169q0 69 -11 149t-22 131t-33 142h-86v27z" />
    <glyph glyph-name="currency" unicode="&#xa4;" horiz-adv-x="980" 
d="M70 260l137 137q-107 113 -107 269q0 155 105 266l-135 135l18 18l135 -135q111 105 269 105q155 0 266 -105l135 135l18 -18l-135 -135q105 -111 105 -266q0 -156 -107 -269l137 -137l-18 -18l-135 137q-111 -105 -266 -105q-156 0 -267 105l-137 -137zM492 301
q149 0 254.5 106.5t105.5 258.5q0 151 -105.5 256.5t-254.5 105.5q-151 0 -257 -105.5t-106 -256.5q0 -152 106 -258.5t257 -106.5z" />
    <glyph glyph-name="yen" unicode="&#xa5;" horiz-adv-x="894" 
d="M115 266h245v205h-245v27h245l-294 921h233l274 -868l250 868h29l-262 -921h182v-27h-182v-205h182v-26h-182v-240h-230v240h-245v26z" />
    <glyph glyph-name="section" unicode="&#xa7;" horiz-adv-x="1189" 
d="M594 -549q-154 0 -262.5 95.5t-108.5 236.5h221q-4 -46 -4 -80q0 -111 44.5 -167t117.5 -56q70 0 117 50.5t47 158.5q0 78 -37 144.5t-96 114.5t-130 93t-142 91.5t-130 98t-96 124t-37 159.5q0 111 64.5 196.5t171.5 129.5q-115 122 -115 278q0 98 55 172.5t141.5 112
t186.5 37.5q153 0 262 -95t109 -237h-221q2 23 2 80q0 112 -44 167.5t-118 55.5q-70 0 -117 -50.5t-47 -158.5q0 -78 37 -144.5t96 -114.5t130 -93t142 -91.5t130 -98t96 -124t37 -159.5q0 -111 -64.5 -197.5t-169.5 -130.5q113 -120 113 -276q0 -98 -55 -173t-141 -112
t-185 -37zM268 651q0 -71 29 -132.5t74 -105.5t108.5 -89.5t123.5 -80.5t128 -82t113 -91q82 53 82 170q0 71 -29 132.5t-74 105.5t-108.5 89.5t-123.5 80.5t-128 82.5t-113 92.5q-82 -54 -82 -172z" />
    <glyph glyph-name="dieresis" unicode="&#xa8;" horiz-adv-x="483" 
d="M96 1184q-32 0 -54 22t-22 56q0 31 22 52t54 21q31 0 53.5 -21.5t22.5 -51.5q0 -33 -22.5 -55.5t-53.5 -22.5zM387 1184q-32 0 -54 22t-22 56q0 31 22 52t54 21q31 0 53.5 -21.5t22.5 -51.5q0 -33 -22.5 -55.5t-53.5 -22.5z" />
    <glyph glyph-name="copyright" unicode="&#xa9;" horiz-adv-x="1611" 
d="M805 -20q-153 0 -288 55t-232 150.5t-153 232t-56 293.5q0 158 56 295t153 232.5t231.5 149.5t288.5 54t289.5 -54t232.5 -149.5t153 -232.5t56 -295q0 -157 -56 -293.5t-153 -232t-232.5 -150.5t-289.5 -55zM805 6q199 0 359.5 89.5t252.5 251t92 364.5q0 204 -92 365.5
t-252.5 250t-359.5 88.5q-198 0 -358 -88.5t-252.5 -250t-92.5 -365.5q0 -152 54 -283.5t147.5 -224t223.5 -145t278 -52.5zM1102 565h207q-45 -159 -178 -256.5t-312 -97.5q-219 0 -364.5 141.5t-145.5 358.5q0 218 145 358.5t365 140.5q180 0 313 -96t177 -256h-207
q-15 88 -50 159.5t-96 119t-137 47.5q-131 0 -213 -125.5t-82 -347.5q0 -213 80.5 -343t214.5 -130q111 0 186 90.5t97 236.5z" />
    <glyph glyph-name="ordfeminine" unicode="&#xaa;" 
d="M389 -20q-149 0 -243.5 88t-94.5 221q0 141 97.5 230t248.5 89h283v207q0 123 -46.5 184.5t-121.5 61.5q-72 0 -120 -64t-48 -190q0 -12 1 -36t1 -34h-225q0 152 112 251t279 99q168 0 278.5 -101.5t110.5 -266.5v-719h-221v158q-36 -84 -111 -131t-180 -47zM477 47
q88 0 145.5 72t57.5 182v281h-170q-107 0 -170.5 -78t-63.5 -203q0 -112 54.5 -183t146.5 -71z" />
    <glyph glyph-name="guillemotleft" unicode="&#xab;" horiz-adv-x="813" 
d="M483 940l-235 -426l235 -426h-24l-432 426l432 426h24zM786 940l-235 -426l235 -426h-24l-432 426l432 426h24z" />
    <glyph glyph-name="registered" unicode="&#xae;" horiz-adv-x="1624" 
d="M811 -20q-153 0 -288 55t-232 150.5t-153 232t-56 293.5q0 158 56 295t153 232.5t231.5 149.5t288.5 54t289.5 -54t232.5 -149.5t153 -232.5t56 -295q0 -157 -56 -293.5t-153 -232t-232.5 -150.5t-289.5 -55zM811 6q149 0 279 52.5t224 145t148 224t54 283.5
q0 204 -92.5 365.5t-253 250t-359.5 88.5q-198 0 -358 -88.5t-252 -250t-92 -365.5q0 -203 92 -364.5t252 -251t358 -89.5zM510 231v959h354q122 0 204.5 -70.5t82.5 -175.5q0 -82 -50 -142t-134 -85l229 -486h-221l-207 471h-51v-471h-207zM784 1163h-67v-434h67
q66 0 109 60.5t43 154.5q0 93 -43 156t-109 63z" />
    <glyph glyph-name="macron" unicode="&#xaf;" horiz-adv-x="409" 
d="M20 1184v26h369v-26h-369z" />
    <glyph glyph-name="degree" unicode="&#xb0;" horiz-adv-x="446" 
d="M223 1047q-82 0 -139 57t-57 139t57 139.5t139 57.5t139.5 -57.5t57.5 -139.5t-57.5 -139t-139.5 -57zM223 1075q69 0 118.5 49.5t49.5 118.5t-49.5 118.5t-118.5 49.5t-118.5 -49.5t-49.5 -118.5t49.5 -118.5t118.5 -49.5z" />
    <glyph glyph-name="plusminus" unicode="&#xb1;" horiz-adv-x="763" 
d="M395 358h-26v252h-267v27h267v252h26v-252h267v-27h-267v-252zM102 233v27h560v-27h-560z" />
    <glyph glyph-name="twosuperior" unicode="&#xb2;" horiz-adv-x="487" 
d="M440 879v-140h-409v4q159 225 212.5 333.5t53.5 207.5q0 139 -53 139q-51 0 -51 -139q0 -50 6 -88h-148q-2 12 -2 55q0 81 56.5 135t138.5 54q91 0 145.5 -53t54.5 -134q0 -95 -69 -182t-219 -192h284z" />
    <glyph glyph-name="threesuperior" unicode="&#xb3;" horiz-adv-x="587" 
d="M266 1143h-22v2l116 135h-237v139h381v-4l-195 -223q102 -6 170 -72.5t68 -163.5q0 -103 -73.5 -170t-182.5 -67q-110 0 -183 67t-73 170h145q0 -95 32 -157t79 -62q45 0 76.5 62t31.5 157q0 93 -31 156.5t-73 63.5z" />
    <glyph glyph-name="acute" unicode="&#xb4;" horiz-adv-x="116" 
d="M-18 1165h-29l145 189h31z" />
    <glyph glyph-name="micro" unicode="&#xb5;" horiz-adv-x="1138" 
d="M324 -219h-222v1286h222v-772q0 -101 57.5 -168.5t148.5 -67.5q89 0 149 68t60 168v772h222v-952q0 -105 104 -105v-30q-141 0 -217 52t-98 165q-30 -98 -103.5 -157.5t-171.5 -59.5q-83 0 -151 43v-242z" />
    <glyph glyph-name="paragraph" unicode="&#xb6;" horiz-adv-x="851" 
d="M61 1032q0 168 118.5 277.5t299.5 109.5h256v-1419h-28v1393h-177v-1393h-28v651h-23q-181 0 -299.5 106.5t-118.5 274.5z" />
    <glyph glyph-name="periodcentered" unicode="&#xb7;" horiz-adv-x="329" 
d="M166 594q-57 0 -94 38t-37 95q0 56 37 92.5t94 36.5q56 0 93.5 -37t37.5 -92q0 -57 -37.5 -95t-93.5 -38z" />
    <glyph glyph-name="cedilla" unicode="&#xb8;" horiz-adv-x="251" 
d="M35 -442l-2 4q63 53 63 127q0 81 -76 133l109 182l21 -14l-33 -60q114 -63 114 -182q0 -76 -53.5 -131.5t-142.5 -58.5z" />
    <glyph glyph-name="onesuperior" unicode="&#xb9;" horiz-adv-x="313" 
d="M23 1192l233 252h4v-705h-143v525l-66 -72h-28z" />
    <glyph glyph-name="ordmasculine" unicode="&#xba;" horiz-adv-x="1269" 
d="M635 -20q-160 0 -288.5 70t-202.5 197.5t-74 287.5q0 241 161 396.5t404 155.5t404 -155.5t161 -396.5q0 -160 -74 -287.5t-202.5 -197.5t-288.5 -70zM635 6q150 0 244 140.5t94 388.5q0 235 -92.5 380.5t-245.5 145.5q-151 0 -244.5 -139.5t-93.5 -386.5q0 -237 92 -383
t246 -146z" />
    <glyph glyph-name="guillemotright" unicode="&#xbb;" horiz-adv-x="813" 
d="M330 940h24l432 -426l-432 -426h-24l235 426zM27 940h24l432 -426l-432 -426h-24l235 426z" />
    <glyph glyph-name="onequarter" unicode="&#xbc;" horiz-adv-x="671" 
d="M408 791h-144v479l-63 -66h-31l233 238h5v-651zM584 705h-496v20h496v-20zM469 0h-141v152h-197h-2v4l336 495h4v-479h57v-20h-57v-152zM166 172h162v238z" />
    <glyph glyph-name="onehalf" unicode="&#xbd;" horiz-adv-x="671" 
d="M408 791h-144v479l-63 -66h-31l233 238h5v-651zM584 705h-496v20h496v-20zM530 0h-399v4q153 212 204.5 314t51.5 194q0 123 -51 123q-49 0 -49 -123q0 -49 6 -84h-137q-4 24 -4 53q0 74 53.5 124t130.5 50q87 0 135.5 -49t48.5 -125q0 -87 -65 -167.5t-205 -178.5h280
v-135z" />
    <glyph glyph-name="threequarters" unicode="&#xbe;" horiz-adv-x="698" 
d="M350 782q-104 0 -171.5 62t-67.5 157h143q0 -87 26 -142.5t70 -55.5q43 0 69.5 53t26.5 145q0 89 -25 143t-69 54l-22 -24h-27v2l98 112h-188v131h332v-4l-176 -196q97 -6 159 -67t62 -151q0 -95 -68.5 -157t-171.5 -62zM610 705h-522v20h522v-20zM485 0h-139v152h-199v4
l336 495h2v-479h58v-20h-58v-152zM184 172h162v238z" />
    <glyph glyph-name="questiondown" unicode="&#xbf;" horiz-adv-x="892" 
d="M483 829q-54 0 -91.5 37.5t-37.5 94.5q0 55 37.5 92t91.5 37q57 0 94 -36.5t37 -92.5q0 -57 -37 -94.5t-94 -37.5zM477 635h27q0 -106 -22.5 -209t-54 -187t-63.5 -165t-54.5 -172.5t-22.5 -180.5q0 -128 44.5 -184.5t110.5 -56.5q76 0 118 62t42 171q0 117 -6 170h233
v-67q0 -150 -111 -257.5t-267 -107.5q-77 0 -147.5 24.5t-125.5 70t-88 116t-33 156.5q0 63 22.5 121t58.5 105.5t80 95t88.5 98.5t82 107t62 131t26.5 159z" />
    <glyph glyph-name="Agrave" unicode="&#xc0;" horiz-adv-x="1026" 
d="M367 1763h30l146 -188h-29zM86 0h-29l346 1419h238l328 -1419h-236l-110 492h-416zM213 518h403l-194 862z" />
    <glyph glyph-name="Aacute" unicode="&#xc1;" horiz-adv-x="1026" 
d="M664 1763l-148 -188h-29l146 188h31zM86 0h-29l346 1419h238l328 -1419h-236l-110 492h-416zM213 518h403l-194 862z" />
    <glyph glyph-name="Acircumflex" unicode="&#xc2;" horiz-adv-x="1026" 
d="M373 1561l141 208l139 -208h-28l-111 168l-113 -168h-28zM86 0h-29l346 1419h238l328 -1419h-236l-110 492h-416zM213 518h403l-194 862z" />
    <glyph glyph-name="Atilde" unicode="&#xc3;" horiz-adv-x="1026" 
d="M506 1620q-15 51 -88 51q-41 0 -66.5 -25.5t-25.5 -64.5h-25q0 50 32.5 82.5t84.5 32.5q30 0 57 -16t44 -35.5t41.5 -35.5t49.5 -16q41 0 66.5 25.5t25.5 64.5h25q0 -50 -32.5 -82t-84.5 -32q-89 0 -104 51zM86 0h-29l346 1419h238l328 -1419h-236l-110 492h-416z
M213 518h403l-194 862z" />
    <glyph glyph-name="Adieresis" unicode="&#xc4;" horiz-adv-x="1026" 
d="M369 1593q-32 0 -54 22t-22 56q0 31 22 52.5t54 21.5q31 0 53 -21.5t22 -52.5q0 -33 -22 -55.5t-53 -22.5zM659 1593q-32 0 -53.5 22t-21.5 56q0 31 21.5 52.5t53.5 21.5q31 0 53.5 -21.5t22.5 -52.5q0 -33 -22.5 -55.5t-53.5 -22.5zM86 0h-29l346 1419h238l328 -1419
h-236l-110 492h-416zM213 518h403l-194 862z" />
    <glyph glyph-name="Aring" unicode="&#xc5;" horiz-adv-x="1026" 
d="M514 1544q-49 0 -81 32.5t-32 82.5q0 47 32 78.5t81 31.5q45 0 79 -32t34 -78q0 -48 -34 -81.5t-79 -33.5zM514 1569q36 0 62 26t26 64q0 36 -26 61t-62 25q-38 0 -63 -24.5t-25 -61.5q0 -38 25 -64t63 -26zM86 0h-29l346 1419h238l328 -1419h-236l-110 492h-416z
M213 518h403l-194 862z" />
    <glyph glyph-name="AE" unicode="&#xc6;" horiz-adv-x="1449" 
d="M76 0h-29l625 1419h712v-26h-479v-670h416v-27h-416v-669h479v-27h-708v492h-385zM303 518h373v850z" />
    <glyph glyph-name="Ccedilla" unicode="&#xc7;" horiz-adv-x="1595" 
d="M735 -442l-2 4q64 54 64 127q0 81 -76 133l96 158q-157 0 -294.5 54.5t-235.5 150t-154.5 232t-56.5 294.5q0 210 96.5 377t265.5 259.5t379 92.5q256 0 447 -141.5t256 -374.5h-226q-20 98 -58.5 183.5t-96.5 155t-141 110t-181 40.5q-225 0 -365.5 -187t-140.5 -515
q0 -316 138 -510.5t368 -194.5q124 0 224.5 65t163 174.5t89.5 252.5h226q-56 -212 -234.5 -360.5t-439.5 -157.5l-29 -50q117 -63 117 -182q0 -75 -55 -131t-144 -59z" />
    <glyph glyph-name="Egrave" unicode="&#xc8;" horiz-adv-x="890" 
d="M328 1763h30l146 -188h-29zM117 0v1419h708v-26h-479v-670h416v-27h-416v-669h479v-27h-708z" />
    <glyph glyph-name="Eacute" unicode="&#xc9;" horiz-adv-x="890" 
d="M625 1763l-148 -188h-28l145 188h31zM117 0v1419h708v-26h-479v-670h416v-27h-416v-669h479v-27h-708z" />
    <glyph glyph-name="Ecircumflex" unicode="&#xca;" horiz-adv-x="890" 
d="M334 1561l141 208l139 -208h-28l-111 168l-113 -168h-28zM117 0v1419h708v-26h-479v-670h416v-27h-416v-669h479v-27h-708z" />
    <glyph glyph-name="Edieresis" unicode="&#xcb;" horiz-adv-x="890" 
d="M330 1593q-32 0 -54 22t-22 56q0 31 22 52.5t54 21.5q31 0 53.5 -21.5t22.5 -52.5q0 -33 -22.5 -55.5t-53.5 -22.5zM621 1593q-32 0 -54 22t-22 56q0 31 22 52.5t54 21.5q31 0 53 -21.5t22 -52.5q0 -33 -22 -55.5t-53 -22.5zM117 0v1419h708v-26h-479v-670h416v-27h-416
v-669h479v-27h-708z" />
    <glyph glyph-name="Igrave" unicode="&#xcc;" horiz-adv-x="501" 
d="M102 1763h31l146 -188h-29zM367 0h-230v1419h230v-1419z" />
    <glyph glyph-name="Iacute" unicode="&#xcd;" horiz-adv-x="501" 
d="M399 1763l-147 -188h-29l146 188h30zM367 0h-230v1419h230v-1419z" />
    <glyph glyph-name="Icircumflex" unicode="&#xce;" horiz-adv-x="501" 
d="M109 1561l141 208l139 -208h-29l-110 168l-113 -168h-28zM367 0h-230v1419h230v-1419z" />
    <glyph glyph-name="Idieresis" unicode="&#xcf;" horiz-adv-x="501" 
d="M104 1593q-32 0 -53.5 22t-21.5 56q0 31 21.5 52.5t53.5 21.5q31 0 53.5 -21.5t22.5 -52.5q0 -33 -22.5 -55.5t-53.5 -22.5zM395 1593q-32 0 -54 22t-22 56q0 31 22 52.5t54 21.5q31 0 53.5 -21.5t22.5 -52.5q0 -33 -22.5 -55.5t-53.5 -22.5zM367 0h-230v1419h230v-1419z
" />
    <glyph glyph-name="Eth" unicode="&#xd0;" horiz-adv-x="1167" 
d="M20 721v27h97v671h241q206 0 373 -89.5t263 -252t96 -366.5t-96 -367.5t-263 -253.5t-373 -90h-241v721h-97zM510 721h-164v-694h12q141 0 254 86.5t177.5 243.5t64.5 354q0 196 -64.5 352.5t-177.5 243t-254 86.5h-12v-645h164v-27z" />
    <glyph glyph-name="Ntilde" unicode="&#xd1;" horiz-adv-x="993" 
d="M489 1610q-15 51 -88 51q-41 0 -66.5 -25.5t-25.5 -64.5h-24q0 50 32 82.5t84 32.5q30 0 57.5 -16t44.5 -35.5t41.5 -35.5t49.5 -16q41 0 66.5 25.5t25.5 64.5h25q0 -50 -32.5 -82t-84.5 -32q-90 0 -105 51zM117 0v1419h235l498 -1333v1333h29v-1419h-236l-498 1329
v-1329h-28z" />
    <glyph glyph-name="Ograve" unicode="&#xd2;" horiz-adv-x="1632" 
d="M600 1763h37l227 -188h-37zM817 -20q-157 0 -294.5 54.5t-235.5 150t-154.5 232t-56.5 294.5t56.5 294t154.5 231.5t235.5 149.5t294.5 54q209 0 377.5 -92t265 -259.5t96.5 -377.5q0 -211 -96.5 -378.5t-265 -260t-377.5 -92.5zM817 6q224 0 364 188t140 517
q0 315 -137.5 508.5t-366.5 193.5q-225 0 -365.5 -187t-140.5 -515q0 -316 138 -510.5t368 -194.5z" />
    <glyph glyph-name="Oacute" unicode="&#xd3;" horiz-adv-x="1632" 
d="M1034 1763l-227 -188h-37l227 188h37zM817 -20q-157 0 -294.5 54.5t-235.5 150t-154.5 232t-56.5 294.5t56.5 294t154.5 231.5t235.5 149.5t294.5 54q209 0 377.5 -92t265 -259.5t96.5 -377.5q0 -211 -96.5 -378.5t-265 -260t-377.5 -92.5zM817 6q224 0 364 188t140 517
q0 315 -137.5 508.5t-366.5 193.5q-225 0 -365.5 -187t-140.5 -515q0 -316 138 -510.5t368 -194.5z" />
    <glyph glyph-name="Ocircumflex" unicode="&#xd4;" horiz-adv-x="1632" 
d="M588 1561l229 208l230 -208h-41l-189 168l-188 -168h-41zM817 -20q-157 0 -294.5 54.5t-235.5 150t-154.5 232t-56.5 294.5t56.5 294t154.5 231.5t235.5 149.5t294.5 54q209 0 377.5 -92t265 -259.5t96.5 -377.5q0 -211 -96.5 -378.5t-265 -260t-377.5 -92.5zM817 6
q224 0 364 188t140 517q0 315 -137.5 508.5t-366.5 193.5q-225 0 -365.5 -187t-140.5 -515q0 -316 138 -510.5t368 -194.5z" />
    <glyph glyph-name="Otilde" unicode="&#xd5;" horiz-adv-x="1632" 
d="M696 1669q-45 0 -73.5 -26t-28.5 -62h-27q0 47 36 81t93 34q38 0 71 -16t53 -34.5t50.5 -34.5t63.5 -16q45 0 73.5 26t28.5 62h27q0 -47 -36 -80.5t-93 -33.5q-39 0 -72.5 15.5t-54 34.5t-50 34.5t-61.5 15.5zM817 -20q-157 0 -294.5 54.5t-235.5 150t-154.5 232
t-56.5 294.5t56.5 294t154.5 231.5t235.5 149.5t294.5 54q209 0 377.5 -92t265 -259.5t96.5 -377.5q0 -211 -96.5 -378.5t-265 -260t-377.5 -92.5zM817 6q224 0 364 188t140 517q0 315 -137.5 508.5t-366.5 193.5q-225 0 -365.5 -187t-140.5 -515q0 -316 138 -510.5
t368 -194.5z" />
    <glyph glyph-name="Odieresis" unicode="&#xd6;" horiz-adv-x="1632" 
d="M625 1593q-34 0 -55 22t-21 56q0 31 21.5 52.5t54.5 21.5q31 0 53 -21.5t22 -52.5q0 -33 -22 -55.5t-53 -22.5zM1010 1593q-34 0 -55 22t-21 56q0 31 21.5 52.5t54.5 21.5q31 0 53 -21.5t22 -52.5q0 -33 -22 -55.5t-53 -22.5zM817 -20q-157 0 -294.5 54.5t-235.5 150
t-154.5 232t-56.5 294.5t56.5 294t154.5 231.5t235.5 149.5t294.5 54q209 0 377.5 -92t265 -259.5t96.5 -377.5q0 -211 -96.5 -378.5t-265 -260t-377.5 -92.5zM817 6q224 0 364 188t140 517q0 315 -137.5 508.5t-366.5 193.5q-225 0 -365.5 -187t-140.5 -515
q0 -316 138 -510.5t368 -194.5z" />
    <glyph glyph-name="multiply" unicode="&#xd7;" horiz-adv-x="862" 
d="M143 238l-18 18l287 287l-289 288l18 19l289 -289l291 289l18 -19l-290 -288l286 -287l-18 -18l-287 286z" />
    <glyph glyph-name="Oslash" unicode="&#xd8;" horiz-adv-x="1632" 
d="M817 -20q-200 0 -366 86l-54 -89l-32 3l61 100q-163 94 -256.5 259t-93.5 372q0 158 56.5 294t154.5 231.5t235.5 149.5t294.5 54q201 0 373 -90l55 90h37l-63 -107q158 -94 247.5 -256t89.5 -366q0 -211 -96.5 -378.5t-265 -260t-377.5 -92.5zM311 711q0 -171 43 -311.5
t123 -233.5l666 1104q-131 143 -326 143q-225 0 -365.5 -187t-140.5 -515zM817 6q224 0 364 188t140 517q0 337 -158 534l-665 -1102q128 -137 319 -137z" />
    <glyph glyph-name="Ugrave" unicode="&#xd9;" horiz-adv-x="1026" 
d="M434 1763h31l145 -188h-28zM340 1419v-1005q0 -165 72.5 -268t203.5 -103q125 0 201 104t76 267v1005h29v-1005q0 -200 -111.5 -317t-292.5 -117q-183 0 -297.5 116.5t-114.5 317.5v1005h234z" />
    <glyph glyph-name="Uacute" unicode="&#xda;" horiz-adv-x="1026" 
d="M733 1763l-147 -188h-29l145 188h31zM340 1419v-1005q0 -165 72.5 -268t203.5 -103q125 0 201 104t76 267v1005h29v-1005q0 -200 -111.5 -317t-292.5 -117q-183 0 -297.5 116.5t-114.5 317.5v1005h234z" />
    <glyph glyph-name="Ucircumflex" unicode="&#xdb;" horiz-adv-x="1026" 
d="M442 1561l142 208l139 -208h-29l-110 168l-113 -168h-29zM340 1419v-1005q0 -165 72.5 -268t203.5 -103q125 0 201 104t76 267v1005h29v-1005q0 -200 -111.5 -317t-292.5 -117q-183 0 -297.5 116.5t-114.5 317.5v1005h234z" />
    <glyph glyph-name="Udieresis" unicode="&#xdc;" horiz-adv-x="1026" 
d="M438 1593q-34 0 -55 22t-21 56q0 31 21.5 52.5t54.5 21.5q31 0 53.5 -21.5t22.5 -52.5q0 -33 -22.5 -55.5t-53.5 -22.5zM729 1593q-34 0 -55 22t-21 56q0 31 21.5 52.5t54.5 21.5q31 0 53.5 -21.5t22.5 -52.5q0 -33 -22.5 -55.5t-53.5 -22.5zM340 1419v-1005
q0 -165 72.5 -268t203.5 -103q125 0 201 104t76 267v1005h29v-1005q0 -200 -111.5 -317t-292.5 -117q-183 0 -297.5 116.5t-114.5 317.5v1005h234z" />
    <glyph glyph-name="Yacute" unicode="&#xdd;" horiz-adv-x="894" 
d="M631 1763l-148 -188h-28l145 188h31zM358 0v498l-292 921h233l274 -868l250 868h29l-262 -921v-498h-232z" />
    <glyph glyph-name="Thorn" unicode="&#xde;" horiz-adv-x="1048" 
d="M117 0v1419h229v-205h232q181 0 301 -111t120 -282q0 -169 -120 -277t-301 -108h-232v-436h-229zM453 1188h-107v-725h107q140 0 226.5 102t86.5 256q0 155 -87 261t-226 106z" />
    <glyph glyph-name="germandbls" unicode="&#xdf;" horiz-adv-x="1216" 
d="M584 0v27q147 0 234 117.5t87 314.5t-87 314.5t-234 117.5h-2v4l297 588q-110 98 -254 98q-137 0 -212 -99t-75 -261v-1221h-221v1116q0 230 132 368t339 138q151 0 266 -86t174 -223l-221 -432q146 -50 237 -159t91 -263q0 -206 -155.5 -332.5t-395.5 -126.5z" />
    <glyph glyph-name="agrave" unicode="&#xe0;" 
d="M362 1397h31l146 -189h-29zM389 -20q-149 0 -243.5 88t-94.5 221q0 141 97.5 230t248.5 89h283v207q0 123 -46.5 184.5t-121.5 61.5q-72 0 -120 -64t-48 -190q0 -12 1 -36t1 -34h-225q0 152 112 251t279 99q168 0 278.5 -101.5t110.5 -266.5v-719h-221v158
q-36 -84 -111 -131t-180 -47zM477 47q88 0 145.5 72t57.5 182v281h-170q-107 0 -170.5 -78t-63.5 -203q0 -112 54.5 -183t146.5 -71z" />
    <glyph glyph-name="aacute" unicode="&#xe1;" 
d="M662 1397l-148 -189h-29l146 189h31zM389 -20q-149 0 -243.5 88t-94.5 221q0 141 97.5 230t248.5 89h283v207q0 123 -46.5 184.5t-121.5 61.5q-72 0 -120 -64t-48 -190q0 -12 1 -36t1 -34h-225q0 152 112 251t279 99q168 0 278.5 -101.5t110.5 -266.5v-719h-221v158
q-36 -84 -111 -131t-180 -47zM477 47q88 0 145.5 72t57.5 182v281h-170q-107 0 -170.5 -78t-63.5 -203q0 -112 54.5 -183t146.5 -71z" />
    <glyph glyph-name="acircumflex" unicode="&#xe2;" 
d="M371 1194l141 209l139 -209h-28l-111 168l-113 -168h-28zM389 -20q-149 0 -243.5 88t-94.5 221q0 141 97.5 230t248.5 89h283v207q0 123 -46.5 184.5t-121.5 61.5q-72 0 -120 -64t-48 -190q0 -12 1 -36t1 -34h-225q0 152 112 251t279 99q168 0 278.5 -101.5t110.5 -266.5
v-719h-221v158q-36 -84 -111 -131t-180 -47zM477 47q88 0 145.5 72t57.5 182v281h-170q-107 0 -170.5 -78t-63.5 -203q0 -112 54.5 -183t146.5 -71z" />
    <glyph glyph-name="atilde" unicode="&#xe3;" 
d="M504 1253q-15 52 -88 52q-41 0 -66.5 -26t-25.5 -65h-25q0 50 32.5 82.5t84.5 32.5q30 0 57 -16t44 -35t41.5 -35t49.5 -16q41 0 66.5 25.5t25.5 64.5h25q0 -50 -32.5 -82.5t-84.5 -32.5q-89 0 -104 51zM389 -20q-149 0 -243.5 88t-94.5 221q0 141 97.5 230t248.5 89h283
v207q0 123 -46.5 184.5t-121.5 61.5q-72 0 -120 -64t-48 -190q0 -12 1 -36t1 -34h-225q0 152 112 251t279 99q168 0 278.5 -101.5t110.5 -266.5v-719h-221v158q-36 -84 -111 -131t-180 -47zM477 47q88 0 145.5 72t57.5 182v281h-170q-107 0 -170.5 -78t-63.5 -203
q0 -112 54.5 -183t146.5 -71z" />
    <glyph glyph-name="adieresis" unicode="&#xe4;" 
d="M367 1227q-32 0 -54 22t-22 56q0 31 22 52t54 21q31 0 53 -21t22 -52q0 -33 -22 -55.5t-53 -22.5zM657 1227q-32 0 -53.5 22t-21.5 56q0 31 21.5 52t53.5 21q31 0 53.5 -21.5t22.5 -51.5q0 -33 -22.5 -55.5t-53.5 -22.5zM389 -20q-149 0 -243.5 88t-94.5 221
q0 141 97.5 230t248.5 89h283v207q0 123 -46.5 184.5t-121.5 61.5q-72 0 -120 -64t-48 -190q0 -12 1 -36t1 -34h-225q0 152 112 251t279 99q168 0 278.5 -101.5t110.5 -266.5v-719h-221v158q-36 -84 -111 -131t-180 -47zM477 47q88 0 145.5 72t57.5 182v281h-170
q-107 0 -170.5 -78t-63.5 -203q0 -112 54.5 -183t146.5 -71z" />
    <glyph glyph-name="aring" unicode="&#xe5;" 
d="M512 1178q-49 0 -81 32t-32 82q0 48 32 79.5t81 31.5q45 0 79 -32.5t34 -78.5q0 -48 -34 -81t-79 -33zM512 1202q36 0 62 26t26 64q0 36 -26 61t-62 25q-38 0 -63 -24.5t-25 -61.5q0 -38 25 -64t63 -26zM389 -20q-149 0 -243.5 88t-94.5 221q0 141 97.5 230t248.5 89h283
v207q0 123 -46.5 184.5t-121.5 61.5q-72 0 -120 -64t-48 -190q0 -12 1 -36t1 -34h-225q0 152 112 251t279 99q168 0 278.5 -101.5t110.5 -266.5v-719h-221v158q-36 -84 -111 -131t-180 -47zM477 47q88 0 145.5 72t57.5 182v281h-170q-107 0 -170.5 -78t-63.5 -203
q0 -112 54.5 -183t146.5 -71z" />
    <glyph glyph-name="ae" unicode="&#xe6;" horiz-adv-x="1888" 
d="M485 633h209v182q0 123 -46.5 184.5t-121.5 61.5q-72 0 -120 -64t-48 -190q0 -12 1 -36t1 -34h-225q0 152 112 251t279 99q104 0 187 -47.5t127 -132.5q76 86 184.5 133t235.5 47q142 0 261 -55.5t200 -166t100 -259.5h-897q-2 -23 -2 -71q0 -237 91.5 -383t246.5 -146
q122 0 209 97t116 274h217q-50 -180 -197 -288.5t-345 -108.5q-126 0 -233 46t-183 130q-46 -81 -142 -128.5t-217 -47.5q-198 0 -316 87.5t-118 237.5q0 151 118 239.5t316 88.5zM1260 1061q-134 0 -225 -113t-109 -315h665q-18 178 -109 303t-222 125zM485 6q91 0 151 84
t60 215l-2 301h-209q-92 0 -152.5 -86t-60.5 -215t60.5 -214t152.5 -85z" />
    <glyph glyph-name="ccedilla" unicode="&#xe7;" horiz-adv-x="1239" 
d="M565 -442l-2 4q62 52 62 127q0 82 -74 133l94 158h-10q-244 0 -404.5 156t-160.5 399q0 159 73.5 285.5t202.5 196.5t289 70q195 0 339.5 -106.5t194.5 -284.5h-219q-19 99 -57 178.5t-105.5 133t-152.5 53.5q-151 0 -244.5 -139.5t-93.5 -386.5q0 -237 92 -383t246 -146
q122 0 205 101.5t110 265.5h219q-46 -168 -179.5 -274.5t-315.5 -116.5l-29 -52q117 -63 117 -182q0 -75 -54 -131t-143 -59z" />
    <glyph glyph-name="egrave" unicode="&#xe8;" horiz-adv-x="1247" 
d="M418 1397h37l227 -189h-37zM961 377h217q-50 -181 -197 -289t-346 -108q-160 0 -288.5 70t-202.5 197.5t-74 287.5q0 241 161 396.5t404 155.5q198 0 345.5 -107t197.5 -284h-869q-12 -74 -12 -161q0 -237 92 -383t246 -146q122 0 209.5 97t116.5 274zM635 1061
q-118 0 -203.5 -88.5t-118.5 -249.5h639q-15 68 -42 126.5t-65.5 107t-92.5 76.5t-117 28z" />
    <glyph glyph-name="eacute" unicode="&#xe9;" horiz-adv-x="1247" 
d="M852 1397l-227 -189h-37l227 189h37zM961 377h217q-50 -181 -197 -289t-346 -108q-160 0 -288.5 70t-202.5 197.5t-74 287.5q0 241 161 396.5t404 155.5q198 0 345.5 -107t197.5 -284h-869q-12 -74 -12 -161q0 -237 92 -383t246 -146q122 0 209.5 97t116.5 274zM635 1061
q-118 0 -203.5 -88.5t-118.5 -249.5h639q-15 68 -42 126.5t-65.5 107t-92.5 76.5t-117 28z" />
    <glyph glyph-name="ecircumflex" unicode="&#xea;" horiz-adv-x="1247" 
d="M406 1194l229 209l229 -209h-41l-188 168l-189 -168h-40zM961 377h217q-50 -181 -197 -289t-346 -108q-160 0 -288.5 70t-202.5 197.5t-74 287.5q0 241 161 396.5t404 155.5q198 0 345.5 -107t197.5 -284h-869q-12 -74 -12 -161q0 -237 92 -383t246 -146q122 0 209.5 97
t116.5 274zM635 1061q-118 0 -203.5 -88.5t-118.5 -249.5h639q-15 68 -42 126.5t-65.5 107t-92.5 76.5t-117 28z" />
    <glyph glyph-name="edieresis" unicode="&#xeb;" horiz-adv-x="1247" 
d="M442 1227q-32 0 -53.5 22t-21.5 56q0 31 21.5 52t53.5 21q31 0 53.5 -21.5t22.5 -51.5q0 -33 -22.5 -55.5t-53.5 -22.5zM827 1227q-32 0 -53.5 22t-21.5 56q0 31 21.5 52t53.5 21q31 0 53.5 -21.5t22.5 -51.5q0 -33 -22.5 -55.5t-53.5 -22.5zM961 377h217
q-50 -181 -197 -289t-346 -108q-160 0 -288.5 70t-202.5 197.5t-74 287.5q0 241 161 396.5t404 155.5q198 0 345.5 -107t197.5 -284h-869q-12 -74 -12 -161q0 -237 92 -383t246 -146q122 0 209.5 97t116.5 274zM635 1061q-118 0 -203.5 -88.5t-118.5 -249.5h639
q-15 68 -42 126.5t-65.5 107t-92.5 76.5t-117 28z" />
    <glyph glyph-name="igrave" unicode="&#xec;" horiz-adv-x="407" 
d="M55 1354h31l145 -189h-28zM313 0h-221v1067h221v-1067z" />
    <glyph glyph-name="iacute" unicode="&#xed;" horiz-adv-x="407" 
d="M354 1354l-147 -189h-29l146 189h30zM313 0h-221v1067h221v-1067z" />
    <glyph glyph-name="icircumflex" unicode="&#xee;" horiz-adv-x="407" 
d="M63 1151l142 209l139 -209h-29l-110 168l-113 -168h-29zM313 0h-221v1067h221v-1067z" />
    <glyph glyph-name="idieresis" unicode="&#xef;" horiz-adv-x="407" 
d="M59 1184q-33 0 -54 22t-21 56q0 31 21 52t54 21q31 0 53.5 -21.5t22.5 -51.5q0 -33 -22.5 -55.5t-53.5 -22.5zM350 1184q-34 0 -55 22t-21 56q0 31 21.5 52t54.5 21q31 0 53.5 -21.5t22.5 -51.5q0 -33 -22.5 -55.5t-53.5 -22.5zM313 0h-221v1067h221v-1067z" />
    <glyph glyph-name="eth" unicode="&#xf0;" horiz-adv-x="1228" 
d="M342 1143l-8 24l315 105q-63 68 -166 155l15 19q91 -63 204 -158l-53 -16q3 -4 9 -11t8 -10zM1174 504q0 -236 -155 -380t-396 -144t-396 140.5t-155 364.5q0 151 73 266t199 175.5t285 60.5q139 0 248 -74q-69 175 -211 338l59 21q-3 3 -11.5 8.5t-11.5 7.5l172 58
l7 -23l-156 -51q240 -204 344.5 -389.5t104.5 -378.5zM299 485q0 -222 90.5 -350.5t233.5 -128.5q148 0 234.5 136.5t86.5 361.5q0 207 -53 368q-100 84 -238 84q-158 0 -256 -130t-98 -341z" />
    <glyph glyph-name="ntilde" unicode="&#xf1;" horiz-adv-x="1052" 
d="M520 1253q-15 52 -88 52q-41 0 -66.5 -26t-25.5 -65h-25q0 50 32.5 82.5t84.5 32.5q30 0 57.5 -16t44.5 -35t41.5 -35t49.5 -16q41 0 66.5 25.5t25.5 64.5h24q0 -50 -32 -82.5t-84 -32.5q-90 0 -105 51zM729 0v766q0 102 -54.5 172t-139.5 70q-86 0 -143.5 -68
t-57.5 -168v-772h-221v1067h221v-174q36 89 113 141.5t180 52.5q141 0 232 -94t91 -239v-754h-221z" />
    <glyph glyph-name="ograve" unicode="&#xf2;" horiz-adv-x="1269" 
d="M418 1397h37l227 -189h-37zM635 -20q-160 0 -288.5 70t-202.5 197.5t-74 287.5q0 241 161 396.5t404 155.5t404 -155.5t161 -396.5q0 -160 -74 -287.5t-202.5 -197.5t-288.5 -70zM635 6q150 0 244 140.5t94 388.5q0 235 -92.5 380.5t-245.5 145.5q-151 0 -244.5 -139.5
t-93.5 -386.5q0 -237 92 -383t246 -146z" />
    <glyph glyph-name="oacute" unicode="&#xf3;" horiz-adv-x="1269" 
d="M852 1397l-227 -189h-37l227 189h37zM635 -20q-160 0 -288.5 70t-202.5 197.5t-74 287.5q0 241 161 396.5t404 155.5t404 -155.5t161 -396.5q0 -160 -74 -287.5t-202.5 -197.5t-288.5 -70zM635 6q150 0 244 140.5t94 388.5q0 235 -92.5 380.5t-245.5 145.5
q-151 0 -244.5 -139.5t-93.5 -386.5q0 -237 92 -383t246 -146z" />
    <glyph glyph-name="ocircumflex" unicode="&#xf4;" horiz-adv-x="1269" 
d="M406 1194l229 209l229 -209h-41l-188 168l-189 -168h-40zM635 -20q-160 0 -288.5 70t-202.5 197.5t-74 287.5q0 241 161 396.5t404 155.5t404 -155.5t161 -396.5q0 -160 -74 -287.5t-202.5 -197.5t-288.5 -70zM635 6q150 0 244 140.5t94 388.5q0 235 -92.5 380.5
t-245.5 145.5q-151 0 -244.5 -139.5t-93.5 -386.5q0 -237 92 -383t246 -146z" />
    <glyph glyph-name="otilde" unicode="&#xf5;" horiz-adv-x="1269" 
d="M514 1303q-45 0 -73.5 -26.5t-28.5 -62.5h-27q0 47 36 81t93 34q38 0 71 -15.5t53 -34.5t50.5 -34.5t63.5 -15.5q46 0 75 26t29 62h25q0 -47 -36 -81t-93 -34q-39 0 -72.5 16t-54 34.5t-50 34.5t-61.5 16zM635 -20q-160 0 -288.5 70t-202.5 197.5t-74 287.5
q0 241 161 396.5t404 155.5t404 -155.5t161 -396.5q0 -160 -74 -287.5t-202.5 -197.5t-288.5 -70zM635 6q150 0 244 140.5t94 388.5q0 235 -92.5 380.5t-245.5 145.5q-151 0 -244.5 -139.5t-93.5 -386.5q0 -237 92 -383t246 -146z" />
    <glyph glyph-name="odieresis" unicode="&#xf6;" horiz-adv-x="1269" 
d="M442 1227q-32 0 -53.5 22t-21.5 56q0 31 21.5 52t53.5 21q31 0 53.5 -21.5t22.5 -51.5q0 -33 -22.5 -55.5t-53.5 -22.5zM827 1227q-32 0 -53.5 22t-21.5 56q0 31 21.5 52t53.5 21q31 0 53.5 -21.5t22.5 -51.5q0 -33 -22.5 -55.5t-53.5 -22.5zM635 -20q-160 0 -288.5 70
t-202.5 197.5t-74 287.5q0 241 161 396.5t404 155.5t404 -155.5t161 -396.5q0 -160 -74 -287.5t-202.5 -197.5t-288.5 -70zM635 6q150 0 244 140.5t94 388.5q0 235 -92.5 380.5t-245.5 145.5q-151 0 -244.5 -139.5t-93.5 -386.5q0 -237 92 -383t246 -146z" />
    <glyph glyph-name="divide" unicode="&#xf7;" horiz-adv-x="901" 
d="M453 680q-45 0 -75 30t-30 74q0 45 30 75t75 30q43 0 72.5 -30.5t29.5 -74.5t-29.5 -74t-72.5 -30zM102 528v27h697v-27h-697zM453 195q-45 0 -75 29.5t-30 74.5q0 44 29.5 73t75.5 29q43 0 72.5 -29t29.5 -73t-29.5 -74t-72.5 -30z" />
    <glyph glyph-name="oslash" unicode="&#xf8;" horiz-adv-x="1269" 
d="M635 -20q-224 0 -381 135l-88 -97h-37l104 115q-78 73 -120.5 177t-42.5 225q0 241 161 396.5t404 155.5q220 0 369 -124l86 92h36l-102 -111q84 -74 130 -179t46 -230q0 -160 -74 -287.5t-202.5 -197.5t-288.5 -70zM297 535q0 -163 45 -287l567 612q-43 95 -114 148
t-160 53q-151 0 -244.5 -139.5t-93.5 -386.5zM635 6q150 0 244 140.5t94 388.5q0 172 -51 299l-570 -613q43 -103 116 -159t167 -56z" />
    <glyph glyph-name="ugrave" unicode="&#xf9;" horiz-adv-x="1058" 
d="M373 1397h30l146 -189h-29zM946 0h-221v174q-36 -89 -114 -141.5t-181 -52.5q-143 0 -235.5 94.5t-92.5 240.5v752h222v-772q0 -101 55.5 -168.5t140.5 -67.5q87 0 146 68t59 168v772h221v-1067z" />
    <glyph glyph-name="uacute" unicode="&#xfa;" horiz-adv-x="1058" 
d="M670 1397l-148 -189h-28l145 189h31zM946 0h-221v174q-36 -89 -114 -141.5t-181 -52.5q-143 0 -235.5 94.5t-92.5 240.5v752h222v-772q0 -101 55.5 -168.5t140.5 -67.5q87 0 146 68t59 168v772h221v-1067z" />
    <glyph glyph-name="ucircumflex" unicode="&#xfb;" horiz-adv-x="1058" 
d="M381 1194l141 209l140 -209h-29l-111 168l-112 -168h-29zM946 0h-221v174q-36 -89 -114 -141.5t-181 -52.5q-143 0 -235.5 94.5t-92.5 240.5v752h222v-772q0 -101 55.5 -168.5t140.5 -67.5q87 0 146 68t59 168v772h221v-1067z" />
    <glyph glyph-name="udieresis" unicode="&#xfc;" horiz-adv-x="1058" 
d="M377 1227q-34 0 -55 22t-21 56q0 31 21.5 52t54.5 21q30 0 53 -21.5t23 -51.5q0 -33 -23 -55.5t-53 -22.5zM668 1227q-34 0 -55 22t-21 56q0 31 21.5 52t54.5 21q30 0 52.5 -21.5t22.5 -51.5q0 -33 -22.5 -55.5t-52.5 -22.5zM946 0h-221v174q-36 -89 -114 -141.5
t-181 -52.5q-143 0 -235.5 94.5t-92.5 240.5v752h222v-772q0 -101 55.5 -168.5t140.5 -67.5q87 0 146 68t59 168v772h221v-1067z" />
    <glyph glyph-name="yacute" unicode="&#xfd;" horiz-adv-x="903" 
d="M678 1397l-148 -189h-28l145 189h31zM43 1067h227l295 -774l260 774h29l-535 -1595h-28l172 516z" />
    <glyph glyph-name="thorn" unicode="&#xfe;" horiz-adv-x="1345" 
d="M774 1087q150 0 265.5 -74.5t176 -199.5t60.5 -278q0 -154 -60.5 -279.5t-176 -200.5t-265.5 -75q-162 0 -277 86t-165 239v-833h-221v2130h221v-838q50 152 165 237.5t277 85.5zM692 1042q-153 0 -259.5 -143t-106.5 -364t107 -364.5t259 -143.5q156 0 256.5 141.5
t100.5 366.5t-100.5 366t-256.5 141z" />
    <glyph glyph-name="ydieresis" unicode="&#xff;" horiz-adv-x="903" 
d="M385 1227q-34 0 -55 22t-21 56q0 31 21.5 52t54.5 21q30 0 53 -21.5t23 -51.5q0 -33 -23 -55.5t-53 -22.5zM676 1227q-34 0 -55 22t-21 56q0 31 21.5 52t54.5 21q30 0 53 -21.5t23 -51.5q0 -33 -23 -55.5t-53 -22.5zM43 1067h227l295 -774l260 774h29l-535 -1595h-28
l172 516z" />
    <glyph glyph-name="Amacron" unicode="&#x100;" horiz-adv-x="1026" 
d="M330 1604v26h368v-26h-368zM86 0h-29l346 1419h238l328 -1419h-236l-110 492h-416zM213 518h403l-194 862z" />
    <glyph glyph-name="amacron" unicode="&#x101;" 
d="M328 1237v27h368v-27h-368zM389 -20q-149 0 -243.5 88t-94.5 221q0 141 97.5 230t248.5 89h283v207q0 123 -46.5 184.5t-121.5 61.5q-72 0 -120 -64t-48 -190q0 -12 1 -36t1 -34h-225q0 152 112 251t279 99q168 0 278.5 -101.5t110.5 -266.5v-719h-221v158
q-36 -84 -111 -131t-180 -47zM477 47q88 0 145.5 72t57.5 182v281h-170q-107 0 -170.5 -78t-63.5 -203q0 -112 54.5 -183t146.5 -71z" />
    <glyph glyph-name="Abreve" unicode="&#x102;" horiz-adv-x="1026" 
d="M311 1753h29q0 -79 46 -130.5t128 -51.5t127 51t45 131h29q0 -89 -52.5 -149t-148.5 -60q-97 0 -150 60.5t-53 148.5zM86 0h-29l346 1419h238l328 -1419h-236l-110 492h-416zM213 518h403l-194 862z" />
    <glyph glyph-name="abreve" unicode="&#x103;" 
d="M309 1386h29q0 -79 46 -130.5t128 -51.5t127 51t45 131h29q0 -89 -52 -148.5t-149 -59.5t-150 60t-53 148zM389 -20q-149 0 -243.5 88t-94.5 221q0 141 97.5 230t248.5 89h283v207q0 123 -46.5 184.5t-121.5 61.5q-72 0 -120 -64t-48 -190q0 -12 1 -36t1 -34h-225
q0 152 112 251t279 99q168 0 278.5 -101.5t110.5 -266.5v-719h-221v158q-36 -84 -111 -131t-180 -47zM477 47q88 0 145.5 72t57.5 182v281h-170q-107 0 -170.5 -78t-63.5 -203q0 -112 54.5 -183t146.5 -71z" />
    <glyph glyph-name="Aogonek" unicode="&#x104;" horiz-adv-x="1026" 
d="M86 0h-29l346 1419h238l328 -1419q-51 -6 -84 -39t-33 -80q0 -49 35.5 -84t85.5 -35v-194q-92 0 -156.5 65t-64.5 156q0 72 41.5 129.5t105.5 81.5h-166l-110 492h-416zM213 518h403l-194 862z" />
    <glyph glyph-name="aogonek" unicode="&#x105;" 
d="M389 -20q-149 0 -243.5 88t-94.5 221q0 141 97.5 230t248.5 89h283v207q0 123 -46.5 184.5t-121.5 61.5q-72 0 -120 -64t-48 -190q0 -12 1 -36t1 -34h-225q0 152 112 251t279 99q168 0 278.5 -101.5t110.5 -266.5v-719q-51 -6 -84 -39t-33 -80q0 -49 35.5 -84t85.5 -35
v-194q-92 0 -156.5 65t-64.5 156q0 72 41.5 129.5t105.5 81.5h-151v158q-36 -84 -111 -131t-180 -47zM477 47q88 0 145.5 72t57.5 182v281h-170q-107 0 -170.5 -78t-63.5 -203q0 -112 54.5 -183t146.5 -71z" />
    <glyph glyph-name="Cacute" unicode="&#x106;" horiz-adv-x="1595" 
d="M1022 1763l-227 -188h-37l227 188h37zM1520 924h-226q-20 98 -58.5 183.5t-96.5 155t-141 110t-181 40.5q-225 0 -365.5 -187t-140.5 -515q0 -316 138 -510.5t368 -194.5q124 0 224.5 65t163 174.5t89.5 252.5h226q-28 -103 -87.5 -195t-146.5 -165t-208.5 -115.5
t-260.5 -42.5q-157 0 -294.5 54.5t-235.5 150t-154.5 232t-56.5 294.5q0 210 96.5 377t265.5 259.5t379 92.5q256 0 447 -141.5t256 -374.5z" />
    <glyph glyph-name="cacute" unicode="&#x107;" horiz-adv-x="1239" 
d="M852 1397l-227 -189h-37l227 189h37zM950 373h219q-50 -178 -194.5 -285.5t-339.5 -107.5q-244 0 -404.5 156t-160.5 399q0 159 73.5 285.5t202.5 196.5t289 70q195 0 339.5 -106.5t194.5 -284.5h-219q-19 99 -57 178.5t-105.5 133t-152.5 53.5q-151 0 -244.5 -139.5
t-93.5 -386.5q0 -237 92 -383t246 -146q122 0 205 101.5t110 265.5z" />
    <glyph glyph-name="Cdotaccent" unicode="&#x10a;" horiz-adv-x="1595" 
d="M807 1593q-34 0 -55 22t-21 56q0 31 21.5 52.5t54.5 21.5q30 0 53 -22t23 -52q0 -33 -23 -55.5t-53 -22.5zM1520 924h-226q-20 98 -58.5 183.5t-96.5 155t-141 110t-181 40.5q-225 0 -365.5 -187t-140.5 -515q0 -316 138 -510.5t368 -194.5q124 0 224.5 65t163 174.5
t89.5 252.5h226q-28 -103 -87.5 -195t-146.5 -165t-208.5 -115.5t-260.5 -42.5q-157 0 -294.5 54.5t-235.5 150t-154.5 232t-56.5 294.5q0 210 96.5 377t265.5 259.5t379 92.5q256 0 447 -141.5t256 -374.5z" />
    <glyph glyph-name="cdotaccent" unicode="&#x10b;" horiz-adv-x="1239" 
d="M635 1227q-32 0 -54 22t-22 56q0 31 22 52t54 21q31 0 53.5 -21.5t22.5 -51.5q0 -33 -22.5 -55.5t-53.5 -22.5zM950 373h219q-50 -178 -194.5 -285.5t-339.5 -107.5q-244 0 -404.5 156t-160.5 399q0 159 73.5 285.5t202.5 196.5t289 70q195 0 339.5 -106.5t194.5 -284.5
h-219q-19 99 -57 178.5t-105.5 133t-152.5 53.5q-151 0 -244.5 -139.5t-93.5 -386.5q0 -237 92 -383t246 -146q122 0 205 101.5t110 265.5z" />
    <glyph glyph-name="Ccaron" unicode="&#x10c;" horiz-adv-x="1595" 
d="M1036 1749l-229 -209l-229 209h40l189 -168l188 168h41zM1520 924h-226q-20 98 -58.5 183.5t-96.5 155t-141 110t-181 40.5q-225 0 -365.5 -187t-140.5 -515q0 -316 138 -510.5t368 -194.5q124 0 224.5 65t163 174.5t89.5 252.5h226q-28 -103 -87.5 -195t-146.5 -165
t-208.5 -115.5t-260.5 -42.5q-157 0 -294.5 54.5t-235.5 150t-154.5 232t-56.5 294.5q0 210 96.5 377t265.5 259.5t379 92.5q256 0 447 -141.5t256 -374.5z" />
    <glyph glyph-name="ccaron" unicode="&#x10d;" horiz-adv-x="1239" 
d="M864 1382l-229 -208l-229 208h40l189 -168l188 168h41zM950 373h219q-50 -178 -194.5 -285.5t-339.5 -107.5q-244 0 -404.5 156t-160.5 399q0 159 73.5 285.5t202.5 196.5t289 70q195 0 339.5 -106.5t194.5 -284.5h-219q-19 99 -57 178.5t-105.5 133t-152.5 53.5
q-151 0 -244.5 -139.5t-93.5 -386.5q0 -237 92 -383t246 -146q122 0 205 101.5t110 265.5z" />
    <glyph glyph-name="Dcaron" unicode="&#x10e;" horiz-adv-x="1167" 
d="M256 1749h29l112 -168l111 168h29l-140 -209zM117 0v1419h241q206 0 373 -89.5t263 -252t96 -366.5t-96 -367.5t-263 -253.5t-373 -90h-241zM358 1393h-12v-1366h12q141 0 254 86.5t177.5 243.5t64.5 354q0 196 -64.5 352.5t-177.5 243t-254 86.5z" />
    <glyph glyph-name="dcaron" unicode="&#x10f;" horiz-adv-x="1482" 
d="M1346 1352h-29l145 250h31zM571 -20q-149 0 -264 75t-176 200.5t-61 279.5q0 153 61 278t176 199.5t264 74.5q162 0 276.5 -84t166.5 -233v832h221v-1602h-221v299q-52 -150 -166.5 -234.5t-276.5 -84.5zM655 27q151 0 258 143.5t107 364.5t-107 364t-258 143
q-156 0 -257 -141.5t-101 -365.5q0 -225 100 -366.5t258 -141.5z" />
    <glyph glyph-name="Dcroat" unicode="&#x110;" horiz-adv-x="1167" 
d="M20 721v27h97v671h241q206 0 373 -89.5t263 -252t96 -366.5t-96 -367.5t-263 -253.5t-373 -90h-241v721h-97zM510 721h-164v-694h12q141 0 254 86.5t177.5 243.5t64.5 354q0 196 -64.5 352.5t-177.5 243t-254 86.5h-12v-645h164v-27z" />
    <glyph glyph-name="dcroat" unicode="&#x111;" horiz-adv-x="1335" 
d="M571 -20q-149 0 -264 75t-176 200.5t-61 279.5q0 153 61 278t176 199.5t264 74.5q162 0 276.5 -84t166.5 -233v621h-172v26h172v185h221v-185h96v-26h-96v-1391h-221v299q-52 -150 -166.5 -234.5t-276.5 -84.5zM655 27q151 0 258 143.5t107 364.5t-107 364t-258 143
q-156 0 -257 -141.5t-101 -365.5q0 -225 100 -366.5t258 -141.5z" />
    <glyph glyph-name="Emacron" unicode="&#x112;" horiz-adv-x="890" 
d="M291 1604v26h368v-26h-368zM117 0v1419h708v-26h-479v-670h416v-27h-416v-669h479v-27h-708z" />
    <glyph glyph-name="emacron" unicode="&#x113;" horiz-adv-x="1247" 
d="M451 1237v27h368v-27h-368zM961 377h217q-50 -181 -197 -289t-346 -108q-160 0 -288.5 70t-202.5 197.5t-74 287.5q0 241 161 396.5t404 155.5q198 0 345.5 -107t197.5 -284h-869q-12 -74 -12 -161q0 -237 92 -383t246 -146q122 0 209.5 97t116.5 274zM635 1061
q-118 0 -203.5 -88.5t-118.5 -249.5h639q-15 68 -42 126.5t-65.5 107t-92.5 76.5t-117 28z" />
    <glyph glyph-name="Edotaccent" unicode="&#x116;" horiz-adv-x="890" 
d="M475 1593q-32 0 -54 22t-22 56q0 31 22 52.5t54 21.5q31 0 53.5 -21.5t22.5 -52.5q0 -33 -22.5 -55.5t-53.5 -22.5zM117 0v1419h708v-26h-479v-670h416v-27h-416v-669h479v-27h-708z" />
    <glyph glyph-name="edotaccent" unicode="&#x117;" horiz-adv-x="1247" 
d="M635 1227q-32 0 -54 22t-22 56q0 31 22 52t54 21q31 0 53.5 -21.5t22.5 -51.5q0 -33 -22.5 -55.5t-53.5 -22.5zM961 377h217q-50 -181 -197 -289t-346 -108q-160 0 -288.5 70t-202.5 197.5t-74 287.5q0 241 161 396.5t404 155.5q198 0 345.5 -107t197.5 -284h-869
q-12 -74 -12 -161q0 -237 92 -383t246 -146q122 0 209.5 97t116.5 274zM635 1061q-118 0 -203.5 -88.5t-118.5 -249.5h639q-15 68 -42 126.5t-65.5 107t-92.5 76.5t-117 28z" />
    <glyph glyph-name="Eogonek" unicode="&#x118;" horiz-adv-x="890" 
d="M827 -240v-192q-91 0 -156 65t-65 156q0 73 44 131t110 80h-643v1419h708v-26h-479v-670h416v-27h-416v-669h479v-27q-51 -6 -83.5 -39t-32.5 -80q0 -50 34.5 -85.5t83.5 -35.5z" />
    <glyph glyph-name="eogonek" unicode="&#x119;" horiz-adv-x="1247" 
d="M635 -20q-160 0 -288.5 70t-202.5 197.5t-74 287.5q0 241 161 396.5t404 155.5q198 0 345.5 -107t197.5 -284h-869q-12 -74 -12 -161q0 -237 92 -383t246 -146q122 0 209.5 97t116.5 274h217q-40 -147 -147 -248t-257 -135q-40 -11 -66 -41.5t-26 -71.5q0 -51 35.5 -86
t85.5 -35v-192q-92 0 -156.5 65t-64.5 156q0 62 30.5 113.5t81.5 79.5q-20 -2 -59 -2zM635 1061q-118 0 -203.5 -88.5t-118.5 -249.5h639q-15 68 -42 126.5t-65.5 107t-92.5 76.5t-117 28z" />
    <glyph glyph-name="Ecaron" unicode="&#x11a;" horiz-adv-x="890" 
d="M334 1749h28l113 -168l111 168h28l-139 -209zM117 0v1419h708v-26h-479v-670h416v-27h-416v-669h479v-27h-708z" />
    <glyph glyph-name="ecaron" unicode="&#x11b;" horiz-adv-x="1247" 
d="M864 1382l-229 -208l-229 208h40l189 -168l188 168h41zM961 377h217q-50 -181 -197 -289t-346 -108q-160 0 -288.5 70t-202.5 197.5t-74 287.5q0 241 161 396.5t404 155.5q198 0 345.5 -107t197.5 -284h-869q-12 -74 -12 -161q0 -237 92 -383t246 -146q122 0 209.5 97
t116.5 274zM635 1061q-118 0 -203.5 -88.5t-118.5 -249.5h639q-15 68 -42 126.5t-65.5 107t-92.5 76.5t-117 28z" />
    <glyph glyph-name="Gbreve" unicode="&#x11e;" horiz-adv-x="1628" 
d="M594 1753h29q0 -68 53 -125t141 -57q89 0 142 57t53 125h28q0 -77 -59.5 -143t-163.5 -66t-163.5 66t-59.5 143zM809 594v27h743q-34 -286 -238 -463.5t-497 -177.5q-157 0 -294.5 54.5t-235.5 150t-154.5 232t-56.5 294.5t56.5 294t154.5 231.5t235.5 149.5t294.5 54
q260 0 453.5 -141t259.5 -375h-227q-42 225 -170.5 357t-315.5 132q-225 0 -365.5 -187t-140.5 -515q0 -316 138 -510.5t368 -194.5q202 0 337.5 154.5t162.5 433.5h-508z" />
    <glyph glyph-name="gbreve" unicode="&#x11f;" horiz-adv-x="1064" 
d="M311 1401h29q0 -79 46 -130.5t128 -51.5t127 51t45 131h29q0 -89 -52.5 -149t-148.5 -60q-97 0 -150 60.5t-53 148.5zM514 -524q-200 0 -332.5 124.5t-132.5 311.5q0 182 128.5 304.5t322.5 127.5v66q-148 5 -246 101t-98 237q0 146 102 242.5t256 96.5l465 213v-219
h-393q129 -22 210 -113.5t81 -219.5q0 -141 -99 -237.5t-250 -100.5v-66q196 -5 325.5 -127.5t129.5 -304.5q0 -187 -134 -311.5t-335 -124.5zM514 436q74 0 119 79.5t45 232.5q0 154 -45 233.5t-119 79.5q-72 0 -117 -79.5t-45 -233.5q0 -152 45 -232t117 -80zM514 -498
q108 0 176 111.5t68 298.5q0 186 -68 295.5t-176 109.5q-104 0 -172 -110t-68 -295q0 -186 68 -298t172 -112z" />
    <glyph glyph-name="Gdotaccent" unicode="&#x120;" horiz-adv-x="1628" 
d="M817 1593q-34 0 -55 22t-21 56q0 31 21.5 52.5t54.5 21.5q31 0 53.5 -21.5t22.5 -52.5q0 -33 -22.5 -55.5t-53.5 -22.5zM809 594v27h743q-34 -286 -238 -463.5t-497 -177.5q-157 0 -294.5 54.5t-235.5 150t-154.5 232t-56.5 294.5t56.5 294t154.5 231.5t235.5 149.5
t294.5 54q260 0 453.5 -141t259.5 -375h-227q-42 225 -170.5 357t-315.5 132q-225 0 -365.5 -187t-140.5 -515q0 -316 138 -510.5t368 -194.5q202 0 337.5 154.5t162.5 433.5h-508z" />
    <glyph glyph-name="gdotaccent" unicode="&#x121;" horiz-adv-x="1064" 
d="M514 1241q-32 0 -54 22t-22 56q0 31 22 52.5t54 21.5q31 0 53.5 -21.5t22.5 -52.5q0 -33 -22.5 -55.5t-53.5 -22.5zM514 -524q-200 0 -332.5 124.5t-132.5 311.5q0 182 128.5 304.5t322.5 127.5v66q-148 5 -246 101t-98 237q0 146 102 242.5t256 96.5l465 213v-219h-393
q129 -22 210 -113.5t81 -219.5q0 -141 -99 -237.5t-250 -100.5v-66q196 -5 325.5 -127.5t129.5 -304.5q0 -187 -134 -311.5t-335 -124.5zM514 436q74 0 119 79.5t45 232.5q0 154 -45 233.5t-119 79.5q-72 0 -117 -79.5t-45 -233.5q0 -152 45 -232t117 -80zM514 -498
q108 0 176 111.5t68 298.5q0 186 -68 295.5t-176 109.5q-104 0 -172 -110t-68 -295q0 -186 68 -298t172 -112z" />
    <glyph glyph-name="Gcommaaccent" unicode="&#x122;" horiz-adv-x="1628" 
d="M809 594v27h743q-34 -286 -238 -463.5t-497 -177.5q-157 0 -294.5 54.5t-235.5 150t-154.5 232t-56.5 294.5t56.5 294t154.5 231.5t235.5 149.5t294.5 54q260 0 453.5 -141t259.5 -375h-227q-42 225 -170.5 357t-315.5 132q-225 0 -365.5 -187t-140.5 -515
q0 -316 138 -510.5t368 -194.5q202 0 337.5 154.5t162.5 433.5h-508zM817 -229q-32 0 -54 21.5t-22 53.5t22 53t54 21t54 -21t22 -53q0 -21 -10 -41l-86 -155l-15 8l68 119q-15 -6 -33 -6z" />
    <glyph glyph-name="gcommaaccent" unicode="&#x123;" horiz-adv-x="1064" 
d="M514 1294q34 0 56 -21.5t22 -53.5t-22 -53t-56 -21q-31 0 -52.5 21t-21.5 53q0 19 11 41l86 155l12 -8l-68 -121q13 8 33 8zM514 -524q-200 0 -332.5 124.5t-132.5 311.5q0 182 128.5 304.5t322.5 127.5v66q-148 5 -246 101t-98 237q0 146 102 242.5t256 96.5l465 213
v-219h-393q129 -22 210 -113.5t81 -219.5q0 -141 -99 -237.5t-250 -100.5v-66q196 -5 325.5 -127.5t129.5 -304.5q0 -187 -134 -311.5t-335 -124.5zM514 436q74 0 119 79.5t45 232.5q0 154 -45 233.5t-119 79.5q-72 0 -117 -79.5t-45 -233.5q0 -152 45 -232t117 -80z
M514 -498q108 0 176 111.5t68 298.5q0 186 -68 295.5t-176 109.5q-104 0 -172 -110t-68 -295q0 -186 68 -298t172 -112z" />
    <glyph glyph-name="Hbar" unicode="&#x126;" horiz-adv-x="1075" 
d="M346 0h-229v1040h-103v27h103v352h229v-352h383v352h229v-352h103v-27h-103v-1040h-229v696h-383v-696zM346 723h383v317h-383v-317z" />
    <glyph glyph-name="Imacron" unicode="&#x12a;" horiz-adv-x="501" 
d="M66 1604v26h368v-26h-368zM367 0h-230v1419h230v-1419z" />
    <glyph glyph-name="imacron" unicode="&#x12b;" horiz-adv-x="407" 
d="M20 1194v27h369v-27h-369zM313 0h-221v1067h221v-1067z" />
    <glyph glyph-name="Iogonek" unicode="&#x12e;" horiz-adv-x="501" 
d="M369 -238v-194q-91 0 -156.5 65t-65.5 156q0 72 42.5 129.5t107.5 81.5h-160v1419h230v-1419q-51 -6 -84 -39t-33 -80q0 -49 35 -84t84 -35z" />
    <glyph glyph-name="iogonek" unicode="&#x12f;" horiz-adv-x="407" 
d="M205 1184q-34 0 -55 22t-21 56q0 31 21.5 52t54.5 21q31 0 53.5 -21.5t22.5 -51.5q0 -33 -22.5 -55.5t-53.5 -22.5zM317 -240v-192q-91 0 -156 65t-65 156q0 73 44 131t110 80h-158v1067h221v-1067q-51 -6 -83.5 -39t-32.5 -80q0 -50 35.5 -85.5t84.5 -35.5z" />
    <glyph glyph-name="Idotaccent" unicode="&#x130;" horiz-adv-x="501" 
d="M250 1593q-32 0 -54 22t-22 56q0 31 22 52.5t54 21.5q31 0 53.5 -21.5t22.5 -52.5q0 -33 -22.5 -55.5t-53.5 -22.5zM367 0h-230v1419h230v-1419z" />
    <glyph glyph-name="dotlessi" unicode="&#x131;" horiz-adv-x="407" 
d="M313 0h-221v1067h221v-1067z" />
    <glyph glyph-name="Kcommaaccent" unicode="&#x136;" horiz-adv-x="1054" 
d="M346 0h-229v1419h229v-805l537 805h32l-350 -530l451 -885v-4h-248l-334 690l-88 -135v-555zM520 -229q-34 0 -56 21.5t-22 53.5t22 53t56 21q31 0 52.5 -21t21.5 -53q0 -21 -10 -41l-86 -155l-13 8l68 121q-13 -8 -33 -8z" />
    <glyph glyph-name="kcommaaccent" unicode="&#x137;" horiz-adv-x="1011" 
d="M332 0h-221v1602h221v-1151l479 616h39l-268 -346l374 -721h-235l-281 539l-108 -142v-397zM506 -229q-34 0 -56 21.5t-22 53.5t22 53t56 21q31 0 52.5 -21t21.5 -53q0 -19 -11 -41l-86 -155l-12 8l68 121q-13 -8 -33 -8z" />
    <glyph glyph-name="Lacute" unicode="&#x139;" horiz-adv-x="888" 
d="M451 1763l-148 -188h-29l146 188h31zM883 27v-27h-766v1419h229v-1392h537z" />
    <glyph glyph-name="lacute" unicode="&#x13a;" horiz-adv-x="444" 
d="M373 1931l-148 -188h-28l145 188h31zM332 0h-221v1602h221v-1602z" />
    <glyph glyph-name="Lcommaaccent" unicode="&#x13b;" horiz-adv-x="888" 
d="M883 27v-27h-766v1419h229v-1392h537zM479 -229q-32 0 -54 21.5t-22 53.5t22 53t54 21t54 -21t22 -53q0 -21 -10 -41l-86 -155l-15 8l68 119q-15 -6 -33 -6z" />
    <glyph glyph-name="lcommaaccent" unicode="&#x13c;" horiz-adv-x="444" 
d="M332 0h-221v1602h221v-1602zM223 -229q-32 0 -54 21.5t-22 53.5t22 53t54 21t54 -21t22 -53q0 -21 -10 -41l-86 -155l-15 8l68 119q-15 -6 -33 -6z" />
    <glyph glyph-name="Lcaron" unicode="&#x13d;" horiz-adv-x="888" 
d="M160 1749h28l113 -168l111 168h28l-139 -209zM883 27v-27h-766v1419h229v-1392h537z" />
    <glyph glyph-name="lcaron" unicode="&#x13e;" horiz-adv-x="444" 
d="M82 1917h29l112 -168l111 168h28l-139 -209zM332 0h-221v1602h221v-1602z" />
    <glyph glyph-name="Lslash" unicode="&#x141;" horiz-adv-x="888" 
d="M23 530l94 68v821h229v-655l174 127v-35l-174 -127v-702h537v-27h-766v563l-94 -67v34z" />
    <glyph glyph-name="lslash" unicode="&#x142;" horiz-adv-x="444" 
d="M332 0h-221v733l-95 -69v34l95 70v834h221v-668l96 72v-35l-96 -72v-899z" />
    <glyph glyph-name="Nacute" unicode="&#x143;" horiz-adv-x="993" 
d="M647 1753l-147 -188h-29l145 188h31zM117 0v1419h235l498 -1333v1333h29v-1419h-236l-498 1329v-1329h-28z" />
    <glyph glyph-name="nacute" unicode="&#x144;" horiz-adv-x="1052" 
d="M676 1397l-148 -189h-28l145 189h31zM729 0v766q0 102 -54.5 172t-139.5 70q-86 0 -143.5 -68t-57.5 -168v-772h-221v1067h221v-174q36 89 113 141.5t180 52.5q141 0 232 -94t91 -239v-754h-221z" />
    <glyph glyph-name="Ncommaaccent" unicode="&#x145;" horiz-adv-x="993" 
d="M117 0v1419h235l498 -1333v1333h29v-1419h-236l-498 1329v-1329h-28zM498 -229q-32 0 -54 21.5t-22 53.5t22 53t54 21t53.5 -21t21.5 -53q0 -21 -10 -41l-86 -155l-14 8l67 119q-15 -6 -32 -6z" />
    <glyph glyph-name="ncommaaccent" unicode="&#x146;" horiz-adv-x="1052" 
d="M729 0v766q0 102 -54.5 172t-139.5 70q-86 0 -143.5 -68t-57.5 -168v-772h-221v1067h221v-174q36 89 113 141.5t180 52.5q141 0 232 -94t91 -239v-754h-221zM528 -229q-33 0 -54 21t-21 54q0 32 20.5 53t54.5 21q31 0 53.5 -21t22.5 -53q0 -26 -14 -43l-82 -153l-14 8
l67 119q-15 -6 -33 -6z" />
    <glyph glyph-name="Ncaron" unicode="&#x147;" horiz-adv-x="993" 
d="M356 1739h29l113 -168l110 168h29l-139 -209zM117 0v1419h235l498 -1333v1333h29v-1419h-236l-498 1329v-1329h-28z" />
    <glyph glyph-name="ncaron" unicode="&#x148;" horiz-adv-x="1052" 
d="M387 1382h29l112 -168l111 168h29l-140 -208zM729 0v766q0 102 -54.5 172t-139.5 70q-86 0 -143.5 -68t-57.5 -168v-772h-221v1067h221v-174q36 89 113 141.5t180 52.5q141 0 232 -94t91 -239v-754h-221z" />
    <glyph glyph-name="Eng" unicode="&#x14a;" horiz-adv-x="993" 
d="M117 0v1419h235l498 -1333v1333h29v-1616q0 -153 -92.5 -252.5t-231.5 -99.5q-141 0 -233.5 99t-92.5 253h222v-14q2 -95 57.5 -157t146.5 -62t143 62t52 171v197h-207l-498 1329v-1329h-28z" />
    <glyph glyph-name="eng" unicode="&#x14b;" horiz-adv-x="1052" 
d="M113 1067h221v-174q36 89 113 141.5t180 52.5q141 0 232 -94t91 -239v-953q0 -149 -100.5 -249.5t-249.5 -100.5q-153 0 -254.5 99t-101.5 253h223q-2 -33 -2 -90q0 -235 133 -235q59 0 95 52t36 159v1077q0 102 -54.5 172t-139.5 70q-86 0 -143.5 -68t-57.5 -168v-772
h-221v1067z" />
    <glyph glyph-name="Omacron" unicode="&#x14c;" horiz-adv-x="1632" 
d="M559 1604v26h514v-26h-514zM817 -20q-157 0 -294.5 54.5t-235.5 150t-154.5 232t-56.5 294.5t56.5 294t154.5 231.5t235.5 149.5t294.5 54q209 0 377.5 -92t265 -259.5t96.5 -377.5q0 -211 -96.5 -378.5t-265 -260t-377.5 -92.5zM817 6q224 0 364 188t140 517
q0 315 -137.5 508.5t-366.5 193.5q-225 0 -365.5 -187t-140.5 -515q0 -316 138 -510.5t368 -194.5z" />
    <glyph glyph-name="omacron" unicode="&#x14d;" horiz-adv-x="1269" 
d="M379 1237v27h512v-27h-512zM635 -20q-160 0 -288.5 70t-202.5 197.5t-74 287.5q0 241 161 396.5t404 155.5t404 -155.5t161 -396.5q0 -160 -74 -287.5t-202.5 -197.5t-288.5 -70zM635 6q150 0 244 140.5t94 388.5q0 235 -92.5 380.5t-245.5 145.5q-151 0 -244.5 -139.5
t-93.5 -386.5q0 -237 92 -383t246 -146z" />
    <glyph glyph-name="Ohungarumlaut" unicode="&#x150;" horiz-adv-x="1632" 
d="M938 1749l-229 -188h-35l227 188h37zM1143 1749l-230 -188h-34l227 188h37zM817 -20q-157 0 -294.5 54.5t-235.5 150t-154.5 232t-56.5 294.5t56.5 294t154.5 231.5t235.5 149.5t294.5 54q209 0 377.5 -92t265 -259.5t96.5 -377.5q0 -211 -96.5 -378.5t-265 -260
t-377.5 -92.5zM817 6q224 0 364 188t140 517q0 315 -137.5 508.5t-366.5 193.5q-225 0 -365.5 -187t-140.5 -515q0 -316 138 -510.5t368 -194.5z" />
    <glyph glyph-name="ohungarumlaut" unicode="&#x151;" horiz-adv-x="1269" 
d="M756 1382l-230 -188h-34l227 188h37zM961 1382l-230 -188h-35l228 188h37zM635 -20q-160 0 -288.5 70t-202.5 197.5t-74 287.5q0 241 161 396.5t404 155.5t404 -155.5t161 -396.5q0 -160 -74 -287.5t-202.5 -197.5t-288.5 -70zM635 6q150 0 244 140.5t94 388.5
q0 235 -92.5 380.5t-245.5 145.5q-151 0 -244.5 -139.5t-93.5 -386.5q0 -237 92 -383t246 -146z" />
    <glyph glyph-name="OE" unicode="&#x152;" horiz-adv-x="1605" 
d="M831 1393q-234 0 -377 -181.5t-143 -500.5q0 -308 140.5 -496t379.5 -188v1366zM76 711q0 205 97 367t269 251.5t389 89.5h709v-26h-479v-670h416v-27h-416v-669h479v-27h-709q-217 0 -389 90.5t-269 253t-97 367.5z" />
    <glyph glyph-name="oe" unicode="&#x153;" horiz-adv-x="2150" 
d="M635 -20q-160 0 -288.5 70t-202.5 197.5t-74 287.5q0 241 161 396.5t404 155.5q143 0 261 -62.5t191 -172.5q71 110 189.5 172.5t261.5 62.5q198 0 346 -107t195 -284h-867q-12 -73 -12 -161q0 -237 92 -383t246 -146q122 0 209.5 97t116.5 274h217
q-50 -180 -197.5 -288.5t-345.5 -108.5q-143 0 -261.5 62.5t-191.5 172.5q-71 -110 -189 -172.5t-261 -62.5zM635 6q150 0 244 140.5t94 388.5q0 235 -92.5 380.5t-245.5 145.5q-151 0 -244.5 -139.5t-93.5 -386.5q0 -237 92 -383t246 -146zM1538 1061q-118 0 -203 -88
t-118 -250h638q-15 68 -42 126.5t-65.5 107t-92.5 76.5t-117 28z" />
    <glyph glyph-name="Racute" unicode="&#x154;" horiz-adv-x="1071" 
d="M657 1763l-147 -188h-29l146 188h30zM117 0v1419h463q169 0 281 -103.5t112 -262.5q0 -131 -79.5 -224.5t-209.5 -121.5l336 -707h-236l-319 694h-119v-694h-229zM455 1393h-109v-672h109q128 0 206 94.5t78 237.5q0 145 -78 242.5t-206 97.5z" />
    <glyph glyph-name="racute" unicode="&#x155;" horiz-adv-x="888" 
d="M735 1397l-147 -189h-29l146 189h30zM113 1067h221v-152q31 81 96.5 126.5t153.5 45.5q123 0 200.5 -82t77.5 -214h-225q0 96 -43.5 157.5t-108.5 61.5t-108 -61t-43 -158v-791h-221v1067z" />
    <glyph glyph-name="Rcommaaccent" unicode="&#x156;" horiz-adv-x="1071" 
d="M117 0v1419h463q169 0 281 -103.5t112 -262.5q0 -131 -79.5 -224.5t-209.5 -121.5l336 -707h-236l-319 694h-119v-694h-229zM455 1393h-109v-672h109q128 0 206 94.5t78 237.5q0 145 -78 242.5t-206 97.5zM510 -229q-34 0 -56 21.5t-22 53.5t22 53t56 21q31 0 52.5 -21
t21.5 -53q0 -19 -11 -41l-86 -155l-14 8l66 119q-12 -6 -29 -6z" />
    <glyph glyph-name="rcommaaccent" unicode="&#x157;" horiz-adv-x="888" 
d="M113 1067h221v-152q31 81 96.5 126.5t153.5 45.5q123 0 200.5 -82t77.5 -214h-225q0 96 -43.5 157.5t-108.5 61.5t-108 -61t-43 -158v-791h-221v1067zM299 -229q-32 0 -54 21.5t-22 53.5t22 53t54 21t54 -21t22 -53q0 -21 -10 -41l-86 -155l-15 8l68 119q-15 -6 -33 -6z
" />
    <glyph glyph-name="Rcaron" unicode="&#x158;" horiz-adv-x="1071" 
d="M367 1749h28l113 -168l110 168h29l-139 -209zM117 0v1419h463q169 0 281 -103.5t112 -262.5q0 -131 -79.5 -224.5t-209.5 -121.5l336 -707h-236l-319 694h-119v-694h-229zM455 1393h-109v-672h109q128 0 206 94.5t78 237.5q0 145 -78 242.5t-206 97.5z" />
    <glyph glyph-name="rcaron" unicode="&#x159;" horiz-adv-x="888" 
d="M444 1382h29l113 -168l110 168h29l-139 -208zM113 1067h221v-152q31 81 96.5 126.5t153.5 45.5q123 0 200.5 -82t77.5 -214h-225q0 96 -43.5 157.5t-108.5 61.5t-108 -61t-43 -158v-791h-221v1067z" />
    <glyph glyph-name="Sacute" unicode="&#x15a;" horiz-adv-x="886" 
d="M604 1763l-147 -188h-29l145 188h31zM59 319h234q0 -12 -1 -44t-1 -48q0 -108 45.5 -163.5t120.5 -55.5q67 0 115.5 52t48.5 163q0 47 -14.5 94.5t-34 85t-56.5 85t-64.5 78t-74.5 79.5q-43 43 -61 62t-55.5 60.5t-55.5 66.5t-44.5 65.5t-39 73t-22 73.5t-9.5 82
q0 96 53.5 169t136.5 108t179 35q152 0 255 -95t103 -235h-219q0 11 1 38.5t1 41.5q0 221 -149 221q-65 0 -107.5 -47t-42.5 -156q0 -55 18 -108t57 -108.5t71 -93t90 -99.5q6 -6 18 -19q53 -56 81 -86.5t71 -85t64.5 -95t38.5 -94.5t17 -106q0 -101 -54 -178t-140.5 -116
t-188.5 -39q-164 0 -274.5 96.5t-110.5 242.5z" />
    <glyph glyph-name="sacute" unicode="&#x15b;" horiz-adv-x="835" 
d="M567 1397l-147 -189h-29l146 189h30zM66 283h223q-2 -20 -2 -74q0 -91 36.5 -147t108.5 -56q58 0 97.5 44t39.5 136q0 23 -4.5 44.5t-9 38.5t-17.5 35.5t-20.5 30t-27 28t-28 24t-33 23t-32.5 20.5t-36.5 21t-34.5 20q-51 28 -87.5 54.5t-76 66.5t-60.5 92t-20 113
q0 136 88 213t242 77q142 0 238.5 -85t94.5 -207h-221q4 40 4 69q0 197 -127 197q-59 0 -88.5 -47.5t-31.5 -126.5q0 -31 7.5 -59t17 -48.5t30.5 -42.5t35 -34.5t44.5 -31t45 -26.5t49.5 -27q58 -30 99 -58t80.5 -68.5t59.5 -93t19 -115.5q0 -140 -94 -221.5t-256 -81.5
q-149 0 -251.5 88.5t-100.5 214.5z" />
    <glyph glyph-name="Scedilla" unicode="&#x15e;" horiz-adv-x="886" 
d="M59 319h234q0 -12 -1 -44t-1 -48q0 -108 45.5 -163.5t120.5 -55.5q67 0 115.5 52t48.5 163q0 47 -14.5 94.5t-34 85t-56.5 85t-64.5 78t-74.5 79.5q-43 43 -61 62t-55.5 60.5t-55.5 66.5t-44.5 65.5t-39 73t-22 73.5t-9.5 82q0 96 53.5 169t136.5 108t179 35
q152 0 255 -95t103 -235h-219q0 11 1 38.5t1 41.5q0 221 -149 221q-65 0 -107.5 -47t-42.5 -156q0 -55 18 -108t57 -108.5t71 -93t90 -99.5q6 -6 18 -19q53 -56 81 -86.5t71 -85t64.5 -95t38.5 -94.5t17 -106q0 -137 -95 -226t-236 -105l-29 -52q115 -62 115 -182
q0 -75 -54 -131t-143 -59l-2 4q63 53 63 127q0 81 -75 133l94 158h-21q-164 0 -274.5 96.5t-110.5 242.5z" />
    <glyph glyph-name="scedilla" unicode="&#x15f;" horiz-adv-x="835" 
d="M66 283h223q-2 -20 -2 -74q0 -91 36.5 -147t108.5 -56q58 0 97.5 44t39.5 136q0 23 -4.5 44.5t-9 38.5t-17.5 35.5t-20.5 30t-27 28t-28 24t-33 23t-32.5 20.5t-36.5 21t-34.5 20q-51 28 -87.5 54.5t-76 66.5t-60.5 92t-20 113q0 136 88 213t242 77q142 0 238.5 -85
t94.5 -207h-221q4 40 4 69q0 197 -127 197q-59 0 -88.5 -47.5t-31.5 -126.5q0 -31 7.5 -59t17 -48.5t30.5 -42.5t35 -34.5t44.5 -31t45 -26.5t49.5 -27q58 -30 99 -58t80.5 -68.5t59.5 -93t19 -115.5q0 -131 -82.5 -211.5t-226.5 -89.5l-29 -52q115 -64 115 -182
q0 -75 -54 -131t-143 -59l-2 4q62 52 62 127q0 82 -74 133l94 158h-10q-149 0 -251.5 88.5t-100.5 214.5z" />
    <glyph glyph-name="Scaron" unicode="&#x160;" horiz-adv-x="886" 
d="M313 1749h29l113 -168l110 168h29l-139 -209zM59 319h234q0 -12 -1 -44t-1 -48q0 -108 45.5 -163.5t120.5 -55.5q67 0 115.5 52t48.5 163q0 47 -14.5 94.5t-34 85t-56.5 85t-64.5 78t-74.5 79.5q-43 43 -61 62t-55.5 60.5t-55.5 66.5t-44.5 65.5t-39 73t-22 73.5t-9.5 82
q0 96 53.5 169t136.5 108t179 35q152 0 255 -95t103 -235h-219q0 11 1 38.5t1 41.5q0 221 -149 221q-65 0 -107.5 -47t-42.5 -156q0 -55 18 -108t57 -108.5t71 -93t90 -99.5q6 -6 18 -19q53 -56 81 -86.5t71 -85t64.5 -95t38.5 -94.5t17 -106q0 -101 -54 -178t-140.5 -116
t-188.5 -39q-164 0 -274.5 96.5t-110.5 242.5z" />
    <glyph glyph-name="scaron" unicode="&#x161;" horiz-adv-x="835" 
d="M276 1382h29l113 -168l110 168h29l-139 -208zM66 283h223q-2 -20 -2 -74q0 -91 36.5 -147t108.5 -56q58 0 97.5 44t39.5 136q0 23 -4.5 44.5t-9 38.5t-17.5 35.5t-20.5 30t-27 28t-28 24t-33 23t-32.5 20.5t-36.5 21t-34.5 20q-51 28 -87.5 54.5t-76 66.5t-60.5 92
t-20 113q0 136 88 213t242 77q142 0 238.5 -85t94.5 -207h-221q4 40 4 69q0 197 -127 197q-59 0 -88.5 -47.5t-31.5 -126.5q0 -31 7.5 -59t17 -48.5t30.5 -42.5t35 -34.5t44.5 -31t45 -26.5t49.5 -27q58 -30 99 -58t80.5 -68.5t59.5 -93t19 -115.5q0 -140 -94 -221.5
t-256 -81.5q-149 0 -251.5 88.5t-100.5 214.5z" />
    <glyph glyph-name="Tcedilla" unicode="&#x162;" horiz-adv-x="880" 
d="M326 0v1393h-326v26h881v-26h-326v-1393h-84l14 -10l-32 -60q116 -63 116 -182q0 -75 -54.5 -131t-143.5 -59l-2 4q63 53 63 127q0 81 -76 133l107 178h-137z" />
    <glyph glyph-name="tcedilla" unicode="&#x163;" horiz-adv-x="577" 
d="M399 0h-80l15 -10l-33 -60q117 -63 117 -182q0 -75 -55 -131t-144 -59l-2 4q64 54 64 127q0 81 -76 133l106 178h-133v1040h-119v27h119v268h221v-268h121v-27h-121v-1040z" />
    <glyph glyph-name="Tcaron" unicode="&#x164;" horiz-adv-x="880" 
d="M299 1749h29l112 -168l111 168h29l-140 -209zM326 0v1393h-326v26h881v-26h-326v-1393h-229z" />
    <glyph glyph-name="tcaron" unicode="&#x165;" horiz-adv-x="577" 
d="M147 1647h29l113 -168l110 168h29l-139 -209zM399 0h-221v1040h-119v27h119v268h221v-268h121v-27h-121v-1040z" />
    <glyph glyph-name="Tbar" unicode="&#x166;" horiz-adv-x="880" 
d="M326 0v721h-127v27h127v645h-326v26h881v-26h-326v-645h127v-27h-127v-721h-229z" />
    <glyph glyph-name="tbar" unicode="&#x167;" horiz-adv-x="1001" 
d="M399 0h-221v748h-119v26h119v266h-119v27h119v268h221v-268h121v-27h-121v-266h60v-26h-60v-748z" />
    <glyph glyph-name="Umacron" unicode="&#x16a;" horiz-adv-x="1026" 
d="M399 1604v26h369v-26h-369zM340 1419v-1005q0 -165 72.5 -268t203.5 -103q125 0 201 104t76 267v1005h29v-1005q0 -200 -111.5 -317t-292.5 -117q-183 0 -297.5 116.5t-114.5 317.5v1005h234z" />
    <glyph glyph-name="umacron" unicode="&#x16b;" horiz-adv-x="1058" 
d="M338 1237v27h369v-27h-369zM946 0h-221v174q-36 -89 -114 -141.5t-181 -52.5q-143 0 -235.5 94.5t-92.5 240.5v752h222v-772q0 -101 55.5 -168.5t140.5 -67.5q87 0 146 68t59 168v772h221v-1067z" />
    <glyph glyph-name="Uring" unicode="&#x16e;" horiz-adv-x="1026" 
d="M584 1544q-49 0 -81 32.5t-32 82.5q0 47 32 78.5t81 31.5q45 0 78.5 -32t33.5 -78q0 -49 -33.5 -82t-78.5 -33zM584 1569q36 0 62 26t26 64q0 36 -26 61t-62 25q-38 0 -63 -24.5t-25 -61.5q0 -38 25 -64t63 -26zM340 1419v-1005q0 -165 72.5 -268t203.5 -103
q125 0 201 104t76 267v1005h29v-1005q0 -200 -111.5 -317t-292.5 -117q-183 0 -297.5 116.5t-114.5 317.5v1005h234z" />
    <glyph glyph-name="uring" unicode="&#x16f;" horiz-adv-x="1058" 
d="M522 1178q-49 0 -80.5 32t-31.5 82q0 48 31.5 79.5t80.5 31.5q45 0 79 -32.5t34 -78.5q0 -48 -34 -81t-79 -33zM522 1202q36 0 62 26t26 64q0 36 -26 61t-62 25q-38 0 -63 -24.5t-25 -61.5q0 -38 25 -64t63 -26zM946 0h-221v174q-36 -89 -114 -141.5t-181 -52.5
q-143 0 -235.5 94.5t-92.5 240.5v752h222v-772q0 -101 55.5 -168.5t140.5 -67.5q87 0 146 68t59 168v772h221v-1067z" />
    <glyph glyph-name="Uhungarumlaut" unicode="&#x170;" horiz-adv-x="1026" 
d="M670 1749l-148 -188h-28l145 188h31zM813 1749l-147 -188h-29l145 188h31zM340 1419v-1005q0 -165 72.5 -268t203.5 -103q125 0 201 104t76 267v1005h29v-1005q0 -200 -111.5 -317t-292.5 -117q-183 0 -297.5 116.5t-114.5 317.5v1005h234z" />
    <glyph glyph-name="uhungarumlaut" unicode="&#x171;" horiz-adv-x="1058" 
d="M608 1382l-147 -188h-29l146 188h30zM752 1382l-148 -188h-29l146 188h31zM946 0h-221v174q-36 -89 -114 -141.5t-181 -52.5q-143 0 -235.5 94.5t-92.5 240.5v752h222v-772q0 -101 55.5 -168.5t140.5 -67.5q87 0 146 68t59 168v772h221v-1067z" />
    <glyph glyph-name="Uogonek" unicode="&#x172;" horiz-adv-x="1038" 
d="M666 -240v-192q-92 0 -157 65t-65 156q0 61 30 112t79 81q-12 -2 -35 -2q-183 0 -297.5 116.5t-114.5 317.5v1005h234v-1005q0 -165 72.5 -268t203.5 -103q127 0 203 103.5t76 267.5v1005h27v-1005q0 -162 -74.5 -271.5t-204.5 -146.5q-44 -11 -71 -42t-27 -73
q0 -49 35.5 -85t85.5 -36z" />
    <glyph glyph-name="uogonek" unicode="&#x173;" horiz-adv-x="1058" 
d="M950 -238v-194q-92 0 -156.5 65t-64.5 156q0 72 41.5 129.5t106.5 81.5h-152v174q-36 -89 -114 -141.5t-181 -52.5q-143 0 -235.5 94.5t-92.5 240.5v752h222v-772q0 -101 55.5 -168.5t140.5 -67.5q87 0 146 68t59 168v772h221v-1067q-51 -6 -84 -39t-33 -80
q0 -49 35.5 -84t85.5 -35z" />
    <glyph glyph-name="Wcircumflex" unicode="&#x174;" horiz-adv-x="1480" 
d="M541 1561l229 208l229 -208h-41l-188 168l-188 -168h-41zM72 1419h221l305 -1374l139 594l-174 780h221l88 -399l93 399h28l-106 -461l203 -909l319 1370h29l-332 -1419h-227l-127 575l-136 -575h-229z" />
    <glyph glyph-name="wcircumflex" unicode="&#x175;" horiz-adv-x="1355" 
d="M449 1194l229 209l229 -209h-41l-188 168l-189 -168h-40zM43 1067h219l291 -1024l109 389l-181 635h219l97 -336l94 336h29l-109 -391l180 -633l287 1024h31l-299 -1067h-226l-106 377l-107 -377h-225z" />
    <glyph glyph-name="Ycircumflex" unicode="&#x176;" horiz-adv-x="894" 
d="M342 1561l141 208l140 -208h-29l-111 168l-112 -168h-29zM358 0v498l-292 921h233l274 -868l250 868h29l-262 -921v-498h-232z" />
    <glyph glyph-name="ycircumflex" unicode="&#x177;" horiz-adv-x="903" 
d="M389 1194l141 209l140 -209h-29l-111 168l-112 -168h-29zM43 1067h227l295 -774l260 774h29l-535 -1595h-28l172 516z" />
    <glyph glyph-name="Ydieresis" unicode="&#x178;" horiz-adv-x="894" 
d="M338 1593q-34 0 -55 22t-21 56q0 31 21.5 52.5t54.5 21.5q30 0 53 -22t23 -52q0 -33 -23 -55.5t-53 -22.5zM629 1593q-34 0 -55 22t-21 56q0 31 21.5 52.5t54.5 21.5q30 0 53 -22t23 -52q0 -33 -23 -55.5t-53 -22.5zM358 0v498l-292 921h233l274 -868l250 868h29
l-262 -921v-498h-232z" />
    <glyph glyph-name="Zacute" unicode="&#x179;" horiz-adv-x="894" 
d="M606 1763l-147 -188h-29l145 188h31zM801 0h-750v4l539 1389h-465v26h721v-6l-543 -1386h498v-27z" />
    <glyph glyph-name="zacute" unicode="&#x17a;" horiz-adv-x="919" 
d="M610 1397l-147 -189h-29l146 189h30zM844 0h-787v4l559 1036h-499v27h745v-4l-559 -1036h541v-27z" />
    <glyph glyph-name="Zdotaccent" unicode="&#x17b;" horiz-adv-x="894" 
d="M457 1593q-32 0 -54 22t-22 56q0 31 22 52.5t54 21.5q31 0 53 -21.5t22 -52.5q0 -33 -22 -55.5t-53 -22.5zM801 0h-750v4l539 1389h-465v26h721v-6l-543 -1386h498v-27z" />
    <glyph glyph-name="zdotaccent" unicode="&#x17c;" horiz-adv-x="919" 
d="M461 1227q-32 0 -54 22t-22 56q0 31 22 52t54 21q31 0 53.5 -21.5t22.5 -51.5q0 -33 -22.5 -55.5t-53.5 -22.5zM844 0h-787v4l559 1036h-499v27h745v-4l-559 -1036h541v-27z" />
    <glyph glyph-name="Zcaron" unicode="&#x17d;" horiz-adv-x="894" 
d="M315 1749h29l113 -168l110 168h29l-139 -209zM801 0h-750v4l539 1389h-465v26h721v-6l-543 -1386h498v-27z" />
    <glyph glyph-name="zcaron" unicode="&#x17e;" horiz-adv-x="919" 
d="M319 1382h29l113 -168l110 168h29l-139 -208zM844 0h-787v4l559 1036h-499v27h745v-4l-559 -1036h541v-27z" />
    <glyph glyph-name="LJ" unicode="&#x1c7;" horiz-adv-x="1441" 
d="M1329 27v-27h-1212v1419h229v-1392h983zM539 621h231q-2 -27 -2 -80q0 -129 43 -206t123 -77q84 0 124 97t40 266v798h231v-798q0 -181 -111.5 -285.5t-283.5 -104.5q-174 0 -284.5 104.5t-110.5 285.5z" />
    <glyph glyph-name="Scommaaccent" unicode="&#x218;" horiz-adv-x="886" 
d="M59 319h234q0 -12 -1 -44t-1 -48q0 -108 45.5 -163.5t120.5 -55.5q67 0 115.5 52t48.5 163q0 47 -14.5 94.5t-34 85t-56.5 85t-64.5 78t-74.5 79.5q-43 43 -61 62t-55.5 60.5t-55.5 66.5t-44.5 65.5t-39 73t-22 73.5t-9.5 82q0 96 53.5 169t136.5 108t179 35
q152 0 255 -95t103 -235h-219q0 11 1 38.5t1 41.5q0 221 -149 221q-65 0 -107.5 -47t-42.5 -156q0 -55 18 -108t57 -108.5t71 -93t90 -99.5q6 -6 18 -19q53 -56 81 -86.5t71 -85t64.5 -95t38.5 -94.5t17 -106q0 -101 -54 -178t-140.5 -116t-188.5 -39q-164 0 -274.5 96.5
t-110.5 242.5zM457 -229q-34 0 -56 21.5t-22 53.5t22 53t56 21q31 0 52 -21t21 -53q0 -21 -10 -41l-86 -155l-14 8l65 119q-12 -6 -28 -6z" />
    <glyph glyph-name="scommaaccent" unicode="&#x219;" horiz-adv-x="835" 
d="M66 283h223q-2 -20 -2 -74q0 -91 36.5 -147t108.5 -56q58 0 97.5 44t39.5 136q0 23 -4.5 44.5t-9 38.5t-17.5 35.5t-20.5 30t-27 28t-28 24t-33 23t-32.5 20.5t-36.5 21t-34.5 20q-51 28 -87.5 54.5t-76 66.5t-60.5 92t-20 113q0 136 88 213t242 77q142 0 238.5 -85
t94.5 -207h-221q4 40 4 69q0 197 -127 197q-59 0 -88.5 -47.5t-31.5 -126.5q0 -31 7.5 -59t17 -48.5t30.5 -42.5t35 -34.5t44.5 -31t45 -26.5t49.5 -27q58 -30 99 -58t80.5 -68.5t59.5 -93t19 -115.5q0 -140 -94 -221.5t-256 -81.5q-149 0 -251.5 88.5t-100.5 214.5z
M418 -229q-32 0 -54 21.5t-22 53.5t22 53t54 21t54 -21t22 -53q0 -19 -11 -41l-86 -155l-14 8l68 119q-15 -6 -33 -6z" />
    <glyph glyph-name="Tcommaaccent" unicode="&#x21a;" horiz-adv-x="880" 
d="M326 0v1393h-326v26h881v-26h-326v-1393h-229zM442 -229q-34 0 -55.5 21.5t-21.5 53.5t21.5 53t55.5 21q31 0 52.5 -21t21.5 -53q0 -21 -10 -41l-86 -155l-12 8l67 121q-13 -8 -33 -8z" />
    <glyph glyph-name="tcommaaccent" unicode="&#x21b;" horiz-adv-x="577" 
d="M399 0h-221v1040h-119v27h119v268h221v-268h121v-27h-121v-1040zM291 -229q-34 0 -56 21.5t-22 53.5t22 53t56 21q31 0 52.5 -21t21.5 -53q0 -19 -11 -41l-86 -155l-12 8l68 121q-13 -8 -33 -8z" />
    <glyph glyph-name="circumflex" unicode="&#x2c6;" horiz-adv-x="321" 
d="M162 1317l139 -209h-29l-110 168l-113 -168h-29z" />
    <glyph glyph-name="caron" unicode="&#x2c7;" horiz-adv-x="321" 
d="M49 1296l113 -168l110 168h29l-139 -209l-142 209h29z" />
    <glyph glyph-name="breve" unicode="&#x2d8;" horiz-adv-x="444" 
d="M49 1296q0 -79 46 -130.5t128 -51.5t127 51t45 131h29q0 -89 -52.5 -149t-148.5 -60q-97 0 -150 60.5t-53 148.5h29z" />
    <glyph glyph-name="dotaccent" unicode="&#x2d9;" horiz-adv-x="307" 
d="M156 1184q-34 0 -55 22t-21 56q0 31 21.5 52t54.5 21q30 0 52.5 -21.5t22.5 -51.5q0 -33 -22.5 -55.5t-52.5 -22.5z" />
    <glyph glyph-name="ring" unicode="&#x2da;" horiz-adv-x="266" 
d="M133 1087q-49 0 -81 32.5t-32 82.5q0 48 32 79.5t81 31.5q45 0 79 -32.5t34 -78.5q0 -48 -34 -81.5t-79 -33.5zM133 1112q36 0 62 26t26 64q0 36 -26 61t-62 25q-38 0 -63 -24.5t-25 -61.5q0 -38 25 -64t63 -26z" />
    <glyph glyph-name="ogonek" unicode="&#x2db;" horiz-adv-x="264" 
d="M242 -211v-192q-92 0 -157 65t-65 156t63 155t148 66l7 -12q-51 -5 -84 -37.5t-33 -79.5q0 -51 35.5 -86t85.5 -35z" />
    <glyph glyph-name="tilde" unicode="&#x2dc;" horiz-adv-x="466" 
d="M225 1200q-15 51 -88 51q-41 0 -66.5 -25.5t-25.5 -64.5h-25q0 50 32.5 82.5t84.5 32.5q30 0 57.5 -16t44.5 -35t41.5 -35t49.5 -16q41 0 66.5 25.5t25.5 64.5h24q0 -50 -32 -82.5t-84 -32.5q-90 0 -105 51z" />
    <glyph glyph-name="hungarumlaut" unicode="&#x2dd;" horiz-adv-x="360" 
d="M49 1108h-29l146 188h31zM193 1108h-29l145 188h31z" />
    <glyph glyph-name="gravecomb" unicode="&#x300;" horiz-adv-x="122" 
d="M-16 1354l145 -189h-29l-147 189h31z" />
    <glyph glyph-name="acutecomb" unicode="&#x301;" horiz-adv-x="116" 
d="M-18 1165h-29l145 189h31z" />
    <glyph glyph-name="circumflexcomb" unicode="&#x302;" horiz-adv-x="321" 
d="M162 1317l139 -209h-29l-110 168l-113 -168h-29z" />
    <glyph glyph-name="tildecomb" unicode="&#x303;" horiz-adv-x="466" 
d="M225 1200q-15 51 -88 51q-41 0 -66.5 -25.5t-25.5 -64.5h-25q0 50 32.5 82.5t84.5 32.5q30 0 57.5 -16t44.5 -35t41.5 -35t49.5 -16q41 0 66.5 25.5t25.5 64.5h24q0 -50 -32 -82.5t-84 -32.5q-90 0 -105 51z" />
    <glyph glyph-name="macroncomb" unicode="&#x304;" horiz-adv-x="409" 
d="M20 1184v26h369v-26h-369z" />
    <glyph glyph-name="brevecomb" unicode="&#x306;" horiz-adv-x="444" 
d="M49 1296q0 -79 46 -130.5t128 -51.5t127 51t45 131h29q0 -89 -52.5 -149t-148.5 -60q-97 0 -150 60.5t-53 148.5h29z" />
    <glyph glyph-name="dotaccentcomb" unicode="&#x307;" horiz-adv-x="307" 
d="M156 1184q-34 0 -55 22t-21 56q0 31 21.5 52t54.5 21q30 0 52.5 -21.5t22.5 -51.5q0 -33 -22.5 -55.5t-52.5 -22.5z" />
    <glyph glyph-name="dieresiscomb" unicode="&#x308;" horiz-adv-x="712" 
d="M96 1184q-32 0 -54 22t-22 56q0 31 22 52t54 21q31 0 53.5 -21.5t22.5 -51.5q0 -33 -22.5 -55.5t-53.5 -22.5zM387 1184q-32 0 -54 22t-22 56q0 31 22 52t54 21q31 0 53.5 -21.5t22.5 -51.5q0 -33 -22.5 -55.5t-53.5 -22.5z" />
    <glyph glyph-name="ringcomb" unicode="&#x30a;" horiz-adv-x="266" 
d="M133 1087q-49 0 -81 32.5t-32 82.5q0 48 32 79.5t81 31.5q45 0 79 -32.5t34 -78.5q0 -48 -34 -81.5t-79 -33.5zM133 1112q36 0 62 26t26 64q0 36 -26 61t-62 25q-38 0 -63 -24.5t-25 -61.5q0 -38 25 -64t63 -26z" />
    <glyph glyph-name="hungarumlautcomb" unicode="&#x30b;" horiz-adv-x="360" 
d="M49 1108h-29l146 188h31zM193 1108h-29l145 188h31z" />
    <glyph glyph-name="caroncomb" unicode="&#x30c;" horiz-adv-x="321" 
d="M49 1296l113 -168l110 168h29l-139 -209l-142 209h29z" />
    <glyph glyph-name="commaturnedabovecomb" unicode="&#x312;" horiz-adv-x="192" 
d="M96 1237q32 0 54 -22t22 -54t-22 -53t-54 -21t-54 21t-22 53q0 19 11 41l86 156l14 -8l-68 -119q15 6 33 6z" />
    <glyph glyph-name="commaaccentcomb" unicode="&#x326;" horiz-adv-x="192" 
d="M96 -229q-32 0 -54 21.5t-22 53.5t22 53t54 21t54 -21t22 -53q0 -21 -10 -41l-86 -155l-15 8l68 119q-15 -6 -33 -6z" />
    <glyph glyph-name="cedillacomb" unicode="&#x327;" horiz-adv-x="1228" 
d="M424 -442l-2 4q61 52 61 127q0 83 -73 133l108 182l21 -14l-33 -60q115 -64 115 -182q0 -75 -54 -131t-143 -59z" />
    <glyph glyph-name="ogonekcomb" unicode="&#x328;" horiz-adv-x="264" 
d="M242 -211v-192q-92 0 -157 65t-65 156t63 155t148 66l7 -12q-51 -5 -84 -37.5t-33 -79.5q0 -51 35.5 -86t85.5 -35z" />
    <glyph glyph-name="Wgrave" unicode="&#x1e80;" horiz-adv-x="1480" 
d="M555 1763h37l227 -188h-37zM72 1419h221l305 -1374l139 594l-174 780h221l88 -399l93 399h28l-106 -461l203 -909l319 1370h29l-332 -1419h-227l-127 575l-136 -575h-229z" />
    <glyph glyph-name="wgrave" unicode="&#x1e81;" horiz-adv-x="1355" 
d="M461 1397h37l227 -189h-37zM43 1067h219l291 -1024l109 389l-181 635h219l97 -336l94 336h29l-109 -391l180 -633l287 1024h31l-299 -1067h-226l-106 377l-107 -377h-225z" />
    <glyph glyph-name="Wacute" unicode="&#x1e82;" horiz-adv-x="1480" 
d="M987 1763l-227 -188h-37l227 188h37zM72 1419h221l305 -1374l139 594l-174 780h221l88 -399l93 399h28l-106 -461l203 -909l319 1370h29l-332 -1419h-227l-127 575l-136 -575h-229z" />
    <glyph glyph-name="wacute" unicode="&#x1e83;" horiz-adv-x="1355" 
d="M895 1397l-227 -189h-37l227 189h37zM43 1067h219l291 -1024l109 389l-181 635h219l97 -336l94 336h29l-109 -391l180 -633l287 1024h31l-299 -1067h-226l-106 377l-107 -377h-225z" />
    <glyph glyph-name="Wdieresis" unicode="&#x1e84;" horiz-adv-x="1480" 
d="M578 1593q-32 0 -54 22t-22 56q0 31 22 52.5t54 21.5q31 0 53 -21.5t22 -52.5q0 -33 -22 -55.5t-53 -22.5zM963 1593q-32 0 -54 22t-22 56q0 31 22 52.5t54 21.5q31 0 53 -21.5t22 -52.5q0 -33 -22 -55.5t-53 -22.5zM72 1419h221l305 -1374l139 594l-174 780h221l88 -399
l93 399h28l-106 -461l203 -909l319 1370h29l-332 -1419h-227l-127 575l-136 -575h-229z" />
    <glyph glyph-name="wdieresis" unicode="&#x1e85;" horiz-adv-x="1355" 
d="M485 1227q-33 0 -54 22t-21 56q0 31 21 52t54 21q31 0 53.5 -21.5t22.5 -51.5q0 -33 -22.5 -55.5t-53.5 -22.5zM870 1227q-33 0 -54 22t-21 56q0 31 21 52t54 21q31 0 53.5 -21.5t22.5 -51.5q0 -33 -22.5 -55.5t-53.5 -22.5zM43 1067h219l291 -1024l109 389l-181 635h219
l97 -336l94 336h29l-109 -391l180 -633l287 1024h31l-299 -1067h-226l-106 377l-107 -377h-225z" />
    <glyph glyph-name="Germandbls" unicode="&#x1e9e;" horiz-adv-x="1216" 
d="M584 0v27q147 0 234 117.5t87 314.5t-87 314.5t-234 117.5h-2v4l297 588q-110 98 -254 98q-137 0 -212 -99t-75 -261v-1221h-221v1116q0 230 132 368t339 138q151 0 266 -86t174 -223l-221 -432q146 -50 237 -159t91 -263q0 -206 -155.5 -332.5t-395.5 -126.5z" />
    <glyph glyph-name="Ygrave" unicode="&#x1ef2;" horiz-adv-x="894" 
d="M334 1763h31l145 -188h-29zM358 0v498l-292 921h233l274 -868l250 868h29l-262 -921v-498h-232z" />
    <glyph glyph-name="ygrave" unicode="&#x1ef3;" horiz-adv-x="903" 
d="M381 1397h31l145 -189h-29zM43 1067h227l295 -774l260 774h29l-535 -1595h-28l172 516z" />
    <glyph glyph-name="endash" unicode="&#x2013;" horiz-adv-x="1042" 
d="M102 528v27h838v-27h-838z" />
    <glyph glyph-name="emdash" unicode="&#x2014;" horiz-adv-x="1529" 
d="M102 528v27h1325v-27h-1325z" />
    <glyph glyph-name="quoteleft" unicode="&#x2018;" horiz-adv-x="331" 
d="M164 1413q58 0 95.5 -37.5t37.5 -93.5t-37.5 -93.5t-95.5 -37.5q-54 0 -91.5 38t-37.5 93q0 40 18 70l148 270l24 -16l-112 -203q23 10 51 10z" />
    <glyph glyph-name="quoteright" unicode="&#x2019;" horiz-adv-x="331" 
d="M106 1167l113 203q-27 -10 -53 -10q-57 0 -94 37.5t-37 93.5t37 93.5t94 37.5q56 0 93.5 -38t37.5 -93q0 -42 -25 -78l-141 -262z" />
    <glyph glyph-name="quotesinglbase" unicode="&#x201a;" horiz-adv-x="305" 
d="M166 -20q-57 0 -94 37.5t-37 93.5t37 93.5t94 37.5q56 0 93.5 -38t37.5 -93q0 -47 -25 -78l-141 -260l-25 14l113 203q-27 -10 -53 -10z" />
    <glyph glyph-name="quotedblleft" unicode="&#x201c;" horiz-adv-x="618" 
d="M164 1413q58 0 95.5 -37.5t37.5 -93.5t-37.5 -93.5t-95.5 -37.5q-54 0 -91.5 38t-37.5 93q0 40 18 70l148 270l24 -16l-112 -203q23 10 51 10zM451 1413q57 0 94 -37.5t37 -93.5t-37 -93.5t-94 -37.5q-54 0 -91.5 38t-37.5 93q0 40 18 70l147 270l25 -16l-115 -205
q24 12 54 12z" />
    <glyph glyph-name="quotedblright" unicode="&#x201d;" horiz-adv-x="618" 
d="M393 1167l113 205q-24 -12 -53 -12q-57 0 -94 37.5t-37 93.5t37 93.5t94 37.5q55 0 92 -37.5t37 -93.5q0 -38 -19 -70l-147 -270zM106 1167l113 203q-27 -10 -53 -10q-57 0 -94 37.5t-37 93.5t37 93.5t94 37.5q56 0 93.5 -38t37.5 -93q0 -42 -25 -78l-141 -262z" />
    <glyph glyph-name="quotedblbase" unicode="&#x201e;" horiz-adv-x="305" 
d="M166 -20q-57 0 -94 37.5t-37 93.5t37 93.5t94 37.5q56 0 93.5 -38t37.5 -93q0 -47 -25 -78l-141 -260l-25 14l113 203q-27 -10 -53 -10z" />
    <glyph glyph-name="dagger" unicode="&#x2020;" horiz-adv-x="505" 
d="M266 924h-26v413h-193v27h193v172h26v-172h193v-27h-193v-413z" />
    <glyph glyph-name="daggerdbl" unicode="&#x2021;" horiz-adv-x="505" 
d="M266 924h-26v192h-193v27h193v194h-193v27h193v172h26v-172h193v-27h-193v-194h193v-27h-193v-192z" />
    <glyph glyph-name="bullet" unicode="&#x2022;" horiz-adv-x="700" 
d="M352 332q-90 0 -149.5 60.5t-59.5 148.5t59 146t150 58q86 0 145.5 -58.5t59.5 -145.5t-60 -148t-145 -61z" />
    <glyph glyph-name="ellipsis" unicode="&#x2026;" horiz-adv-x="942" 
d="M770 -20q-57 0 -94 37.5t-37 93.5t37 93.5t94 37.5q56 0 93.5 -38t37.5 -93t-37.5 -93t-93.5 -38zM469 -20q-57 0 -95 37.5t-38 93.5t38 93.5t95 37.5q54 0 91.5 -38t37.5 -93t-37.5 -93t-91.5 -38zM166 -20q-57 0 -94 37.5t-37 93.5t37 93.5t94 37.5q56 0 93.5 -38
t37.5 -93t-37.5 -93t-93.5 -38z" />
    <glyph glyph-name="perthousand" unicode="&#x2030;" horiz-adv-x="1957" 
d="M340 870q-129 0 -214 82t-85 207q0 120 85 200.5t214 80.5t215 -80.5t86 -200.5q0 -124 -86 -206.5t-215 -82.5zM279 0h-29l778 1419h29zM340 893q65 0 104 68.5t39 197.5q0 127 -39 192.5t-104 65.5q-62 0 -101.5 -66.5t-39.5 -191.5q0 -127 40 -196.5t101 -69.5z
M1636 -20q-129 0 -214 82t-85 206q0 120 85 200.5t214 80.5t215 -80.5t86 -200.5q0 -124 -86 -206t-215 -82zM975 -20q-129 0 -214 82t-85 206q0 120 85 200.5t214 80.5t215 -80.5t86 -200.5q0 -124 -86 -206t-215 -82zM1636 2q65 0 104.5 69t39.5 197q0 126 -39.5 192
t-104.5 66q-63 0 -102 -66t-39 -192q0 -128 39.5 -197t101.5 -69zM975 2q65 0 104 68.5t39 197.5q0 127 -39 192.5t-104 65.5q-63 0 -102 -66t-39 -192q0 -128 39.5 -197t101.5 -69z" />
    <glyph glyph-name="guilsinglleft" unicode="&#x2039;" horiz-adv-x="532" 
d="M487 940l-221 -426l221 -426h-24l-418 426l418 426h24z" />
    <glyph glyph-name="guilsinglright" unicode="&#x203a;" horiz-adv-x="532" 
d="M45 940h25l417 -426l-417 -426h-25l221 426z" />
    <glyph glyph-name="fraction" unicode="&#x2044;" horiz-adv-x="499" 
d="M84 -86h-29l383 1554h29z" />
    <glyph glyph-name="zero.superior" unicode="&#x2070;" horiz-adv-x="798" 
d="M399 719q-155 0 -257.5 101t-102.5 259t102.5 259.5t257.5 101.5t258 -101.5t103 -259.5t-103 -259t-258 -101zM184 1079q0 -129 47 -221l326 459q-61 106 -158 106q-92 0 -153.5 -96.5t-61.5 -247.5zM399 735q92 0 152.5 96.5t60.5 247.5q0 131 -45 219l-327 -456
q61 -107 159 -107z" />
    <glyph glyph-name="four.superior" unicode="&#x2074;" horiz-adv-x="462" 
d="M25 899v4l344 541h2v-529h75v-16h-75v-160h-144v160h-202zM53 915h174v273z" />
    <glyph glyph-name="five.superior" unicode="&#x2075;" horiz-adv-x="587" 
d="M137 1135h-4v284h318v-139h-301v-121q64 35 141 35q108 0 182 -68t74 -170q0 -103 -73.5 -170t-182.5 -67q-110 0 -183 67t-73 170h145q0 -94 31 -157.5t80 -63.5q45 0 76.5 63t31.5 158q0 98 -40.5 156.5t-102.5 58.5q-60 0 -119 -36z" />
    <glyph glyph-name="six.superior" unicode="&#x2076;" horiz-adv-x="604" 
d="M369 1442l8 -12q-114 -117 -160 -256q39 16 86 16q112 0 186 -64.5t74 -169.5q0 -106 -72 -171.5t-188 -65.5t-187 69t-71 185q0 113 76 227t248 242zM190 995q0 -108 29 -184t84 -76q52 0 82.5 59t30.5 162q0 105 -33 161.5t-92 56.5q-37 0 -80 -19q-21 -83 -21 -160z
" />
    <glyph glyph-name="seven.superior" unicode="&#x2077;" horiz-adv-x="419" 
d="M399 1419l-172 -680h-147l266 541h-309v139h362z" />
    <glyph glyph-name="eight.superior" unicode="&#x2078;" horiz-adv-x="546" 
d="M272 719q-99 0 -165 62t-66 155q0 83 56.5 141.5t144.5 67.5q-62 9 -101 48.5t-39 94.5q0 64 49 108t121 44q73 0 122.5 -43.5t49.5 -108.5q0 -55 -38.5 -94.5t-100.5 -48.5q88 -9 144.5 -67.5t56.5 -141.5q0 -93 -66.5 -155t-167.5 -62zM272 1151q25 0 40.5 35t15.5 102
q0 66 -15.5 100.5t-40.5 34.5q-24 0 -38.5 -34t-14.5 -101q0 -137 53 -137zM272 735q40 0 65 54t25 147q0 92 -25 145.5t-65 53.5q-39 0 -63.5 -53.5t-24.5 -145.5t24.5 -146.5t63.5 -54.5z" />
    <glyph glyph-name="nine.superior" unicode="&#x2079;" horiz-adv-x="604" 
d="M236 719l-9 10q114 117 160 256q-39 -16 -86 -16q-113 0 -186.5 64t-73.5 169q0 106 72 172t188 66q117 0 187.5 -68.5t70.5 -185.5q0 -114 -75.5 -227.5t-247.5 -239.5zM188 1202q0 -105 33 -161t92 -56q37 0 80 19q21 82 21 159q0 108 -29 184t-84 76
q-52 0 -82.5 -58.5t-30.5 -162.5z" />
    <glyph glyph-name="zero.inferior" unicode="&#x2080;" horiz-adv-x="798" 
d="M399 -223q-155 0 -257.5 101t-102.5 259t102.5 259.5t257.5 101.5t258 -101.5t103 -259.5t-103 -259t-258 -101zM184 137q0 -129 47 -221l326 459q-61 106 -158 106q-92 0 -153.5 -96.5t-61.5 -247.5zM399 -207q92 0 152.5 96.5t60.5 247.5q0 131 -45 219l-325 -458
q62 -105 157 -105z" />
    <glyph glyph-name="one.inferior" unicode="&#x2081;" horiz-adv-x="313" 
d="M23 246l233 254h4v-705h-143v522l-66 -71h-28z" />
    <glyph glyph-name="two.inferior" unicode="&#x2082;" horiz-adv-x="487" 
d="M440 -66v-139h-409v4q159 225 212.5 333.5t53.5 207.5q0 139 -53 139q-51 0 -51 -139q0 -52 6 -90h-148q-2 14 -2 57q0 81 56.5 135t138.5 54q91 0 145.5 -53t54.5 -134q0 -96 -69.5 -184t-218.5 -191h284z" />
    <glyph glyph-name="three.inferior" unicode="&#x2083;" horiz-adv-x="587" 
d="M266 199h-22v2l116 135h-237v139h381v-4l-195 -223q102 -6 170 -72.5t68 -163.5q0 -104 -73.5 -170.5t-182.5 -66.5q-110 0 -183 66t-73 171h145q0 -95 32 -157t79 -62q45 0 76.5 62t31.5 157q0 93 -31 156t-73 63z" />
    <glyph glyph-name="four.inferior" unicode="&#x2084;" horiz-adv-x="462" 
d="M25 -45v4l344 541h2v-529h75v-16h-75v-160h-144v160h-202zM53 -29h174v271z" />
    <glyph glyph-name="five.inferior" unicode="&#x2085;" horiz-adv-x="587" 
d="M137 188h-4v287h318v-139h-301v-121q64 35 141 35q108 0 182 -68t74 -170q0 -104 -73.5 -170.5t-182.5 -66.5q-110 0 -183 66t-73 171h145q0 -95 31 -158t80 -63q45 0 76.5 62.5t31.5 158.5q0 98 -40.5 156.5t-102.5 58.5q-55 0 -119 -39z" />
    <glyph glyph-name="six.inferior" unicode="&#x2086;" horiz-adv-x="604" 
d="M369 496l8 -11q-114 -117 -160 -256q41 17 86 17q112 0 186 -64.5t74 -169.5q0 -106 -72 -171.5t-188 -65.5t-187 69t-71 185q0 113 76 227t248 240zM190 51q0 -108 29 -184t84 -76q52 0 82.5 58.5t30.5 162.5q0 105 -33 161t-92 56q-39 0 -80 -18q-21 -83 -21 -160z" />
    <glyph glyph-name="seven.inferior" unicode="&#x2087;" horiz-adv-x="419" 
d="M399 475l-172 -680h-147l268 541h-311v139h362z" />
    <glyph glyph-name="eight.inferior" unicode="&#x2088;" horiz-adv-x="546" 
d="M272 -225q-99 0 -165 62t-66 155q0 83 56.5 141.5t144.5 67.5q-62 9 -101 47.5t-39 93.5q0 66 49 110t121 44q74 0 123 -44t49 -110q0 -55 -38.5 -93.5t-100.5 -47.5q88 -9 144.5 -67.5t56.5 -141.5q0 -93 -66.5 -155t-167.5 -62zM272 207q25 0 40.5 34.5t15.5 100.5
t-16 101.5t-40 35.5t-38.5 -35t-14.5 -102t14.5 -101t38.5 -34zM272 -209q40 0 65 54t25 147q0 92 -25 145t-65 53q-39 0 -63.5 -53t-24.5 -145t24.5 -146.5t63.5 -54.5z" />
    <glyph glyph-name="nine.inferior" unicode="&#x2089;" horiz-adv-x="604" 
d="M236 -227l-9 12q114 117 160 256q-39 -16 -86 -16q-113 0 -186.5 64t-73.5 169q0 106 72 172t188 66t187 -69t71 -185q0 -114 -75.5 -228t-247.5 -241zM188 258q0 -105 33 -161t92 -56q39 0 80 18q21 82 21 160q0 108 -29 184t-84 76q-52 0 -82.5 -58.5t-30.5 -162.5z
" />
    <glyph glyph-name="rupee" unicode="&#x20a8;" horiz-adv-x="1886" 
d="M117 0v1419h463q169 0 281 -103.5t112 -262.5q0 -131 -79.5 -224.5t-209.5 -121.5l336 -707h-236l-319 694h-119v-694h-229zM455 1393h-109v-672h109q128 0 206 94.5t78 237.5q0 145 -78 242.5t-206 97.5zM1116 283h223q-2 -20 -2 -74q0 -91 36.5 -147t109.5 -56
q57 0 96.5 43.5t40.5 136.5q0 52 -16 93t-55 75.5t-64.5 51.5t-84.5 50q-17 10 -26 15q-50 28 -86 54.5t-75.5 66.5t-60 92t-19.5 113q0 136 87.5 213t241.5 77q142 0 239 -85t95 -207h-221q2 20 2 69q2 87 -27.5 142t-97.5 55q-60 0 -90.5 -47.5t-30.5 -126.5
q0 -31 7.5 -59t17 -48.5t31 -42.5t35 -34.5t44.5 -31.5t45 -26.5t50 -26.5q45 -23 79 -44.5t69.5 -52.5t58 -64t37 -78t14.5 -96q0 -139 -95 -221t-256 -82q-149 0 -251.5 88.5t-100.5 214.5z" />
    <glyph glyph-name="Euro" unicode="&#x20ac;" horiz-adv-x="1595" 
d="M-37 600h121q-8 47 -8 111q0 55 6 108h-119v27h123q46 266 247.5 430t483.5 164q256 0 447 -141.5t256 -374.5h-226q-20 98 -58.5 183.5t-96.5 155t-141 110t-181 40.5q-200 0 -335.5 -150t-164.5 -417h488v-27h-490q-4 -70 -4 -108q0 -41 4 -111h490v-27h-486
q30 -260 162.5 -413.5t335.5 -153.5q124 0 224.5 65t163 174.5t89.5 252.5h226q-28 -103 -87.5 -195t-146.5 -165t-208.5 -115.5t-260.5 -42.5q-186 0 -342 74t-257 209t-130 310h-125v27z" />
    <glyph glyph-name="indianrupee" unicode="&#x20b9;" horiz-adv-x="1054" 
d="M745 0h-235l-397 780h215l75 -141q114 27 180 128t66 241q0 46 -10 98h-522v27h516q-30 118 -111 189t-196 71h-209v26h889v-26h-433q106 -26 182.5 -94t108.5 -166h142v-27h-136q13 -50 13 -98q0 -179 -122.5 -292.5t-309.5 -113.5h-27z" />
    <glyph glyph-name="trademark" unicode="&#x2122;" horiz-adv-x="2121" 
d="M326 0v1393h-326v26h881v-26h-326v-1393h-229zM995 0v1419h242l274 -772l267 772h227v-1419h-227v1337l-367 -1054h-4l-383 1050v-1333h-29z" />
    <glyph glyph-name="oneeighth" unicode="&#x215b;" horiz-adv-x="684" 
d="M176 1204l234 238h4v-651h-144v479l-63 -66h-31zM94 705v20h496v-20h-496zM342 -20q-97 0 -161 59.5t-64 150.5q0 79 52.5 135.5t135.5 67.5q-51 9 -83 43t-32 80q0 60 44 98.5t110 38.5q65 0 109.5 -39t44.5 -98q0 -46 -32.5 -80t-84.5 -43q83 -12 135.5 -68.5
t52.5 -134.5q0 -91 -64.5 -150.5t-162.5 -59.5zM344 401q41 0 41 115q0 117 -41 117q-43 0 -43 -117q0 -115 43 -115zM342 0q39 0 63.5 51.5t24.5 138.5q0 88 -24.5 140.5t-63.5 52.5t-62.5 -52.5t-23.5 -140.5q0 -87 23.5 -138.5t62.5 -51.5z" />
    <glyph glyph-name="threeeighths" unicode="&#x215c;" horiz-adv-x="698" 
d="M350 782q-104 0 -171.5 62t-67.5 157h143q0 -87 26 -142.5t70 -55.5q43 0 69.5 53t26.5 145q0 89 -25 143t-69 54l-22 -24h-27v2l98 112h-188v131h332v-4l-176 -196q97 -6 159 -67t62 -151q0 -95 -68.5 -157t-171.5 -62zM610 705h-522v20h522v-20zM342 -20
q-97 0 -161 59.5t-64 150.5q0 79 52.5 135.5t135.5 67.5q-51 9 -83 43t-32 80q0 60 44 98.5t110 38.5q65 0 109.5 -39t44.5 -98q0 -46 -32.5 -80t-84.5 -43q83 -12 135.5 -68.5t52.5 -134.5q0 -91 -64.5 -150.5t-162.5 -59.5zM344 401q41 0 41 115q0 117 -41 117
q-43 0 -43 -117q0 -115 43 -115zM342 0q39 0 63.5 51.5t24.5 138.5q0 88 -24.5 140.5t-63.5 52.5q-37 0 -61.5 -52.5t-24.5 -140.5q0 -86 24.5 -138t61.5 -52z" />
    <glyph glyph-name="fiveeighths" unicode="&#x215d;" horiz-adv-x="698" 
d="M350 782q-103 0 -171 60t-68 153h143q0 -85 26 -135.5t70 -50.5q46 0 71 52t25 140q0 193 -127 193q-55 0 -118 -37h-2v262h301v-131h-281v-98q63 29 131 29q104 0 172 -60.5t68 -157.5q0 -98 -67.5 -158.5t-172.5 -60.5zM610 705h-522v20h522v-20zM350 -20
q-98 0 -162.5 59.5t-64.5 150.5q0 78 52.5 134.5t137.5 68.5q-52 9 -84 43t-32 80q0 60 43.5 98.5t109.5 38.5q65 0 109.5 -39t44.5 -98q0 -46 -32.5 -80t-84.5 -43q83 -12 135.5 -68.5t52.5 -134.5q0 -91 -64 -150.5t-161 -59.5zM350 401q43 0 43 115q0 117 -43 117
t-43 -117q0 -115 43 -115zM350 0q37 0 61.5 52t24.5 138q0 88 -24.5 140.5t-61.5 52.5q-39 0 -62.5 -52.5t-23.5 -140.5q0 -87 23.5 -138.5t62.5 -51.5z" />
    <glyph glyph-name="seveneighths" unicode="&#x215e;" horiz-adv-x="698" 
d="M387 801h-154l256 487h-288v131h344zM610 705h-522v20h522v-20zM348 -20q-97 0 -161 59.5t-64 150.5q0 78 52.5 134.5t135.5 68.5q-52 9 -84 43t-32 80q0 60 43.5 98.5t109.5 38.5q67 0 111.5 -38.5t44.5 -98.5q0 -46 -33 -80t-86 -43q85 -12 137.5 -68.5t52.5 -134.5
q0 -91 -64.5 -150.5t-162.5 -59.5zM348 401q43 0 43 115q0 117 -43 117q-41 0 -41 -117q0 -115 41 -115zM348 0q39 0 63.5 51.5t24.5 138.5q0 88 -24.5 140.5t-63.5 52.5t-62.5 -52.5t-23.5 -140.5q0 -87 23.5 -138.5t62.5 -51.5z" />
    <glyph glyph-name="minus" unicode="&#x2212;" horiz-adv-x="901" 
d="M102 528v27h697v-27h-697z" />
    <glyph glyph-name="divisionslash" unicode="&#x2215;" horiz-adv-x="522" 
d="M84 -86h-29l383 1554h29z" />
    <glyph glyph-name="bulletoperator" unicode="&#x2219;" horiz-adv-x="700" 
d="M352 332q-90 0 -149.5 60.5t-59.5 148.5t59 146t150 58q86 0 145.5 -58.5t59.5 -145.5t-60 -148t-145 -61z" />
    <glyph glyph-name="approxequal" unicode="&#x2248;" horiz-adv-x="1064" 
d="M948 702l15 -22q-100 -87 -230 -84q-58 1 -135 33.5t-152 65t-129 32.5q-111 0 -200 -80l-15 23q97 84 220 84q47 0 107 -20.5t108.5 -45t107 -45t103.5 -20.5q112 0 200 79zM948 436l15 -22q-100 -87 -230 -84q-58 1 -135 33.5t-152 65t-129 32.5q-111 0 -200 -80
l-15 22q97 84 220 84q47 0 107 -20.5t108.5 -45t107 -45t103.5 -20.5q111 0 200 80z" />
    <glyph glyph-name="notequal" unicode="&#x2260;" horiz-adv-x="901" 
d="M231 274l-18 19l123 141h-234v27h256l164 186h-420v27h443l127 145l18 -18l-110 -127h219v-27h-242l-164 -186h406v-27h-428z" />
    <glyph glyph-name="lessequal" unicode="&#x2264;" horiz-adv-x="780" 
d="M666 885l12 -29l-512 -215l512 -215l-12 -29l-564 244zM666 233h-560v27h560v-27z" />
    <glyph glyph-name="greaterequal" unicode="&#x2265;" horiz-adv-x="780" 
d="M115 885l563 -244l-563 -244l-13 29l512 215l-512 215zM115 233v27h559v-27h-559z" />
    <glyph glyph-name="circledotted" unicode="&#x25cc;" horiz-adv-x="1005" 
d="M516 1024v-193h-27v193h27zM362 801l-75 178l24 10l72 -176zM694 989l25 -10l-76 -176l-20 10zM258 727l-135 133l18 23l135 -138zM864 883l21 -21l-137 -135l-19 18zM190 616l-176 78l11 25l176 -78zM981 719l10 -25l-176 -78l-10 25zM172 487h-192v25h192v-25zM834 512
h192v-25h-192v25zM201 358l-176 -73l-11 22l176 78zM813 385l176 -78l-10 -22l-174 73zM276 256l-135 -137l-18 20l135 137zM745 276l138 -137l-19 -20l-137 137zM383 190l-72 -178l-24 11l75 176zM641 199l78 -176l-25 -11l-76 178zM516 172v-192h-27v192h27z" />
    <glyph glyph-name="ITF" unicode="&#xf8ff;" horiz-adv-x="3561" 
d="M225 0v1434h443v-1434h-443zM760 1016v418h442v-418h-442zM1292 0v1434h445v-1434h-445zM1827 1016v418h442v-418h-442zM2359 0v1434h445v-1434h-445zM2894 1016v418h442v-418h-442zM2894 506v420h442v-420h-442z" />
    <glyph glyph-name="A.ss01" horiz-adv-x="997" 
d="M57 0l418 1458h4l447 -1458h-234l-143 492h-322l-141 -492h-29zM233 518h310l-156 535z" />
    <glyph glyph-name="Aacute.ss01" horiz-adv-x="997" 
d="M463 1575h-29l146 188h30zM475 1458h4l447 -1458h-234l-143 492h-322l-141 -492h-29zM233 518h310l-156 535z" />
    <glyph glyph-name="Abreve.ss01" horiz-adv-x="997" 
d="M305 1753q0 -79 46 -130.5t128 -51.5t127 51t45 131h29q0 -89 -52.5 -149t-148.5 -60q-97 0 -150 60.5t-53 148.5h29zM475 1458h4l447 -1458h-234l-143 492h-322l-141 -492h-29zM233 518h310l-156 535z" />
    <glyph glyph-name="Acircumflex.ss01" horiz-adv-x="997" 
d="M483 1769l140 -208h-29l-111 168l-112 -168h-29zM475 1458h4l447 -1458h-234l-143 492h-322l-141 -492h-29zM233 518h310l-156 535z" />
    <glyph glyph-name="Adieresis.ss01" horiz-adv-x="997" 
d="M330 1593q-34 0 -55 22t-21 56q0 31 21.5 52.5t54.5 21.5q31 0 53.5 -21.5t22.5 -52.5q0 -33 -22.5 -55.5t-53.5 -22.5zM621 1593q-34 0 -55 22t-21 56q0 31 21.5 52.5t54.5 21.5q31 0 53 -21.5t22 -52.5q0 -33 -22 -55.5t-53 -22.5zM57 0l418 1458h4l447 -1458h-234
l-143 492h-322l-141 -492h-29zM233 518h310l-156 535z" />
    <glyph glyph-name="Agrave.ss01" horiz-adv-x="997" 
d="M389 1763l146 -188h-29l-148 188h31zM475 1458h4l447 -1458h-234l-143 492h-322l-141 -492h-29zM233 518h310l-156 535z" />
    <glyph glyph-name="Amacron.ss01" horiz-adv-x="997" 
d="M295 1604v26h369v-26h-369zM57 0l418 1458h4l447 -1458h-234l-143 492h-322l-141 -492h-29zM233 518h310l-156 535z" />
    <glyph glyph-name="Aogonek.ss01" horiz-adv-x="1001" 
d="M57 0l418 1458h4l447 -1458q-51 -6 -84 -39t-33 -80q0 -49 35.5 -84t85.5 -35v-194q-92 0 -156.5 65t-64.5 156q0 72 41.5 129.5t105.5 81.5h-164l-143 492h-322l-141 -492h-29zM233 518h310l-156 535z" />
    <glyph glyph-name="Aring.ss01" horiz-adv-x="997" 
d="M479 1544q-49 0 -80.5 32.5t-31.5 82.5q0 48 31.5 79t80.5 31q45 0 79 -32t34 -78q0 -48 -34 -81.5t-79 -33.5zM479 1569q36 0 62 26t26 64q0 36 -26 61t-62 25q-38 0 -63 -24.5t-25 -61.5q0 -38 25 -64t63 -26zM57 0l418 1458h4l447 -1458h-234l-143 492h-322l-141 -492
h-29zM233 518h310l-156 535z" />
    <glyph glyph-name="Atilde.ss01" horiz-adv-x="997" 
d="M467 1620q-15 51 -88 51q-41 0 -66.5 -25.5t-25.5 -64.5h-25q0 50 32.5 82.5t84.5 32.5q30 0 57 -16t44 -35.5t41.5 -35.5t49.5 -16q41 0 67 25.5t26 64.5h24q0 -50 -32.5 -82t-84.5 -32q-89 0 -104 51zM57 0l418 1458h4l447 -1458h-234l-143 492h-322l-141 -492h-29z
M233 518h310l-156 535z" />
    <glyph glyph-name="O.ss01" horiz-adv-x="1386" 
d="M694 223q-174 0 -315 77t-222 216.5t-81 314.5q0 176 81 315.5t222 216.5t315 77t315 -77t221.5 -216.5t80.5 -315.5q0 -175 -80.5 -314.5t-221.5 -216.5t-315 -77zM694 244q185 0 300.5 156t115.5 431q0 262 -113.5 424t-302.5 162q-186 0 -302 -156t-116 -430
q0 -264 113 -425.5t305 -161.5zM242 0v27h903v-27h-903z" />
    <glyph glyph-name="Q.ss01" horiz-adv-x="1632" 
d="M811 -20q-156 1 -292 55.5t-233.5 150.5t-153.5 232t-56 293q0 158 56.5 294t154.5 231.5t235.5 149.5t294.5 54q209 0 377.5 -92t265 -259.5t96.5 -377.5q0 -281 -167.5 -478.5t-432.5 -240.5l510 -55v-244zM817 6q224 0 365 188t141 517q0 315 -138.5 508.5
t-367.5 193.5q-225 0 -365.5 -187t-140.5 -515q0 -316 138 -510.5t368 -194.5z" />
    <glyph glyph-name="V.ss01" horiz-adv-x="968" 
d="M911 1419l-397 -1456h-4l-453 1456h230l309 -1057l287 1057h28z" />
    <glyph glyph-name="W.ss01" horiz-adv-x="1492" 
d="M997 1419l-102 -364l213 -680l299 1044h29l-418 -1456h-4l-254 782l-225 -782h-5l-473 1456h240l328 -1044l120 416l-204 628h239l99 -315l90 315h28z" />
    <glyph glyph-name="Wacute.ss01" horiz-adv-x="1492" 
d="M999 1763l-227 -188h-37l228 188h36zM997 1419l-102 -364l213 -680l299 1044h29l-418 -1456h-4l-254 782l-225 -782h-5l-473 1456h240l328 -1044l120 416l-204 628h239l99 -315l90 315h28z" />
    <glyph glyph-name="Wcircumflex.ss01" horiz-adv-x="1492" 
d="M555 1561l229 208l230 -208h-41l-189 168l-188 -168h-41zM997 1419l-102 -364l213 -680l299 1044h29l-418 -1456h-4l-254 782l-225 -782h-5l-473 1456h240l328 -1044l120 416l-204 628h239l99 -315l90 315h28z" />
    <glyph glyph-name="Wdieresis.ss01" horiz-adv-x="1492" 
d="M592 1593q-34 0 -55 22t-21 56q0 31 21.5 52.5t54.5 21.5q30 0 53 -22t23 -52q0 -33 -23 -55.5t-53 -22.5zM977 1593q-34 0 -55 22t-21 56q0 31 21.5 52.5t54.5 21.5q30 0 53 -22t23 -52q0 -33 -23 -55.5t-53 -22.5zM997 1419l-102 -364l213 -680l299 1044h29l-418 -1456
h-4l-254 782l-225 -782h-5l-473 1456h240l328 -1044l120 416l-204 628h239l99 -315l90 315h28z" />
    <glyph glyph-name="Wgrave.ss01" horiz-adv-x="1492" 
d="M567 1763h37l227 -188h-36zM997 1419l-102 -364l213 -680l299 1044h29l-418 -1456h-4l-254 782l-225 -782h-5l-473 1456h240l328 -1044l120 416l-204 628h239l99 -315l90 315h28z" />
    <glyph glyph-name="idotaccent" horiz-adv-x="407" 
d="M205 1184q-34 0 -55 22t-21 56q0 31 21.5 52t54.5 21q31 0 53.5 -21.5t22.5 -51.5q0 -33 -22.5 -55.5t-53.5 -22.5zM313 0h-221v1067h221v-1067z" />
    <glyph glyph-name="a.ss01" 
d="M389 -20q-144 0 -241 91t-97 230t97.5 230.5t240.5 91.5q94 0 171.5 -44t119.5 -118v354q0 123 -46.5 184.5t-121.5 61.5q-72 0 -120 -64t-48 -190q0 -12 1 -36t1 -34h-225q0 152 112 251t279 99q168 0 278.5 -101.5t110.5 -266.5v-719h-221v141q-42 -74 -119.5 -117.5
t-171.5 -43.5zM485 41q88 0 146.5 73.5t58.5 186.5q0 114 -58.5 188t-146.5 74t-148.5 -75t-60.5 -187q0 -113 60 -186.5t149 -73.5z" />
    <glyph glyph-name="aacute.ss01" 
d="M514 1208h-29l146 189h31zM389 -20q-144 0 -241 91t-97 230t97.5 230.5t240.5 91.5q94 0 171.5 -44t119.5 -118v354q0 123 -46.5 184.5t-121.5 61.5q-72 0 -120 -64t-48 -190q0 -12 1 -36t1 -34h-225q0 152 112 251t279 99q168 0 278.5 -101.5t110.5 -266.5v-719h-221
v141q-42 -74 -119.5 -117.5t-171.5 -43.5zM485 41q88 0 146.5 73.5t58.5 186.5q0 114 -58.5 188t-146.5 74t-148.5 -75t-60.5 -187q0 -113 60 -186.5t149 -73.5z" />
    <glyph glyph-name="abreve.ss01" 
d="M338 1386q0 -79 46 -130.5t128 -51.5t127 51t45 131h29q0 -89 -52 -148.5t-149 -59.5t-150 60t-53 148h29zM389 -20q-144 0 -241 91t-97 230t97.5 230.5t240.5 91.5q94 0 171.5 -44t119.5 -118v354q0 123 -46.5 184.5t-121.5 61.5q-72 0 -120 -64t-48 -190q0 -12 1 -36
t1 -34h-225q0 152 112 251t279 99q168 0 278.5 -101.5t110.5 -266.5v-719h-221v141q-42 -74 -119.5 -117.5t-171.5 -43.5zM485 41q88 0 146.5 73.5t58.5 186.5q0 114 -58.5 188t-146.5 74t-148.5 -75t-60.5 -187q0 -113 60 -186.5t149 -73.5z" />
    <glyph glyph-name="acircumflex.ss01" 
d="M512 1403l139 -209h-28l-111 168l-113 -168h-28zM389 -20q-144 0 -241 91t-97 230t97.5 230.5t240.5 91.5q94 0 171.5 -44t119.5 -118v354q0 123 -46.5 184.5t-121.5 61.5q-72 0 -120 -64t-48 -190q0 -12 1 -36t1 -34h-225q0 152 112 251t279 99q168 0 278.5 -101.5
t110.5 -266.5v-719h-221v141q-42 -74 -119.5 -117.5t-171.5 -43.5zM485 41q88 0 146.5 73.5t58.5 186.5q0 114 -58.5 188t-146.5 74t-148.5 -75t-60.5 -187q0 -113 60 -186.5t149 -73.5z" />
    <glyph glyph-name="adieresis.ss01" 
d="M252 1227q-32 0 -54 22t-22 56q0 31 22 52t54 21q31 0 53.5 -21.5t22.5 -51.5q0 -33 -22.5 -55.5t-53.5 -22.5zM543 1227q-32 0 -54 22t-22 56q0 31 22 52t54 21q31 0 53 -21t22 -52q0 -33 -22 -55.5t-53 -22.5zM389 -20q-144 0 -241 91t-97 230t97.5 230.5t240.5 91.5
q94 0 171.5 -44t119.5 -118v354q0 123 -46.5 184.5t-121.5 61.5q-72 0 -120 -64t-48 -190q0 -12 1 -36t1 -34h-225q0 152 112 251t279 99q168 0 278.5 -101.5t110.5 -266.5v-719h-221v141q-42 -74 -119.5 -117.5t-171.5 -43.5zM485 41q88 0 146.5 73.5t58.5 186.5
q0 114 -58.5 188t-146.5 74t-148.5 -75t-60.5 -187q0 -113 60 -186.5t149 -73.5z" />
    <glyph glyph-name="agrave.ss01" 
d="M393 1397l146 -189h-29l-148 189h31zM389 -20q-144 0 -241 91t-97 230t97.5 230.5t240.5 91.5q94 0 171.5 -44t119.5 -118v354q0 123 -46.5 184.5t-121.5 61.5q-72 0 -120 -64t-48 -190q0 -12 1 -36t1 -34h-225q0 152 112 251t279 99q168 0 278.5 -101.5t110.5 -266.5
v-719h-221v141q-42 -74 -119.5 -117.5t-171.5 -43.5zM485 41q88 0 146.5 73.5t58.5 186.5q0 114 -58.5 188t-146.5 74t-148.5 -75t-60.5 -187q0 -113 60 -186.5t149 -73.5z" />
    <glyph glyph-name="amacron.ss01" 
d="M328 1237v27h368v-27h-368zM389 -20q-144 0 -241 91t-97 230t97.5 230.5t240.5 91.5q94 0 171.5 -44t119.5 -118v354q0 123 -46.5 184.5t-121.5 61.5q-72 0 -120 -64t-48 -190q0 -12 1 -36t1 -34h-225q0 152 112 251t279 99q168 0 278.5 -101.5t110.5 -266.5v-719h-221
v141q-42 -74 -119.5 -117.5t-171.5 -43.5zM485 41q88 0 146.5 73.5t58.5 186.5q0 114 -58.5 188t-146.5 74t-148.5 -75t-60.5 -187q0 -113 60 -186.5t149 -73.5z" />
    <glyph glyph-name="aogonek.ss01" 
d="M389 -20q-144 0 -241 91t-97 230t97.5 230.5t240.5 91.5q94 0 171.5 -44t119.5 -118v354q0 123 -46.5 184.5t-121.5 61.5q-72 0 -120 -64t-48 -190q0 -12 1 -36t1 -34h-225q0 152 112 251t279 99q168 0 278.5 -101.5t110.5 -266.5v-719q-51 -6 -84 -39t-33 -80
q0 -49 35.5 -84t85.5 -35v-194q-92 0 -156.5 65t-64.5 156q0 72 41.5 129.5t105.5 81.5h-151v141q-42 -74 -119.5 -117.5t-171.5 -43.5zM485 41q88 0 146.5 73.5t58.5 186.5q0 114 -58.5 188t-146.5 74t-148.5 -75t-60.5 -187q0 -113 60 -186.5t149 -73.5z" />
    <glyph glyph-name="aring.ss01" 
d="M512 1178q-49 0 -81 32t-32 82q0 48 32 79.5t81 31.5q45 0 79 -32.5t34 -78.5q0 -48 -34 -81t-79 -33zM512 1202q36 0 62 26t26 64q0 36 -26 61t-62 25q-38 0 -63 -24.5t-25 -61.5q0 -38 25 -64t63 -26zM389 -20q-144 0 -241 91t-97 230t97.5 230.5t240.5 91.5
q94 0 171.5 -44t119.5 -118v354q0 123 -46.5 184.5t-121.5 61.5q-72 0 -120 -64t-48 -190q0 -12 1 -36t1 -34h-225q0 152 112 251t279 99q168 0 278.5 -101.5t110.5 -266.5v-719h-221v141q-42 -74 -119.5 -117.5t-171.5 -43.5zM485 41q88 0 146.5 73.5t58.5 186.5
q0 114 -58.5 188t-146.5 74t-148.5 -75t-60.5 -187q0 -113 60 -186.5t149 -73.5z" />
    <glyph glyph-name="atilde.ss01" 
d="M504 1253q-15 52 -88 52q-41 0 -66.5 -26t-25.5 -65h-25q0 50 32.5 82.5t84.5 32.5q30 0 57 -16t44 -35t41.5 -35t49.5 -16q41 0 66.5 25.5t25.5 64.5h25q0 -50 -32.5 -82.5t-84.5 -32.5q-89 0 -104 51zM389 -20q-144 0 -241 91t-97 230t97.5 230.5t240.5 91.5
q94 0 171.5 -44t119.5 -118v354q0 123 -46.5 184.5t-121.5 61.5q-72 0 -120 -64t-48 -190q0 -12 1 -36t1 -34h-225q0 152 112 251t279 99q168 0 278.5 -101.5t110.5 -266.5v-719h-221v141q-42 -74 -119.5 -117.5t-171.5 -43.5zM485 41q88 0 146.5 73.5t58.5 186.5
q0 114 -58.5 188t-146.5 74t-148.5 -75t-60.5 -187q0 -113 60 -186.5t149 -73.5z" />
    <glyph glyph-name="v.ss01" horiz-adv-x="876" 
d="M825 1067l-372 -1104h-4l-412 1104h223l277 -762l260 762h28z" />
    <glyph glyph-name="w.ss01" horiz-adv-x="1339" 
d="M874 1067l-75 -227l202 -529l259 756h30l-368 -1104h-4l-238 610l-205 -610h-4l-428 1104h221l293 -754l105 310l-173 444h222l71 -184l64 184h28z" />
    <glyph glyph-name="wacute.ss01" horiz-adv-x="1339" 
d="M909 1397l-227 -189h-37l227 189h37zM874 1067l-75 -227l202 -529l259 756h30l-368 -1104h-4l-238 610l-205 -610h-4l-428 1104h221l293 -754l105 310l-173 444h222l71 -184l64 184h28z" />
    <glyph glyph-name="wcircumflex.ss01" horiz-adv-x="1339" 
d="M463 1194l229 209l230 -209h-41l-189 168l-188 -168h-41zM874 1067l-75 -227l202 -529l259 756h30l-368 -1104h-4l-238 610l-205 -610h-4l-428 1104h221l293 -754l105 310l-173 444h222l71 -184l64 184h28z" />
    <glyph glyph-name="wdieresis.ss01" horiz-adv-x="1339" 
d="M500 1227q-32 0 -54 22t-22 56q0 31 22 52t54 21q31 0 53 -21t22 -52q0 -33 -22 -55.5t-53 -22.5zM885 1227q-32 0 -54 22t-22 56q0 31 22 52t54 21q31 0 53.5 -21.5t22.5 -51.5q0 -33 -22.5 -55.5t-53.5 -22.5zM874 1067l-75 -227l202 -529l259 756h30l-368 -1104h-4
l-238 610l-205 -610h-4l-428 1104h221l293 -754l105 310l-173 444h222l71 -184l64 184h28z" />
    <glyph glyph-name="wgrave.ss01" horiz-adv-x="1339" 
d="M475 1397h37l227 -189h-37zM874 1067l-75 -227l202 -529l259 756h30l-368 -1104h-4l-238 610l-205 -610h-4l-428 1104h221l293 -754l105 310l-173 444h222l71 -184l64 184h28z" />
    <glyph glyph-name="C_H" horiz-adv-x="2088" 
d="M817 -20q-157 0 -294.5 54.5t-235.5 150t-154.5 232t-56.5 294.5q0 210 96.5 377t265.5 259.5t379 92.5q227 0 403.5 -112t262.5 -304h-215q-26 82 -66.5 150.5t-95.5 123t-129 85t-160 30.5q-225 0 -365.5 -187t-140.5 -515q0 -316 138 -510.5t368 -194.5
q162 0 280.5 106.5t172.5 284.5h215q-82 -183 -255.5 -300t-412.5 -117zM981 305h-229v809h229v-391h764v696h229v-1419h-229v696h-764v-391z" />
    <glyph glyph-name="C_O" horiz-adv-x="2961" 
d="M1520 924h-226q-20 98 -58.5 183.5t-96.5 155t-141 110t-181 40.5q-225 0 -365.5 -187t-140.5 -515q0 -316 138 -510.5t368 -194.5q124 0 224.5 65t163 174.5t89.5 252.5h226q-28 -103 -87.5 -195t-146.5 -165t-208.5 -115.5t-260.5 -42.5q-157 0 -294.5 54.5t-235.5 150
t-154.5 232t-56.5 294.5q0 210 96.5 377t265.5 259.5t379 92.5q256 0 447 -141.5t256 -374.5zM2277 242q-171 0 -310 76t-218.5 213t-79.5 309t79.5 309t218.5 213t310 76t309.5 -76t218 -213t79.5 -309t-79.5 -309t-218 -213t-309.5 -76zM2277 268q165 0 269 153t104 419
q0 256 -102 413.5t-271 157.5q-165 0 -268.5 -152.5t-103.5 -418.5q0 -255 101.5 -413.5t270.5 -158.5zM1794 27h967v-27h-967v27z" />
    <glyph glyph-name="E_E" horiz-adv-x="1781" 
d="M1704 27v-27h-709v696h-649v-669h479v-27h-708v1419h708v-26h-479v-670h649v696h709v-26h-479v-670h415v-27h-415v-669h479z" />
    <glyph glyph-name="H_T" horiz-adv-x="1951" 
d="M346 0h-229v1419h229v-696h381v696h1225v-26h-326v-1393h-227v1393h-443v-1393h-229v696h-381v-696z" />
    <glyph glyph-name="L_A" horiz-adv-x="1476" 
d="M598 252h-29l285 1182h238l327 -1434h-235l-109 492h-420zM866 0h-749v1419h229v-1392h520v-27zM664 518h405l-195 873z" />
    <glyph glyph-name="L_B" horiz-adv-x="1495" 
d="M1399 27v-27h-1282v1419h229v-1392h1053zM578 252v1167h397q152 0 251 -82.5t99 -208.5q0 -95 -61 -168.5t-166 -105.5q146 -17 233.5 -98t87.5 -197q0 -133 -95.5 -220t-244.5 -87h-501zM864 1393h-57v-535h65q99 0 158.5 71.5t59.5 198.5q0 126 -62 195.5t-164 69.5z
M1186 557q0 126 -65.5 201.5t-162.5 75.5h-151v-558h147q99 0 165.5 76.5t66.5 204.5z" />
    <glyph glyph-name="L_C" horiz-adv-x="1820" 
d="M1153 231q-174 0 -315 77t-221 215.5t-80 312.5t80.5 312.5t221 215t314.5 76.5q216 0 376 -116.5t214 -309.5h-221q-22 109 -67 196.5t-124 146t-178 58.5q-171 0 -278 -154t-107 -425q0 -260 104.5 -420t280.5 -160q143 0 240 112.5t129 293.5h221
q-54 -196 -214 -313.5t-376 -117.5zM1737 0h-1620v1419h229v-1392h1391v-27z" />
    <glyph glyph-name="L_D" horiz-adv-x="1517" 
d="M346 0h-229v1419h229v-1392l1073 2v-27zM584 252v1167h241q174 0 314 -73.5t220.5 -207t80.5 -302.5q0 -168 -80.5 -302t-221 -208t-313.5 -74h-241zM825 1395h-12v-1119h12q171 0 284.5 158t113.5 402t-113.5 401.5t-284.5 157.5z" />
    <glyph glyph-name="L_E" horiz-adv-x="1265" 
d="M1200 0h-1083v1419h229v-1392h854v-27zM578 252v1167h622v-24h-393v-547h340v-25h-340v-547h393v-24h-622z" />
    <glyph glyph-name="L_F" horiz-adv-x="1265" 
d="M1200 0h-1083v1419h229v-1392h854v-27zM807 252h-229v1167h622v-24h-393v-564h340v-24h-340v-555z" />
    <glyph glyph-name="L_G" horiz-adv-x="1835" 
d="M1153 231q-265 0 -439.5 171.5t-174.5 435.5q0 172 79.5 310t220 215t314.5 77q216 0 375.5 -116t212.5 -310h-219q-22 109 -67 196.5t-124 146t-178 58.5q-170 0 -275.5 -153t-105.5 -424q0 -260 104 -421t277 -161q153 0 256 127t123 356h-467v25h694
q-26 -236 -197 -384.5t-409 -148.5zM1739 0h-1622v1419h229v-1392h1393v-27z" />
    <glyph glyph-name="L_H" horiz-adv-x="1460" 
d="M1343 27v-27h-1226v1419h229v-1392h997zM807 252h-229v1167h229v-569h307v569h229v-1167h-229v571h-307v-571z" />
    <glyph glyph-name="L_I" horiz-adv-x="960" 
d="M954 0h-837v1419h229v-1392h608v-27zM815 233h-229v1186h229v-1186z" />
    <glyph glyph-name="L_K" horiz-adv-x="1423" 
d="M1350 27v-27h-1233v1419h229v-1392h1004zM811 252h-231v1167h231v-643l401 643h35l-237 -383l360 -780v-4h-252l-246 565l-61 -98v-467z" />
    <glyph glyph-name="L_L" horiz-adv-x="1148" 
d="M1143 0h-1026v1419h229v-1392h797v-27zM1143 252h-565v1167h229v-1140h336v-27z" />
    <glyph glyph-name="L_M" horiz-adv-x="1538" 
d="M1421 27v-27h-1304v1419h229v-1392h1075zM578 252v1167h233l190 -561l191 561h229v-1167h-229v1089l-285 -843h-4l-297 835v-1081h-28z" />
    <glyph glyph-name="L_N" horiz-adv-x="1306" 
d="M1190 27v-27h-1073v1419h229v-1392h844zM575 252v1167h232l354 -1077v1077h29v-1167h-229l-357 1081v-1081h-29z" />
    <glyph glyph-name="L_O" horiz-adv-x="1841" 
d="M1151 229q-173 0 -313 77t-220.5 216t-80.5 314q0 174 80.5 312.5t220.5 215t313 76.5t313.5 -76.5t220.5 -215t80 -312.5q0 -175 -80 -314t-220.5 -216t-313.5 -77zM1745 0h-1628v1419h229v-1392h1399v-27zM1151 254q170 0 277.5 155.5t107.5 426.5q0 258 -105.5 418.5
t-279.5 160.5q-170 0 -277.5 -155t-107.5 -424q0 -259 105.5 -420.5t279.5 -161.5z" />
    <glyph glyph-name="L_P" horiz-adv-x="1425" 
d="M1331 27v-27h-1214v1419h229v-1392h985zM578 252v1167h421q152 0 252.5 -91.5t100.5 -233.5q0 -140 -100.5 -230t-252.5 -90h-192v-522h-229zM874 1393h-67v-592h67q108 0 176 84t68 209q0 126 -68 212.5t-176 86.5z" />
    <glyph glyph-name="L_Q" horiz-adv-x="1841" 
d="M1151 229q-173 0 -313 77t-220.5 216t-80.5 314q0 174 80.5 312.5t220.5 215t313 76.5t313.5 -76.5t220.5 -215t80 -312.5q0 -195 -98 -343t-264 -217l164 -299h-228l-137 254q-18 -2 -51 -2zM1065 27v-27h-948v1419h229v-1392h719zM1151 254q25 0 37 2l-150 274h228
l104 -190q78 72 122 199t44 297q0 258 -105.5 418.5t-279.5 160.5q-170 0 -277.5 -155t-107.5 -424q0 -259 105.5 -420.5t279.5 -161.5z" />
    <glyph glyph-name="L_R" horiz-adv-x="1409" 
d="M1337 27v-27h-1220v1419h229v-1392h991zM578 252v1167h409q149 0 247.5 -92t98.5 -233q0 -112 -62.5 -194.5t-166.5 -113.5l244 -534h-252l-224 518h-65v-518h-229zM862 1393h-55v-596h55q107 0 172.5 85t65.5 212q0 126 -66 212.5t-172 86.5z" />
    <glyph glyph-name="L_S" horiz-adv-x="1253" 
d="M545 543h223q-4 -46 -4 -78q2 -93 33 -150t92 -57q47 0 78.5 44.5t31.5 137.5q0 39 -7 74t-25.5 67.5t-33 55t-46.5 54t-48 45.5t-55 48q-37 32 -48 42t-43 41t-44 47t-34.5 47t-31 55.5t-16.5 57.5t-8 67q0 141 82 220t227 79q131 0 221.5 -88t90.5 -213h-222
q0 9 1.5 33t1.5 40q0 201 -103 201q-47 0 -72.5 -45t-25.5 -123q0 -84 45.5 -150t134.5 -147q9 -8 40 -36t42 -39t38.5 -37t38.5 -41t31.5 -41t29.5 -46.5t20.5 -47.5t15.5 -54.5t4 -56.5q0 -148 -88 -233t-240 -85q-137 0 -232 91t-95 221zM1196 27v-27h-1079v1419h229
v-1392h850z" />
    <glyph glyph-name="L_T" horiz-adv-x="1304" 
d="M1237 0h-1120v1419h229v-1392h891v-27zM993 252h-229v1141h-246v26h719v-26h-244v-1141z" />
    <glyph glyph-name="L_U" horiz-adv-x="1466" 
d="M973 231q-176 0 -287 112t-111 306v770h234v-770q0 -158 69 -256t193 -98q119 0 191.5 98.5t72.5 255.5v770h29v-770q0 -193 -108 -305.5t-283 -112.5zM1364 0h-1247v1419h229v-1392h1018v-27z" />
    <glyph glyph-name="L_V" horiz-adv-x="1304" 
d="M1233 27v-27h-1116v1419h229v-1392h887zM530 1419h230l237 -1110l236 1110h29l-248 -1167h-234z" />
    <glyph glyph-name="L_W" horiz-adv-x="1738" 
d="M1675 27v-27h-1558v1419h229v-1392h1329zM530 1419h232l250 -1118l86 381l-164 737h231l70 -315l72 315h26l-84 -375l166 -743l254 1118h27l-266 -1167h-236l-82 371l-86 -371h-238z" />
    <glyph glyph-name="L_X" horiz-adv-x="1273" 
d="M1223 27v-27h-1106v1419h229v-1392h877zM530 1419h234l174 -436l201 436h28l-217 -467l281 -700h-234l-182 457l-213 -457h-29l228 489z" />
    <glyph glyph-name="L_Y" horiz-adv-x="1273" 
d="M1202 27v-27h-1085v1419h229v-1392h856zM784 252v436l-254 731h236l231 -680l205 680h29l-217 -731v-436h-230z" />
    <glyph glyph-name="L_Z" horiz-adv-x="1271" 
d="M266 0h-149v1419h229v-1392l832 -2v-27zM1178 252h-648v4l437 1137h-363v26h617v-6l-439 -1134h396v-27z" />
    <glyph glyph-name="N_N" horiz-adv-x="1726" 
d="M145 0h-28v1419h235l498 -1333v1333h235l498 -1333v1333h29v-1419h-236l-497 1335v-1335h-236l-498 1329v-1329z" />
    <glyph glyph-name="O_C" horiz-adv-x="2265" 
d="M817 -20q-157 0 -294.5 54.5t-235.5 150t-154.5 232t-56.5 294.5t56.5 294t154.5 231.5t235.5 149.5t294.5 54q184 0 334 -72q153 72 336 72q256 0 446.5 -141.5t255.5 -374.5h-225q-20 98 -58.5 183.5t-96.5 155t-141 110t-181 40.5q-146 0 -262 -84q155 -95 243 -256
t88 -362t-88 -363.5t-243 -257.5q117 -84 262 -84q124 0 224.5 65t163 174.5t89.5 252.5h225q-28 -103 -87.5 -195t-146 -165t-208 -115.5t-260.5 -42.5q-185 0 -336 71q-148 -71 -334 -71zM817 6q146 0 262 84q-156 95 -245 257.5t-89 363.5t88.5 361.5t243.5 256.5
q-117 84 -260 84q-225 0 -365.5 -187t-140.5 -515q0 -316 138 -510.5t368 -194.5zM981 711q0 -359 172 -553q168 195 168 553q0 359 -170 551q-170 -191 -170 -551z" />
    <glyph glyph-name="O_G" horiz-adv-x="2297" 
d="M817 -20q-157 0 -294.5 54.5t-235.5 150t-154.5 232t-56.5 294.5t56.5 294t154.5 231.5t235.5 149.5t294.5 54q184 0 334 -72q153 72 336 72q260 0 453.5 -141t259.5 -375h-228q-42 226 -170 357.5t-315 131.5q-146 0 -262 -84q155 -95 243 -256t88 -362t-88 -363.5
t-243 -257.5q117 -84 262 -84q202 0 337.5 154.5t162.5 433.5h-277v27h512q-34 -286 -238 -463.5t-497 -177.5q-185 0 -336 71q-148 -71 -334 -71zM817 6q146 0 262 84q-156 95 -245 257.5t-89 363.5t88.5 361.5t243.5 256.5q-117 84 -260 84q-225 0 -365.5 -187
t-140.5 -515q0 -316 138 -510.5t368 -194.5zM981 711q0 -359 172 -553q168 195 168 553q0 359 -170 551q-170 -191 -170 -551z" />
    <glyph glyph-name="O_O" horiz-adv-x="2301" 
d="M817 -20q-157 0 -294.5 54.5t-235.5 150t-154.5 232t-56.5 294.5t56.5 294t154.5 231.5t235.5 149.5t294.5 54q184 0 334 -72q153 72 336 72q209 0 377.5 -92t265 -259.5t96.5 -377.5q0 -211 -96.5 -378.5t-265 -260t-377.5 -92.5q-185 0 -336 71q-148 -71 -334 -71z
M817 6q146 0 262 84q-156 95 -245 257.5t-89 363.5t88.5 361.5t243.5 256.5q-117 84 -260 84q-225 0 -365.5 -187t-140.5 -515q0 -316 138 -510.5t368 -194.5zM1487 6q224 0 364 188t140 517q0 315 -137.5 508.5t-366.5 193.5q-146 0 -262 -84q155 -95 243 -256t88 -362
t-88 -363.5t-243 -257.5q117 -84 262 -84zM981 711q0 -359 172 -553q168 195 168 553q0 359 -170 551q-170 -191 -170 -551z" />
    <glyph glyph-name="O_Q" horiz-adv-x="2301" 
d="M817 -20q-157 0 -294.5 54.5t-235.5 150t-154.5 232t-56.5 294.5t56.5 294t154.5 231.5t235.5 149.5t294.5 54q184 0 334 -72q153 72 336 72q209 0 377.5 -92t265 -259.5t96.5 -377.5q0 -229 -113.5 -405t-306.5 -261l187 -344h-236l-155 287q-49 -8 -115 -8
q-185 0 -336 71q-148 -71 -334 -71zM817 6q146 0 262 84q-156 95 -245 257.5t-89 363.5t88.5 361.5t243.5 256.5q-117 84 -260 84q-225 0 -365.5 -187t-140.5 -515q0 -316 138 -510.5t368 -194.5zM1487 6q43 0 98 10l-137 250h238l86 -157q104 89 161.5 242t57.5 360
q0 315 -137.5 508.5t-366.5 193.5q-146 0 -262 -84q155 -95 243 -256t88 -362t-88 -363.5t-243 -257.5q117 -84 262 -84zM981 711q0 -359 172 -553q168 195 168 553q0 359 -170 551q-170 -191 -170 -551z" />
    <glyph glyph-name="T_H" horiz-adv-x="1951" 
d="M326 0v1393h-326v26h1225v-696h383v696h229v-1419h-229v696h-383v-696h-230v1393h-440v-1393h-229z" />
    <glyph glyph-name="T_I" horiz-adv-x="1361" 
d="M326 0v1393h-326v26h1225v-1419h-230v1393h-440v-1393h-229z" />
    <glyph glyph-name="T_L" horiz-adv-x="1769" 
d="M326 0v1393h-326v26h1225v-1392h538v-27h-768v1393h-440v-1393h-229z" />
    <glyph glyph-name="T_T" horiz-adv-x="1552" 
d="M326 0v1393h-326v26h1552v-26h-325v-1393h-228v1393h-444v-1393h-229z" />
    <glyph glyph-name="Z_Z" horiz-adv-x="1687" 
d="M125 1419h1511v-6l-540 -1386h497v-27h-1542v4l539 1389h-465v26zM303 27h549l530 1366h-544z" />
    <glyph glyph-name="f_t_i" horiz-adv-x="1488" 
d="M393 0h-221v1040h-113v27h113v178q0 160 106.5 266.5t264.5 106.5q142 0 250.5 -80.5t121.5 -204.5h-221v29q0 114 -40.5 171.5t-110.5 57.5q-69 0 -109.5 -59t-40.5 -172v-293h301v170h221v-170h461v-1067h-221v1040h-240v-1040h-221v1040h-301v-1040zM1266 1262
q-57 0 -94 37.5t-37 93.5t37 92.5t94 36.5q56 0 93.5 -37t37.5 -92t-37.5 -93t-93.5 -38z" />
    <glyph glyph-name="f_t_t_i" horiz-adv-x="1953" 
d="M393 0h-221v1040h-113v27h113v178q0 160 106.5 266.5t264.5 106.5q142 0 250.5 -80.5t121.5 -204.5h-221v29q0 114 -40.5 171.5t-110.5 57.5q-69 0 -109.5 -59t-40.5 -172v-293h301v170h221v-170h244v170h221v-170h461v-1067h-221v1040h-240v-1040h-221v1040h-244v-1040
h-221v1040h-301v-1040zM1731 1262q-57 0 -94.5 37.5t-37.5 93.5t37.5 92.5t94.5 36.5q55 0 92 -37t37 -92q0 -56 -37 -93.5t-92 -37.5z" />
    <glyph glyph-name="f_t_u" horiz-adv-x="2107" 
d="M393 0h-221v1040h-113v27h113v178q0 160 106.5 266.5t264.5 106.5q142 0 250.5 -80.5t121.5 -204.5h-221v29q0 114 -40.5 171.5t-110.5 57.5q-69 0 -109.5 -59t-40.5 -172v-293h301v170h221v-170h457v-772q0 -101 56 -168.5t143 -67.5t145 68t58 168v772h221v-1067h-221
v172q-36 -88 -114 -140t-181 -52q-143 0 -235.5 94.5t-92.5 240.5v725h-236v-1040h-221v1040h-301v-1040z" />
    <glyph glyph-name="f_z" horiz-adv-x="1492" 
d="M59 1067h113v203q0 151 100 251.5t252 100.5t252.5 -99.5t100.5 -252.5h-222q0 17 1 46.5t1 43.5q0 235 -133 235q-59 0 -95 -52t-36 -159v-317h1043v-4l-559 -1036h540v-27h-786v4l557 1036h-795v-1040h-221v1040h-113v27z" />
    <glyph glyph-name="i_f" horiz-adv-x="1333" 
d="M334 0h-221v1067h495v203q0 151 101 251.5t252 100.5q152 0 253 -99.5t101 -252.5h-223q4 66 4 90q0 235 -135 235q-59 0 -95.5 -52t-36.5 -159v-317h353v-27h-353v-1040h-221v1040h-274v-1040zM225 1262q-57 0 -95 37.5t-38 93.5q0 55 38 92t95 37q54 0 91.5 -37
t37.5 -92t-37.5 -93t-91.5 -38z" />
    <glyph glyph-name="i_f_f" horiz-adv-x="1857" 
d="M334 0h-221v1067h495v182q0 159 107 266t266 107q168 0 264 -127q43 59 107.5 93t138.5 34q150 0 249 -99.5t99 -252.5h-223q4 66 4 90q0 235 -135 235q-59 0 -95 -52t-36 -159v-317h313v-27h-313v-1040h-221v1040h-304v-1040h-221v1040h-274v-1040zM829 1364v-297h304
v299q0 112 -41.5 170.5t-110.5 58.5q-68 0 -110 -59t-42 -172zM225 1262q-57 0 -95 37.5t-38 93.5q0 55 38 92t95 37q54 0 91.5 -37t37.5 -92t-37.5 -93t-91.5 -38z" />
    <glyph glyph-name="i_t" horiz-adv-x="968" 
d="M225 1262q-57 0 -95 37.5t-38 93.5q0 55 38 92t95 37q54 0 91.5 -37t37.5 -92t-37.5 -93t-91.5 -38zM334 0h-221v1067h456v268h222v-268h120v-27h-120v-1040h-222v1040h-235v-1040z" />
    <glyph glyph-name="i_t_t" horiz-adv-x="1382" 
d="M225 1262q-57 0 -95 37.5t-38 93.5q0 55 38 92t95 37q54 0 91.5 -37t37.5 -92t-37.5 -93t-91.5 -38zM334 0h-221v1067h456v268h222v-268h235v268h221v-268h121v-27h-121v-1040h-221v1040h-235v-1040h-222v1040h-235v-1040z" />
    <glyph glyph-name="i_t_t_i" horiz-adv-x="1818" 
d="M225 1262q-57 0 -95 37.5t-38 93.5q0 55 38 92t95 37q54 0 91.5 -37t37.5 -92t-37.5 -93t-91.5 -38zM1595 1262q-57 0 -94 37.5t-37 93.5t37 92.5t94 36.5q54 0 91.5 -37t37.5 -92t-37.5 -93t-91.5 -38zM334 0h-221v1067h456v268h222v-268h235v268h221v-268h457v-1067
h-221v1040h-236v-1040h-221v1040h-235v-1040h-222v1040h-235v-1040z" />
    <glyph glyph-name="i_z" horiz-adv-x="1378" 
d="M225 1262q-57 0 -95 37.5t-38 93.5q0 55 38 92t95 37q54 0 91.5 -37t37.5 -92t-37.5 -93t-91.5 -38zM334 0h-221v1067h1208v-4l-559 -1036h541v-27h-787v4l559 1036h-741v-1040z" />
    <glyph glyph-name="j_j" horiz-adv-x="1112" 
d="M385 1262q-57 0 -94 37.5t-37 93.5t37 92.5t94 36.5q55 0 92 -37t37 -92q0 -56 -37 -93.5t-92 -37.5zM870 1262q-57 0 -94 37.5t-37 93.5t37 92.5t94 36.5q54 0 91.5 -37t37.5 -92t-37.5 -93t-91.5 -38zM-211 -197h221q0 -17 -1 -46.5t-1 -43.5q0 -235 135 -235
q58 0 94.5 52t36.5 159v1378h222v-1264q0 -17 -1 -46.5t-1 -43.5q0 -235 133 -235q59 0 96 52t37 159v1378h221v-1264q0 -151 -100.5 -251.5t-251.5 -100.5q-146 0 -244 98q-48 -46 -111.5 -72t-130.5 -26q-152 0 -253 99t-101 253z" />
    <glyph glyph-name="t_f" horiz-adv-x="1316" 
d="M356 0h-221v1040h-119v27h119v268h221v-268h236v203q0 151 100.5 251.5t251.5 100.5q153 0 253.5 -99.5t100.5 -252.5h-223q4 66 4 90q0 235 -135 235q-58 0 -94.5 -52t-36.5 -159v-317h352v-27h-352v-1040h-221v1040h-236v-1040z" />
    <glyph glyph-name="t_i" horiz-adv-x="1015" 
d="M795 1262q-57 0 -94 37.5t-37 93.5t37 92.5t94 36.5q54 0 91.5 -37t37.5 -92t-37.5 -93t-91.5 -38zM446 0h-221v1040h-209v27h209v268h221v-268h457v-1067h-221v1040h-236v-1040z" />
    <glyph glyph-name="t_j" horiz-adv-x="1062" 
d="M823 1262q-57 0 -95 37.5t-38 93.5q0 55 38 92t95 37q54 0 91.5 -37t37.5 -92t-37.5 -93t-91.5 -38zM225 -197h224q-3 -49 -3 -90q0 -235 134 -235q59 0 95 52t36 159v1351h-265v-1040h-221v1040h-209v27h209v268h221v-268h486v-1264q0 -151 -100.5 -251.5t-249.5 -100.5
q-153 0 -255 99t-102 253z" />
    <glyph glyph-name="t_m" horiz-adv-x="2031" 
d="M356 0h-221v1040h-119v27h119v268h221v-268h469v-147q33 78 101 122.5t159 44.5q101 0 174 -53.5t101 -146.5q27 89 101.5 144.5t172.5 55.5q131 0 213 -84t82 -219v-784h-221v795q0 91 -45 146.5t-119 55.5q-77 0 -123.5 -56.5t-46.5 -149.5v-791h-221v799
q0 88 -44.5 143t-117.5 55q-74 0 -120 -55t-46 -143v-799h-221v1040h-248v-1040z" />
    <glyph glyph-name="t_n" horiz-adv-x="1544" 
d="M356 0h-221v1040h-119v27h119v268h221v-268h469v-174q36 89 113 141.5t180 52.5q142 0 233 -94t91 -239v-754h-221v772q0 101 -55 168.5t-140 67.5q-86 0 -143.5 -68t-57.5 -168v-772h-221v1040h-248v-1040z" />
    <glyph glyph-name="t_r" horiz-adv-x="1380" 
d="M356 0h-221v1040h-119v27h119v268h221v-268h469v-152q31 81 96.5 126.5t155.5 45.5q122 0 199.5 -82.5t77.5 -213.5h-226q0 96 -43 157.5t-108 61.5q-64 0 -108 -61t-44 -158v-791h-221v1040h-248v-1040z" />
    <glyph glyph-name="t_t" horiz-adv-x="940" 
d="M356 0h-221v1040h-119v27h119v268h221v-268h226v268h221v-268h121v-27h-121v-1040h-221v1040h-226v-1040z" />
    <glyph glyph-name="t_t_f" horiz-adv-x="1765" 
d="M356 0h-221v1040h-119v27h119v268h221v-268h226v268h221v-268h237v203q0 151 100.5 251.5t252.5 100.5q151 0 251.5 -99.5t100.5 -252.5h-221q0 17 1 46.5t1 43.5q0 235 -133 235q-59 0 -95 -52t-36 -159v-317h350v-27h-350v-1040h-222v1040h-237v-1040h-221v1040h-226
v-1040z" />
    <glyph glyph-name="t_t_i" horiz-adv-x="1388" 
d="M1167 1262q-57 0 -94 37.5t-37 93.5t37 92.5t94 36.5q54 0 91.5 -37t37.5 -92t-37.5 -93t-91.5 -38zM356 0h-221v1040h-119v27h119v268h221v-268h240v268h221v-268h459v-1067h-221v1040h-238v-1040h-221v1040h-240v-1040z" />
    <glyph glyph-name="t_t_j" horiz-adv-x="1378" 
d="M1137 1262q-57 0 -94 37.5t-37 93.5t37 92.5t94 36.5q54 0 91.5 -37t37.5 -92t-37.5 -93t-91.5 -38zM356 0h-221v1040h-119v27h119v268h221v-268h224v268h221v-268h444v-1264q0 -151 -100.5 -251.5t-249.5 -100.5q-153 0 -254.5 99t-101.5 253h223q-2 -33 -2 -90
q0 -235 133 -235q59 0 95 52t36 159v1351h-223v-1040h-221v1040h-224v-1040z" />
    <glyph glyph-name="t_t_u" horiz-adv-x="2009" 
d="M356 0h-221v1040h-119v27h119v268h221v-268h240v268h221v-268h457v-772q0 -101 55.5 -168.5t140.5 -67.5q87 0 146 68t59 168v772h221v-1067h-221v174q-36 -89 -114.5 -141.5t-182.5 -52.5q-142 0 -233.5 94.5t-91.5 240.5v725h-236v-1040h-221v1040h-240v-1040z" />
    <glyph glyph-name="t_u" horiz-adv-x="1548" 
d="M356 0h-221v1040h-119v27h119v268h221v-268h457v-772q0 -101 56 -168.5t143 -67.5q86 0 144 68t58 168v772h222v-1067h-222v174q-36 -89 -113.5 -141.5t-180.5 -52.5q-143 0 -235.5 94.5t-92.5 240.5v725h-236v-1040z" />
    <glyph glyph-name="t_z" horiz-adv-x="1404" 
d="M356 0h-221v1040h-119v27h119v268h221v-268h992v-4l-560 -1036h541v-27h-786v4l559 1036h-746v-1040z" />
    <glyph glyph-name="w_w_w" horiz-adv-x="3082" 
d="M43 1067h221l291 -1020l100 416l-172 604h224l75 -268l64 268h31l-78 -328l198 -696l101 418l-174 606h223l78 -270l61 270h31l-76 -326l197 -694l100 420l-172 600h221l76 -268l63 268h31l-76 -326l197 -694l100 416l-172 604h224l75 -268l64 268h29l-76 -324l198 -700
l101 422l-174 602h223l76 -268l63 268h31l-78 -324l199 -696l241 1020h31l-252 -1067h-227l-119 410l-96 -410h-228l-116 408l-97 -408h-227l-117 408l-96 -408h-227l-117 408l-98 -408h-228l-116 408l-97 -408h-227z" />
    <glyph glyph-name="L_A.ss01" horiz-adv-x="1425" 
d="M569 252l346 1206h5l448 -1458h-235l-144 492h-323l-68 -240h-29zM866 0h-749v1419h229v-1392h520v-27zM674 518h309l-156 535z" />
    <glyph glyph-name="L_V.ss01" horiz-adv-x="1284" 
d="M1219 27v-27h-1102v1419h229v-1392h873zM1241 1419l-323 -1198h-5l-383 1198h228l239 -786l215 786h29z" />
    <glyph glyph-name="L_W.ss01" horiz-adv-x="1718" 
d="M1653 27v-27h-1536v1419h229v-1392h1307zM1313 1419l-76 -258l174 -540l236 798h28l-354 -1198h-2l-203 621l-188 -621h-4l-394 1198h232l256 -803l84 269l-176 534h229l68 -211l61 211h29z" />
    <glyph glyph-name="w_w_w.ss01" horiz-adv-x="3158" 
d="M475 -18h-4l-428 1085h221l295 -739l107 309l-170 430h223l67 -172l60 172h28l-71 -213l209 -528l108 309l-172 432h223l68 -172l59 172h29l-72 -213l209 -528l109 311l-170 430h221l68 -172l59 172h29l-72 -213l209 -528l108 311l-170 430h224l67 -172l60 172h28
l-71 -213l209 -526l106 305l-170 434h223l68 -172l59 172h29l-72 -213l209 -526l256 739h31l-371 -1085h-4l-239 608l-209 -608h-4l-240 610l-209 -610h-4l-240 610l-209 -610h-4l-241 608l-209 -608h-4l-240 608z" />
    <glyph glyph-name="zero.osf" horiz-adv-x="1284" 
d="M641 -20q-160 0 -288.5 70t-202.5 197.5t-74 287.5q0 241 161 396.5t404 155.5t404 -155.5t161 -396.5q0 -160 -74 -287.5t-202.5 -197.5t-288.5 -70zM307 535q0 -218 78 -361l492 756q-91 131 -236 131q-150 0 -242 -139.5t-92 -386.5zM641 6q150 0 243 140.5t93 388.5
q0 222 -84 368l-492 -758q90 -139 240 -139z" />
    <glyph glyph-name="one.osf" horiz-adv-x="585" 
d="M80 639l391 457h4v-1096h-221v799l-139 -160h-35z" />
    <glyph glyph-name="two.osf" horiz-adv-x="985" 
d="M887 0h-795v4q46 51 120 131.5t108.5 118.5t89.5 100t80 94.5t61 81t51.5 80t32.5 71.5t23 76t6 74q0 121 -46 174.5t-114 53.5q-72 0 -116 -51.5t-44 -165.5q0 -90 8 -158h-229q-2 29 -2 64q0 144 108 241.5t267 97.5q75 0 142.5 -21.5t122.5 -62.5t87.5 -109t32.5 -153
q0 -158 -144.5 -297t-425.5 -245h576v-199z" />
    <glyph glyph-name="three.osf" horiz-adv-x="1261" 
d="M510 485h-33v4l359 377h-557v201h786v-4l-412 -428q150 -5 269 -66.5t188.5 -175.5t69.5 -262q0 -223 -155 -363.5t-396 -140.5q-242 0 -396.5 143t-154.5 375h227q0 -220 88 -355.5t236 -135.5q143 0 233 128t90 349q0 214 -88 345.5t-235 131.5z" />
    <glyph glyph-name="four.osf" horiz-adv-x="913" 
d="M39 -51h-8v4l708 1145h4v-1123h138v-26h-138v-301h-229v301h-475zM74 -25h440v707z" />
    <glyph glyph-name="five.osf" horiz-adv-x="1261" 
d="M281 512h-5v555h678v-201h-649v-307q139 76 318 76q159 0 285 -60.5t199 -175.5t73 -266q0 -224 -155 -365t-396 -141q-242 0 -396.5 143t-154.5 375h227q0 -219 87 -355t237 -136q143 0 233 128.5t90 350.5q0 212 -100 341.5t-268 129.5q-164 0 -303 -92z" />
    <glyph glyph-name="six.osf" horiz-adv-x="1228" 
d="M752 1446l14 -19q-288 -241 -393 -514q109 74 248 74q159 0 285.5 -60.5t200 -175.5t73.5 -266q0 -224 -156 -364.5t-397 -140.5t-396 144t-155 380q0 233 155.5 458.5t520.5 483.5zM305 504q0 -224 87.5 -361t234.5 -137q143 0 233 128.5t90 350.5q0 211 -98 341
t-256 130q-138 0 -238 -84q-53 -161 -53 -368z" />
    <glyph glyph-name="seven.osf" horiz-adv-x="899" 
d="M829 1067l-362 -1419h-236l531 1216h-686v203h753z" />
    <glyph glyph-name="eight.osf" horiz-adv-x="1105" 
d="M551 -20q-201 0 -334 125t-133 313q0 165 110.5 282.5t284.5 139.5q-121 20 -196.5 99.5t-75.5 188.5q0 132 99 222t245 90q149 0 248.5 -90t99.5 -222q0 -109 -76.5 -188.5t-199.5 -99.5q174 -22 285.5 -139.5t111.5 -282.5q0 -188 -134 -313t-335 -125zM551 848
q67 0 108 72t41 208q0 140 -41 212.5t-108 72.5q-66 0 -107 -73t-41 -212q0 -136 41 -208t107 -72zM551 6q107 0 174.5 111.5t67.5 300.5q0 188 -67 297.5t-175 109.5q-105 0 -172.5 -110t-67.5 -297q0 -188 67.5 -300t172.5 -112z" />
    <glyph glyph-name="nine.osf" horiz-adv-x="1228" 
d="M489 -379l-14 19q288 241 393 514q-109 -74 -247 -74q-243 0 -401.5 137.5t-158.5 364.5q0 224 155.5 364.5t395.5 140.5q242 0 397.5 -144t155.5 -380q0 -233 -155.5 -458.5t-520.5 -483.5zM291 582q0 -211 98 -341t256 -130q138 0 238 84q53 161 53 368q0 224 -88 361
t-236 137q-141 0 -231 -128.5t-90 -350.5z" />
    <glyph glyph-name="threesuperior.001" horiz-adv-x="587" 
d="M266 1143h-22v2l116 135h-237v139h381v-4l-195 -223q102 -6 170 -72.5t68 -163.5q0 -103 -73.5 -170t-182.5 -67q-110 0 -183 67t-73 170h145q0 -95 32 -157t79 -62q45 0 76.5 62t31.5 157q0 93 -31 156.5t-73 63.5z" />
    <glyph glyph-name="ampersand.ss01" horiz-adv-x="1411" 
d="M1335 961h-155v-463q0 -232 -154.5 -375t-396.5 -143q-241 0 -396 140t-155 363q0 221 148 358t376 146l-409 428v4h772v-200h-543l219 -232h694v-26zM952 498v463h-323q-147 0 -235.5 -132t-88.5 -346q0 -221 90.5 -349t233.5 -128q148 0 235.5 136t87.5 356z" />
    <glyph glyph-name="dieresiscomb.ss01" horiz-adv-x="741" 
d="M178 1184q-32 0 -54 22t-22 56q0 31 22 52t54 21q31 0 53.5 -21.5t22.5 -51.5q0 -33 -22.5 -55.5t-53.5 -22.5zM563 1184q-32 0 -54 22t-22 56q0 31 22 52t54 21q31 0 53.5 -21.5t22.5 -51.5q0 -33 -22.5 -55.5t-53.5 -22.5z" />
    <glyph glyph-name="gravecomb.ss01" horiz-adv-x="466" 
d="M154 1354l227 -189h-37l-227 189h37z" />
    <glyph glyph-name="acutecomb.ss01" horiz-adv-x="466" 
d="M221 1165h-37l228 189h37z" />
    <glyph glyph-name="hungarumlautcomb.ss01" horiz-adv-x="671" 
d="M233 1165h-34l227 189h37zM438 1165h-35l228 189h37z" />
    <glyph glyph-name="circumflexcomb.ss01" horiz-adv-x="651" 
d="M340 1374l229 -209h-41l-188 168l-188 -168h-41z" />
    <glyph glyph-name="caroncomb.ss01" horiz-adv-x="651" 
d="M340 1159l-229 209h41l188 -168l188 168h41z" />
    <glyph glyph-name="brevecomb.ss01" horiz-adv-x="651" 
d="M131 1354q0 -68 53.5 -125.5t141.5 -57.5q89 0 141.5 57t52.5 126h29q0 -77 -59.5 -143t-163.5 -66t-164 66t-60 143h29z" />
    <glyph glyph-name="tildecomb.ss01" horiz-adv-x="700" 
d="M231 1284q-44 0 -73 -26.5t-29 -61.5h-27q0 47 36 81t93 34q38 0 71 -16t53 -34.5t50.5 -34.5t63.5 -16q46 0 75 26t29 62h25q0 -47 -36 -80.5t-93 -33.5q-39 0 -72.5 15.5t-54 34.5t-50 34.5t-61.5 15.5z" />
    <glyph glyph-name="macroncomb.ss01" horiz-adv-x="718" 
d="M102 1192v27h514v-27h-514z" />
    <glyph glyph-name="dieresis.ss01" horiz-adv-x="741" 
d="M178 1184q-32 0 -54 22t-22 56q0 31 22 52t54 21q31 0 53.5 -21.5t22.5 -51.5q0 -33 -22.5 -55.5t-53.5 -22.5zM563 1184q-32 0 -54 22t-22 56q0 31 22 52t54 21q31 0 53.5 -21.5t22.5 -51.5q0 -33 -22.5 -55.5t-53.5 -22.5z" />
    <glyph glyph-name="grave.ss01" horiz-adv-x="466" 
d="M137 1354l228 -189h-37l-228 189h37z" />
    <glyph glyph-name="acute.ss01" horiz-adv-x="466" 
d="M139 1165h-37l228 189h37z" />
    <glyph glyph-name="hungarumlaut.ss01" horiz-adv-x="671" 
d="M137 1165h-35l228 189h37zM342 1165h-35l228 189h36z" />
    <glyph glyph-name="circumflex.ss01" horiz-adv-x="651" 
d="M326 1374l229 -209h-41l-188 168l-189 -168h-41z" />
    <glyph glyph-name="caron.ss01" horiz-adv-x="651" 
d="M326 1159l-230 209h41l189 -168l188 168h41z" />
    <glyph glyph-name="breve.ss01" horiz-adv-x="651" 
d="M131 1354q0 -68 53.5 -125.5t141.5 -57.5q89 0 141.5 57t52.5 126h29q0 -77 -59.5 -143t-163.5 -66t-164 66t-60 143h29z" />
    <glyph glyph-name="tilde.ss01" horiz-adv-x="700" 
d="M231 1284q-44 0 -73 -26.5t-29 -61.5h-27q0 47 36 81t93 34q38 0 71 -16t53 -34.5t50.5 -34.5t63.5 -16q46 0 75 26t29 62h25q0 -47 -36 -80.5t-93 -33.5q-39 0 -72.5 15.5t-54 34.5t-50 34.5t-61.5 15.5z" />
    <glyph glyph-name="macron.ss01" horiz-adv-x="718" 
d="M102 1192v27h514v-27h-514z" />
    <glyph glyph-name="NULL" horiz-adv-x="1228" 
 />
    <glyph glyph-name="Numero" horiz-adv-x="2355" 
d="M1671 242q-171 0 -310 76t-218.5 213t-79.5 309t79.5 309t218.5 213t310 76q172 0 311 -76t218 -213t79 -309t-79 -309t-218 -213t-311 -76zM117 0v1419h235l498 -1333v1333h29v-1419h-236l-498 1329v-1329h-28zM1671 268q166 0 269.5 153t103.5 419q0 256 -102 413.5
t-271 157.5q-165 0 -269 -152.5t-104 -418.5q0 -255 102 -413.5t271 -158.5zM1188 27h966v-27h-966v27z" />
    </font>
</defs>
</svg>
